SplineFontDB: 3.2
FontName: Amsterdam-One
FullName: Amsterdam One
FamilyName: Amsterdam One
Weight: Book
Copyright: Amsterdam (c) Lettersiro 2017. All Rights Reserved
Version: 1.00;August 13, 2018;FontCreator 11.5.0.2427 64-bit
ItalicAngle: 0
UnderlinePosition: -292
UnderlineWidth: 150
Ascent: 1638
Descent: 410
InvalidEm: 0
sfntRevision: 0x00010000
LayerCount: 2
Layer: 0 1 "Back" 1
Layer: 1 1 "Fore" 0
XUID: [1021 29 1022969051 18172]
StyleMap: 0x0040
FSType: 0
OS2Version: 3
OS2_WeightWidthSlopeOnly: 0
OS2_UseTypoMetrics: 0
CreationTime: 1481710939
ModificationTime: 1742946259
PfmFamily: 17
TTFWeight: 400
TTFWidth: 5
LineGap: 0
VLineGap: 0
Panose: 2 0 5 0 0 0 0 0 0 0
OS2TypoAscent: 2688
OS2TypoAOffset: 0
OS2TypoDescent: -727
OS2TypoDOffset: 0
OS2TypoLinegap: 205
OS2WinAscent: 4536
OS2WinAOffset: 0
OS2WinDescent: 2001
OS2WinDOffset: 0
HheadAscent: 4536
HheadAOffset: 0
HheadDescent: -2001
HheadDOffset: 0
OS2SubXSize: 1434
OS2SubYSize: 1331
OS2SubXOff: 0
OS2SubYOff: 283
OS2SupXSize: 1434
OS2SupYSize: 1331
OS2SupXOff: 0
OS2SupYOff: 977
OS2StrikeYSize: 102
OS2StrikeYPos: 530
OS2CapHeight: 1434
OS2XHeight: 1024
OS2Vendor: 'HL  '
OS2CodePages: 00000001.00000000
OS2UnicodeRanges: 00000003.10000000.00000000.00000000
Lookup: 1 0 0 "'salt' Stylistic Alternatives in Latin lookup 0" { "'salt' Stylistic Alternatives in Latin lookup 0 subtable"  } ['salt' ('latn' <'dflt' > ) ]
Lookup: 4 0 1 "'liga' Standard Ligatures in Latin lookup 1" { "'liga' Standard Ligatures in Latin lookup 1 subtable"  } ['liga' ('latn' <'dflt' > ) ]
Lookup: 1 0 0 "'ss01' Style Set 1 in Latin lookup 2" { "'ss01' Style Set 1 in Latin lookup 2 subtable"  } ['ss01' ('latn' <'dflt' > ) ]
Lookup: 1 0 0 "'titl' Titling in Latin lookup 3" { "'titl' Titling in Latin lookup 3 subtable"  } ['titl' ('latn' <'dflt' > ) ]
Lookup: 1 0 0 "'swsh' Swash in Latin lookup 4" { "'swsh' Swash in Latin lookup 4 subtable" ("swash") } ['swsh' ('latn' <'dflt' > ) ]

StartChar: .notdef
Encoding: 65536 -1 0
Width: 2253
GlyphClass: 2
Flags: W
LayerCount: 2
Fore
SplineSet
220 -300 m 1,0,-1
 220 2855 l 1,1,-1
 2033 2855 l 1,2,-1
 2033 -300 l 1,3,-1
 220 -300 l 1,0,-1
330 -190 m 1,4,-1
 1923 -190 l 1,5,-1
 1923 2745 l 1,6,-1
 330 2745 l 1,7,-1
 330 -190 l 1,4,-1
715 2226 m 1,8,9
 783 2287 783 2287 843 2320 c 0,10,11
 959 2386 959 2386 1089 2386 c 0,12,13
 1291 2386 1291 2386 1414.5 2281.5 c 128,-1,14
 1538 2177 1538 2177 1538 2001 c 0,15,16
 1538 1893 1538 1893 1487.5 1784.5 c 128,-1,17
 1437 1676 1437 1676 1296 1500 c 0,18,19
 1157 1324 1157 1324 1078 1209.5 c 128,-1,20
 999 1095 999 1095 999 991 c 0,21,22
 999 908 999 908 1052 699 c 1,23,-1
 981 699 l 1,24,25
 904 912 904 912 904 1024 c 0,26,27
 904 1192 904 1192 1083.5 1504 c 128,-1,28
 1263 1816 1263 1816 1263 1981 c 0,29,30
 1263 2107 1263 2107 1190.5 2179.5 c 128,-1,31
 1118 2252 1118 2252 990 2252 c 0,32,33
 906 2252 906 2252 838 2215 c 0,34,35
 781 2182 781 2182 715 2127 c 1,36,-1
 715 2226 l 1,8,9
856 435 m 2,37,-1
 981 562 l 2,38,39
 1005 584 1005 584 1025 584 c 0,40,41
 1047 584 1047 584 1074 560 c 2,42,-1
 1197 428 l 2,43,44
 1217 404 1217 404 1217 384 c 0,45,46
 1217 360 1217 360 1195 336 c 2,47,-1
 1071 199 l 2,48,49
 1041 169 1041 169 1025 169 c 0,50,51
 1001 169 1001 169 981 191 c 2,52,-1
 847 347 l 2,53,54
 832 367 832 367 832 386 c 0,55,56
 832 408 832 408 856 435 c 2,37,-1
EndSplineSet
EndChar

StartChar: exclam
Encoding: 33 33 4
Width: 427
GlyphClass: 2
Flags: W
LayerCount: 2
Fore
SplineSet
222 356 m 1,0,-1
 222 356 l 1,1,2
 152 351 152 351 150 422 c 0,3,4
 130 778 130 778 129 1143 c 128,-1,5
 128 1508 128 1508 130 1874 c 0,6,7
 132 2074 132 2074 132 2272 c 0,8,9
 132 2355 132 2355 139 2437 c 1,10,11
 150 2501 150 2501 220 2501 c 0,12,13
 293 2498 293 2498 299 2437 c 0,14,15
 301 2410 301 2410 301 2384 c 0,16,17
 301 2380 301 2380 301 2373 c 0,18,19
 301 2303 301 2303 301 2230 c 0,20,21
 304 1841 304 1841 298.5 1397.5 c 128,-1,22
 293 954 293 954 260 411 c 0,23,24
 257 402 257 402 257 395 c 0,25,26
 255 378 255 378 249.5 368 c 128,-1,27
 244 358 244 358 222 356 c 1,0,-1
275 127 m 1,28,-1
 275 127 l 1,29,30
 317 114 317 114 310 41 c 0,31,32
 304 19 304 19 297 -5 c 0,33,34
 279 -69 279 -69 255 -139 c 0,35,36
 246 -164 246 -164 226.5 -167 c 128,-1,37
 207 -170 207 -170 185 -168 c 0,38,39
 183 -168 183 -168 180 -168 c 0,40,41
 136 -168 136 -168 125 -126 c 1,42,43
 110 -32 110 -32 132 63 c 0,44,45
 145 109 145 109 186 126.5 c 128,-1,46
 227 144 227 144 275 127 c 1,28,-1
EndSplineSet
EndChar

StartChar: quotedbl
Encoding: 34 34 5
Width: 729
GlyphClass: 2
Flags: W
LayerCount: 2
Fore
SplineSet
293 1499 m 1,0,-1
 293 1499 l 1,1,2
 341 1510 341 1510 357 1459 c 0,3,4
 374 1413 374 1413 374 1367 c 0,5,6
 374 1325 374 1325 358.5 1293 c 128,-1,7
 343 1261 343 1261 321 1235 c 0,8,9
 308 1220 308 1220 292.5 1218.5 c 128,-1,10
 277 1217 277 1217 262 1226 c 0,11,12
 240 1237 240 1237 264 1264 c 1,13,14
 302 1345 302 1345 265.5 1390 c 128,-1,15
 229 1435 229 1435 243.5 1463.5 c 128,-1,16
 258 1492 258 1492 293 1499 c 1,0,-1
440 1503 m 1,17,-1
 440 1503 l 1,18,19
 489 1514 489 1514 504 1464 c 1,20,21
 522 1418 522 1418 522 1371 c 0,22,23
 522 1330 522 1330 506.5 1298 c 128,-1,24
 491 1266 491 1266 469 1239 c 0,25,26
 456 1224 456 1224 440.5 1223 c 128,-1,27
 425 1222 425 1222 409 1231 c 0,28,29
 387 1242 387 1242 412 1268 c 1,30,31
 449 1349 449 1349 412.5 1394.5 c 128,-1,32
 376 1440 376 1440 390.5 1468.5 c 128,-1,33
 405 1497 405 1497 440 1503 c 1,17,-1
EndSplineSet
EndChar

StartChar: numbersign
Encoding: 35 35 6
Width: 1482
GlyphClass: 2
Flags: W
LayerCount: 2
Fore
SplineSet
1390 945 m 1,0,-1
 1390 945 l 1,1,2
 1401 936 1401 936 1400 917.5 c 128,-1,3
 1399 899 1399 899 1388 890 c 0,4,5
 1349 864 1349 864 1302 877 c 1,6,7
 1228 890 1228 890 1151 877 c 0,8,9
 1104 873 1104 873 1080 831 c 0,10,11
 1036 752 1036 752 992 675 c 0,12,13
 957 613 957 613 924 551 c 0,14,15
 902 505 902 505 955 505 c 0,16,17
 1076 510 1076 510 1197 518 c 0,18,19
 1206 518 1206 518 1212 521 c 0,20,21
 1234 523 1234 523 1255 522 c 128,-1,22
 1276 521 1276 521 1296 510 c 0,23,24
 1311 499 1311 499 1318 481 c 0,25,26
 1322 470 1322 470 1315.5 462.5 c 128,-1,27
 1309 455 1309 455 1302 450 c 0,28,29
 1267 435 1267 435 1230 428 c 0,30,31
 1078 402 1078 402 924 408 c 0,32,33
 825 415 825 415 783 325 c 1,34,35
 739 241 739 241 689 160 c 0,36,37
 669 127 669 127 649 92 c 0,38,39
 625 50 625 50 574 52 c 0,40,41
 535 54 535 54 519.5 76 c 128,-1,42
 504 98 504 98 521 136 c 0,43,44
 550 199 550 199 583 261 c 0,45,46
 607 305 607 305 629 351 c 0,47,48
 653 400 653 400 598 400 c 0,49,50
 570 400 570 400 541 400 c 0,51,52
 504 402 504 402 467.5 399.5 c 128,-1,53
 431 397 431 397 398 386 c 1,54,55
 367 371 367 371 348.5 342.5 c 128,-1,56
 330 314 330 314 317 281 c 256,57,58
 304 248 304 248 286 221 c 0,59,60
 257 177 257 177 233 131 c 0,61,62
 216 98 216 98 196 67 c 0,63,64
 165 21 165 21 108 26 c 0,65,66
 40 32 40 32 62 92 c 1,67,68
 86 142 86 142 110 191 c 0,69,70
 123 215 123 215 134 241 c 0,71,72
 156 285 156 285 178 329 c 0,73,74
 187 349 187 349 196 367 c 1,75,76
 174 382 174 382 153 385.5 c 128,-1,77
 132 389 132 389 112 386 c 0,78,79
 97 386 97 386 81 386 c 0,80,81
 79 389 79 389 77 389 c 0,82,83
 40 386 40 386 11 408 c 0,84,85
 7 411 7 411 3.5 417.5 c 128,-1,86
 0 424 0 424 0 430 c 0,87,88
 2 435 2 435 4.5 441.5 c 128,-1,89
 7 448 7 448 11 450 c 0,90,91
 66 472 66 472 123 474 c 0,92,93
 136 474 136 474 147 474 c 0,94,95
 176 477 176 477 196 479 c 0,96,97
 227 481 227 481 242 484.5 c 128,-1,98
 257 488 257 488 268 502 c 128,-1,99
 279 516 279 516 295 549 c 0,100,101
 301 562 301 562 312 580 c 0,102,103
 321 595 321 595 330 613 c 0,104,105
 370 686 370 686 407 760 c 0,106,107
 433 809 433 809 423.5 822 c 128,-1,108
 414 835 414 835 354 835 c 0,109,110
 277 833 277 833 202 837 c 0,111,112
 176 840 176 840 154 851 c 0,113,114
 145 853 145 853 140.5 861.5 c 128,-1,115
 136 870 136 870 134 879 c 0,116,117
 134 884 134 884 139.5 889.5 c 128,-1,118
 145 895 145 895 150 899 c 0,119,120
 163 910 163 910 178.5 912 c 128,-1,121
 194 914 194 914 209 914 c 0,122,123
 216 914 216 914 222 914 c 0,124,125
 330 921 330 921 438 925 c 0,126,127
 502 928 502 928 530 983 c 0,128,129
 587 1086 587 1086 645 1187 c 0,130,131
 658 1214 658 1214 673 1238 c 0,132,133
 693 1273 693 1273 713 1304 c 0,134,135
 757 1372 757 1372 834 1350 c 0,136,137
 869 1341 869 1341 865 1304 c 0,138,139
 860 1260 860 1260 836 1225 c 0,140,141
 832 1218 832 1218 827 1209 c 0,142,143
 801 1156 801 1156 772 1106 c 0,144,145
 744 1051 744 1051 713 996 c 1,146,147
 689 945 689 945 739 945 c 0,148,149
 845 939 845 939 899 947.5 c 128,-1,150
 953 956 953 956 987 998 c 128,-1,151
 1021 1040 1021 1040 1063 1132 c 0,152,153
 1082 1172 1082 1172 1098 1214 c 0,154,155
 1107 1238 1107 1238 1118 1262 c 0,156,157
 1133 1297 1133 1297 1171.5 1307 c 128,-1,158
 1210 1317 1210 1317 1245 1295 c 1,159,160
 1278 1266 1278 1266 1265 1227 c 0,161,162
 1247 1176 1247 1176 1228 1128 c 0,163,164
 1217 1101 1217 1101 1206 1073 c 0,165,166
 1201 1060 1201 1060 1195 1049 c 0,167,168
 1184 1031 1184 1031 1178.5 1013.5 c 128,-1,169
 1173 996 1173 996 1181 974 c 1,170,171
 1210 972 1210 972 1243 969 c 0,172,173
 1285 967 1285 967 1331 965 c 0,174,175
 1362 965 1362 965 1390 945 c 1,0,-1
880 789 m 1,176,-1
 880 789 l 1,177,178
 880 791 880 791 880 791 c 1,179,180
 889 804 889 804 893.5 819.5 c 128,-1,181
 898 835 898 835 891 857 c 1,182,183
 788 862 788 862 684 846 c 0,184,185
 671 844 671 844 658 844 c 0,186,187
 645 842 645 842 634 834 c 128,-1,188
 623 826 623 826 616 818 c 0,189,190
 537 672 537 672 462 525 c 0,191,192
 455 512 455 512 460.5 501 c 128,-1,193
 466 490 466 490 484 490 c 0,194,195
 524 490 524 490 563 490 c 0,196,197
 607 490 607 490 649 490 c 0,198,199
 713 490 713 490 739 547 c 1,200,201
 781 620 781 620 823 692 c 0,202,203
 851 741 851 741 880 789 c 1,176,-1
EndSplineSet
EndChar

StartChar: dollar
Encoding: 36 36 7
Width: 1069
GlyphClass: 2
Flags: W
LayerCount: 2
Fore
SplineSet
838 908 m 1,0,-1
 838 908 l 1,1,2
 950 818 950 818 954.5 699 c 128,-1,3
 959 580 959 580 854 481 c 0,4,5
 818 448 818 448 775.5 426 c 128,-1,6
 733 404 733 404 689 386 c 0,7,8
 658 375 658 375 627 369 c 0,9,10
 563 360 563 360 561 292 c 0,11,12
 554 195 554 195 541 98 c 0,13,14
 539 81 539 81 537 63 c 0,15,16
 530 6 530 6 469 4 c 0,17,18
 405 -1 405 -1 400 61 c 0,19,20
 400 87 400 87 403 114 c 0,21,22
 403 125 403 125 405 136 c 0,23,24
 405 158 405 158 405 177 c 0,25,26
 409 221 409 221 409 263 c 0,27,28
 411 303 411 303 408 320.5 c 128,-1,29
 405 338 405 338 387.5 344.5 c 128,-1,30
 370 351 370 351 332 360 c 0,31,32
 242 375 242 375 165 422 c 0,33,34
 46 499 46 499 13 633 c 0,35,36
 0 690 0 690 42 708 c 0,37,38
 75 719 75 719 102.5 712 c 128,-1,39
 130 705 130 705 143 681 c 0,40,41
 152 664 152 664 158 642 c 0,42,43
 167 620 167 620 178 600 c 0,44,45
 240 488 240 488 363 459 c 0,46,47
 416 446 416 446 420 492 c 0,48,49
 425 705 425 705 429 921 c 0,50,51
 429 928 429 928 429 936 c 0,52,53
 429 978 429 978 389 996 c 0,54,55
 387 998 387 998 385 998 c 0,56,57
 345 1016 345 1016 308 1033 c 0,58,59
 299 1040 299 1040 288 1044 c 0,60,61
 242 1068 242 1068 198 1095 c 0,62,63
 66 1185 66 1185 35 1315 c 128,-1,64
 4 1445 4 1445 79 1585 c 0,65,66
 178 1768 178 1768 376 1832 c 1,67,68
 436 1847 436 1847 433 1904 c 0,69,70
 431 1962 431 1962 436 2019 c 0,71,72
 440 2120 440 2120 524 2113 c 1,73,74
 592 2113 592 2113 594 2012 c 0,75,76
 596 1955 596 1955 596 1898 c 0,77,78
 594 1847 594 1847 645 1834 c 0,79,80
 671 1827 671 1827 697 1816 c 0,81,82
 702 1814 702 1814 704 1812 c 0,83,84
 812 1764 812 1764 849.5 1688 c 128,-1,85
 887 1612 887 1612 882 1517 c 0,86,87
 876 1431 876 1431 847 1346 c 1,88,89
 847 1346 847 1346 847 1343 c 0,90,91
 823 1255 823 1255 730 1273 c 0,92,93
 686 1280 686 1280 691 1328 c 0,94,95
 695 1359 695 1359 702 1392 c 0,96,97
 713 1447 713 1447 719 1504 c 0,98,99
 730 1596 730 1596 680 1673 c 0,100,101
 660 1698 660 1698 631 1713 c 0,102,103
 620 1720 620 1720 612.5 1714.5 c 128,-1,104
 605 1709 605 1709 603 1700 c 0,105,106
 596 1669 596 1669 596 1636 c 0,107,108
 594 1539 594 1539 596 1440 c 0,109,110
 596 1405 596 1405 596 1370 c 1,111,112
 596 1370 596 1370 596 1370 c 1,113,114
 596 1330 596 1330 596 1288 c 0,115,116
 596 1189 596 1189 596 1088 c 0,117,118
 594 1031 594 1031 647 1011 c 0,119,120
 702 989 702 989 752 963 c 0,121,122
 796 939 796 939 838 908 c 1,0,-1
429 1159 m 1,123,-1
 429 1159 l 1,124,125
 431 1255 431 1255 429 1350 c 0,126,127
 429 1390 429 1390 429 1427 c 1,128,129
 429 1427 429 1427 429 1427 c 1,130,131
 429 1462 429 1462 429 1497 c 0,132,133
 429 1596 429 1596 429 1693 c 0,134,135
 427 1706 427 1706 415 1713 c 128,-1,136
 403 1720 403 1720 389 1713 c 0,137,138
 288 1651 288 1651 238 1546 c 0,139,140
 172 1418 172 1418 210.5 1306 c 128,-1,141
 249 1194 249 1194 376 1130 c 0,142,143
 398 1121 398 1121 413.5 1127.5 c 128,-1,144
 429 1134 429 1134 429 1159 c 1,123,-1
788 675 m 1,145,-1
 788 675 l 1,146,147
 792 741 792 741 758 789 c 128,-1,148
 724 837 724 837 671 870 c 0,149,150
 660 877 660 877 651 881 c 0,151,152
 649 884 649 884 649 884 c 1,153,154
 627 892 627 892 610.5 885.5 c 128,-1,155
 594 879 594 879 594 855 c 0,156,157
 592 793 592 793 592 730 c 0,158,159
 594 705 594 705 594 679 c 1,160,161
 587 679 587 679 583 679 c 1,162,163
 583 655 583 655 583 631 c 0,164,165
 583 571 583 571 583 514 c 0,166,167
 583 494 583 494 594 485.5 c 128,-1,168
 605 477 605 477 623 481 c 0,169,170
 689 510 689 510 733 556 c 128,-1,171
 777 602 777 602 788 675 c 1,145,-1
EndSplineSet
EndChar

StartChar: percent
Encoding: 37 37 8
Width: 1423
GlyphClass: 2
Flags: W
LayerCount: 2
Fore
SplineSet
1151 1449 m 1,0,-1
 1151 1449 l 1,1,2
 1135 1423 1135 1423 1115 1396 c 0,3,4
 948 1165 948 1165 789.5 928.5 c 128,-1,5
 631 692 631 692 477 452 c 0,6,7
 403 338 403 338 328 224 c 0,8,9
 282 155 282 155 235 85 c 0,10,11
 205 39 205 39 150 43 c 0,12,13
 132 43 132 43 117.5 47.5 c 128,-1,14
 103 52 103 52 92 65 c 0,15,16
 81 81 81 81 85.5 94 c 128,-1,17
 90 107 90 107 99 118 c 0,18,19
 101 120 101 120 101 122 c 0,20,21
 132 171 132 171 163 219 c 0,22,23
 246 356 246 356 334 488 c 0,24,25
 585 866 585 866 838 1240 c 0,26,27
 889 1313 889 1313 946 1385 c 0,28,29
 972 1418 972 1418 999 1453 c 0,30,31
 1016 1478 1016 1478 1043.5 1490 c 128,-1,32
 1071 1502 1071 1502 1118 1497 c 1,33,34
 1113 1500 1113 1500 1112 1500 c 129,-1,35
 1111 1500 1111 1500 1112 1500 c 129,-1,36
 1113 1500 1113 1500 1116.5 1498.5 c 128,-1,37
 1120 1497 1120 1497 1122 1497 c 0,38,39
 1137 1495 1137 1495 1147 1479.5 c 128,-1,40
 1157 1464 1157 1464 1151 1449 c 1,0,-1
176 908 m 1,41,-1
 176 908 l 1,42,43
 123 901 123 901 78 931 c 128,-1,44
 33 961 33 961 16.5 1018 c 128,-1,45
 0 1075 0 1075 29 1150 c 0,46,47
 59 1220 59 1220 114 1275 c 0,48,49
 158 1324 158 1324 211 1343.5 c 128,-1,50
 264 1363 264 1363 328 1332 c 1,51,52
 356 1324 356 1324 385 1324 c 0,53,54
 400 1321 400 1321 416 1319 c 0,55,56
 486 1306 486 1306 517 1260 c 128,-1,57
 548 1214 548 1214 528 1145 c 0,58,59
 517 1101 517 1101 491 1066 c 0,60,61
 436 989 436 989 359 948.5 c 128,-1,62
 282 908 282 908 176 908 c 1,41,-1
198 1152 m 1,63,-1
 198 1152 l 1,64,65
 176 1115 176 1115 174 1064 c 0,66,67
 174 1060 174 1060 174 1055 c 0,68,69
 176 1044 176 1044 180 1031 c 0,70,71
 191 1005 191 1005 220 1009 c 0,72,73
 279 1024 279 1024 324.5 1078 c 128,-1,74
 370 1132 370 1132 370 1189 c 0,75,76
 370 1194 370 1194 366.5 1200.5 c 128,-1,77
 363 1207 363 1207 359 1209 c 0,78,79
 310 1227 310 1227 266 1210.5 c 128,-1,80
 222 1194 222 1194 198 1152 c 1,63,-1
1153 655 m 1,81,-1
 1153 655 l 1,82,83
 1241 637 1241 637 1275 574.5 c 128,-1,84
 1309 512 1309 512 1276 426 c 0,85,86
 1247 351 1247 351 1175.5 305 c 128,-1,87
 1104 259 1104 259 1014 257 c 0,88,89
 924 257 924 257 867 301 c 128,-1,90
 810 345 810 345 805 419 c 1,91,92
 803 582 803 582 931 688 c 0,93,94
 957 710 957 710 990 712 c 128,-1,95
 1023 714 1023 714 1047 692 c 0,96,97
 1069 675 1069 675 1091 668 c 128,-1,98
 1113 661 1113 661 1135 657 c 0,99,100
 1144 657 1144 657 1153 655 c 1,81,-1
1122 472 m 1,101,-1
 1122 472 l 1,102,103
 1144 558 1144 558 1054 567 c 0,104,105
 1012 573 1012 573 994 534 c 0,106,107
 970 490 970 490 970 430 c 0,108,109
 970 428 970 428 970 426 c 0,110,111
 972 415 972 415 975 400 c 0,112,113
 983 371 983 371 1005 363.5 c 128,-1,114
 1027 356 1027 356 1052 371 c 0,115,116
 1107 408 1107 408 1122 472 c 1,101,-1
EndSplineSet
EndChar

StartChar: ampersand
Encoding: 38 38 9
Width: 2090
GlyphClass: 2
Flags: W
LayerCount: 2
Fore
SplineSet
1837 813 m 1,0,-1
 1837 813 l 1,1,2
 1855 787 1855 787 1866 758 c 0,3,4
 1907 639 1907 639 1920.5 494 c 128,-1,5
 1934 349 1934 349 1905.5 208 c 128,-1,6
 1877 67 1877 67 1793 -33 c 128,-1,7
 1709 -133 1709 -133 1558 -157 c 0,8,9
 1342 -190 1342 -190 1153 -82 c 0,10,11
 1036 -14 1036 -14 946 87 c 0,12,13
 915 122 915 122 882 160 c 0,14,15
 865 177 865 177 847 197 c 1,16,17
 799 171 799 171 766 129 c 0,18,19
 755 116 755 116 744 105 c 0,20,21
 741 103 741 103 739 98 c 0,22,23
 645 -1 645 -1 537 -84 c 1,24,25
 416 -168 416 -168 273 -159 c 0,26,27
 145 -150 145 -150 72.5 -71 c 128,-1,28
 0 8 0 8 2 133 c 0,29,30
 4 210 4 210 29.5 278.5 c 128,-1,31
 55 347 55 347 92 411 c 0,32,33
 147 505 147 505 213 590 c 128,-1,34
 279 675 279 675 354 756 c 0,35,36
 418 826 418 826 486 892 c 0,37,38
 537 939 537 939 521 1007 c 0,39,40
 482 1227 482 1227 491 1451 c 1,41,42
 493 1605 493 1605 546 1750 c 0,43,44
 638 1995 638 1995 902 1981 c 1,45,46
 1034 1979 1034 1979 1142 1909 c 0,47,48
 1344 1772 1344 1772 1269 1541 c 1,49,50
 1234 1447 1234 1447 1170 1365 c 0,51,52
 1109 1286 1109 1286 1038.5 1215.5 c 128,-1,53
 968 1145 968 1145 895 1079 c 0,54,55
 887 1071 887 1071 878 1064 c 0,56,57
 812 1002 812 1002 748 941 c 1,58,59
 719 919 719 919 726 886 c 0,60,61
 733 857 733 857 741 829 c 0,62,63
 763 741 763 741 793 656 c 128,-1,64
 823 571 823 571 871 494 c 0,65,66
 873 492 873 492 878 490 c 0,67,68
 880 488 880 488 882 488 c 0,69,70
 924 514 924 514 955 551 c 0,71,72
 964 562 964 562 975 576 c 0,73,74
 1190 802 1190 802 1426 1007 c 0,75,76
 1459 1035 1459 1035 1496 1062 c 0,77,78
 1533 1090 1533 1090 1580 1084 c 0,79,80
 1606 1082 1606 1082 1624 1062 c 1,81,82
 1630 1046 1630 1046 1624.5 1036.5 c 128,-1,83
 1619 1027 1619 1027 1610 1018 c 0,84,85
 1591 996 1591 996 1569 974 c 0,86,87
 1549 956 1549 956 1529 934 c 0,88,89
 1489 892 1489 892 1448 848 c 0,90,91
 1225 615 1225 615 1003 380 c 0,92,93
 970 345 970 345 968 325 c 128,-1,94
 966 305 966 305 994 270 c 0,95,96
 1074 153 1074 153 1179 61 c 0,97,98
 1263 -12 1263 -12 1364 -49 c 1,99,100
 1505 -93 1505 -93 1595 -49 c 128,-1,101
 1685 -5 1685 -5 1731.5 96 c 128,-1,102
 1778 197 1778 197 1785.5 323.5 c 128,-1,103
 1793 450 1793 450 1770 570 c 128,-1,104
 1747 690 1747 690 1698 771 c 0,105,106
 1694 782 1694 782 1690 791 c 0,107,108
 1683 804 1683 804 1679 818 c 0,109,110
 1674 833 1674 833 1682 843 c 128,-1,111
 1690 853 1690 853 1703 857 c 0,112,113
 1791 884 1791 884 1837 813 c 1,0,-1
695 1658 m 1,114,-1
 695 1658 l 1,115,116
 673 1583 673 1583 667.5 1507 c 128,-1,117
 662 1431 662 1431 662 1354 c 0,118,119
 664 1326 664 1326 667 1295 c 0,120,121
 671 1218 671 1218 680 1139 c 0,122,123
 682 1121 682 1121 696.5 1115.5 c 128,-1,124
 711 1110 711 1110 726 1121 c 0,125,126
 810 1194 810 1194 889 1272 c 128,-1,127
 968 1350 968 1350 1032 1442 c 0,128,129
 1082 1511 1082 1511 1102 1590 c 1,130,131
 1142 1797 1142 1797 950 1874 c 0,132,133
 856 1909 856 1909 785 1836 c 0,134,135
 750 1799 750 1799 729 1754 c 128,-1,136
 708 1709 708 1709 695 1658 c 1,114,-1
726 307 m 1,137,-1
 726 307 l 1,138,139
 759 345 759 345 733 389 c 0,140,141
 647 545 647 545 592 716 c 0,142,143
 590 725 590 725 581 738 c 0,144,145
 574 747 574 747 568 760 c 1,146,147
 464 659 464 659 380.5 552.5 c 128,-1,148
 297 446 297 446 235 327 c 0,149,150
 176 217 176 217 180 94 c 0,151,152
 185 28 185 28 231 -21 c 0,153,154
 284 -82 284 -82 356 -40 c 0,155,156
 396 -21 396 -21 429 8 c 0,157,158
 563 122 563 122 678 254 c 0,159,160
 702 281 702 281 726 307 c 1,137,-1
EndSplineSet
Substitution2: "'ss01' Style Set 1 in Latin lookup 2 subtable" dan3
Substitution2: "'salt' Stylistic Alternatives in Latin lookup 0 subtable" dan2
EndChar

StartChar: quotesingle
Encoding: 39 39 10
Width: 607
GlyphClass: 2
Flags: W
LayerCount: 2
Fore
SplineSet
246 1456 m 1,0,-1
 246 1456 l 1,1,2
 294 1467 294 1467 310 1416 c 0,3,4
 327 1370 327 1370 327 1324 c 0,5,6
 327 1282 327 1282 311.5 1250 c 128,-1,7
 296 1218 296 1218 274 1192 c 0,8,9
 261 1177 261 1177 245.5 1175.5 c 128,-1,10
 230 1174 230 1174 215 1183 c 0,11,12
 193 1194 193 1194 217 1221 c 1,13,14
 255 1302 255 1302 218.5 1347 c 128,-1,15
 182 1392 182 1392 196.5 1420.5 c 128,-1,16
 211 1449 211 1449 246 1456 c 1,0,-1
EndSplineSet
EndChar

StartChar: parenleft
Encoding: 40 40 11
Width: 702
GlyphClass: 2
Flags: W
LayerCount: 2
Fore
SplineSet
532 2857 m 1,0,-1
 532 2857 l 1,1,2
 592 2855 592 2855 576 2793 c 0,3,4
 565 2760 565 2760 552 2727 c 0,5,6
 552 2725 552 2725 550 2723 c 0,7,8
 436 2437 436 2437 361 2090.5 c 128,-1,9
 286 1744 286 1744 266 1377.5 c 128,-1,10
 246 1011 246 1011 292.5 663.5 c 128,-1,11
 339 316 339 316 466 26 c 0,12,13
 469 21 469 21 471 15 c 0,14,15
 482 -1 482 -1 485 -18.5 c 128,-1,16
 488 -36 488 -36 471 -51 c 0,17,18
 447 -73 447 -73 418 -69 c 128,-1,19
 389 -65 389 -65 372 -40 c 0,20,21
 359 -18 359 -18 348 4 c 0,22,23
 345 8 345 8 343 15 c 0,24,25
 211 290 211 290 160.5 606.5 c 128,-1,26
 110 923 110 923 121 1256.5 c 128,-1,27
 132 1590 132 1590 190.5 1912 c 128,-1,28
 249 2234 249 2234 337 2518 c 0,29,30
 381 2661 381 2661 447 2795 c 0,31,32
 475 2859 475 2859 532 2857 c 1,0,-1
EndSplineSet
EndChar

StartChar: parenright
Encoding: 41 41 12
Width: 702
GlyphClass: 2
Flags: W
LayerCount: 2
Fore
SplineSet
167 -69 m 1,0,-1
 167 -69 l 1,1,2
 108 -67 108 -67 123 -5 c 0,3,4
 134 28 134 28 147 61 c 0,5,6
 149 63 149 63 149 65 c 0,7,8
 266 351 266 351 339.5 697.5 c 128,-1,9
 413 1044 413 1044 434 1410.5 c 128,-1,10
 455 1777 455 1777 408 2124.5 c 128,-1,11
 361 2472 361 2472 235 2760 c 0,12,13
 233 2767 233 2767 229 2773 c 0,14,15
 220 2789 220 2789 216.5 2806.5 c 128,-1,16
 213 2824 213 2824 231 2839 c 0,17,18
 255 2859 255 2859 282.5 2856 c 128,-1,19
 310 2853 310 2853 328 2828 c 0,20,21
 343 2806 343 2806 352 2782 c 0,22,23
 354 2778 354 2778 356 2773 c 0,24,25
 488 2498 488 2498 540 2180.5 c 128,-1,26
 592 1863 592 1863 579.5 1530.5 c 128,-1,27
 567 1198 567 1198 509 876 c 128,-1,28
 451 554 451 554 365 270 c 0,29,30
 319 125 319 125 253 -7 c 1,31,32
 226 -71 226 -71 167 -69 c 1,0,-1
EndSplineSet
EndChar

StartChar: asterisk
Encoding: 42 42 13
Width: 794
GlyphClass: 2
Flags: W
LayerCount: 2
Fore
SplineSet
533 1372 m 1,0,-1
 533 1372 l 1,1,2
 546 1374 546 1374 558 1370 c 128,-1,3
 570 1366 570 1366 575 1352 c 0,4,5
 579 1339 579 1339 571.5 1331.5 c 128,-1,6
 564 1324 564 1324 553 1317 c 0,7,8
 551 1317 551 1317 548 1317 c 0,9,10
 546 1315 546 1315 542 1313 c 0,11,12
 522 1306 522 1306 507 1286 c 1,13,14
 515 1273 515 1273 524 1260 c 0,15,16
 544 1227 544 1227 562 1194 c 0,17,18
 568 1183 568 1183 561.5 1172 c 128,-1,19
 555 1161 555 1161 540 1157 c 0,20,21
 509 1150 509 1150 485 1168 c 0,22,23
 476 1174 476 1174 471 1181 c 0,24,25
 465 1187 465 1187 460 1192 c 0,26,27
 447 1203 447 1203 440.5 1206 c 128,-1,28
 434 1209 434 1209 426.5 1206 c 128,-1,29
 419 1203 419 1203 405 1192 c 0,30,31
 399 1187 399 1187 394 1183 c 0,32,33
 381 1174 381 1174 370 1168 c 0,34,35
 350 1159 350 1159 328 1163 c 0,36,37
 309 1168 309 1168 303.5 1182 c 128,-1,38
 298 1196 298 1196 309 1214 c 0,39,40
 313 1220 313 1220 320 1229 c 0,41,42
 324 1234 324 1234 328 1240 c 0,43,44
 348 1267 348 1267 345 1278 c 128,-1,45
 342 1289 342 1289 309 1300 c 0,46,47
 295 1304 295 1304 282 1306 c 0,48,49
 267 1311 267 1311 251 1317 c 0,50,51
 247 1319 247 1319 242.5 1324.5 c 128,-1,52
 238 1330 238 1330 238 1335 c 0,53,54
 236 1346 236 1346 242.5 1351.5 c 128,-1,55
 249 1357 249 1357 258 1359 c 0,56,57
 291 1361 291 1361 324 1361 c 0,58,59
 326 1361 326 1361 326 1361 c 2,60,61
 344 1361 344 1361 352.5 1363.5 c 128,-1,62
 361 1366 361 1366 364.5 1373.5 c 128,-1,63
 368 1381 368 1381 372 1399 c 0,64,65
 388 1456 388 1456 438 1440 c 0,66,67
 471 1432 471 1432 469 1396 c 0,68,69
 469 1357 469 1357 507 1370 c 0,70,71
 520 1374 520 1374 533 1372 c 1,0,-1
EndSplineSet
EndChar

StartChar: plus
Encoding: 43 43 14
Width: 1115
GlyphClass: 2
Flags: W
LayerCount: 2
Fore
SplineSet
609 435 m 1,0,1
 605 268 605 268 585 70 c 0,2,3
 585 67 585 67 583 65 c 0,4,5
 583 56 583 56 579.5 52 c 128,-1,6
 576 48 576 48 561 48 c 0,7,8
 517 45 517 45 515 74 c 0,9,10
 504 221 504 221 502 375 c 0,11,12
 502 406 502 406 502 437 c 1,13,14
 334 441 334 441 136 457 c 0,15,16
 132 457 132 457 130 461 c 1,17,18
 121 461 121 461 117.5 464.5 c 128,-1,19
 114 468 114 468 112 479 c 0,20,21
 110 525 110 525 139 527 c 0,22,23
 286 543 286 543 440 545 c 2,24,-1
 502 547 l 1,25,26
 502 613 502 613 504 679 c 0,27,28
 504 763 504 763 506 844 c 0,29,30
 504 879 504 879 508 914 c 0,31,32
 515 941 515 941 561 941 c 0,33,34
 607 939 607 939 612 914 c 1,35,-1
 612 826 l 2,36,37
 614 697 614 697 612 547 c 1,38,-1
 911 547 l 2,39,40
 944 547 944 547 979 543 c 0,41,42
 1005 538 1005 538 1005 492 c 256,43,44
 1005 446 1005 446 979 441 c 0,45,46
 968 439 968 439 957 439 c 2,47,-1
 893 439 l 1,48,49
 759 435 759 435 609 435 c 1,0,1
EndSplineSet
EndChar

StartChar: comma
Encoding: 44 44 15
Width: 398
GlyphClass: 2
Flags: W
LayerCount: 2
Fore
SplineSet
163 254 m 1,0,-1
 163 254 l 1,1,2
 211 265 211 265 227 215 c 0,3,4
 244 169 244 169 244 122 c 0,5,6
 244 81 244 81 228.5 49 c 128,-1,7
 213 17 213 17 191 -10 c 0,8,9
 178 -25 178 -25 162.5 -26 c 128,-1,10
 147 -27 147 -27 132 -18 c 0,11,12
 110 -7 110 -7 134 19 c 1,13,14
 172 100 172 100 135.5 145.5 c 128,-1,15
 99 191 99 191 113.5 219.5 c 128,-1,16
 128 248 128 248 163 254 c 1,0,-1
EndSplineSet
EndChar

StartChar: hyphen
Encoding: 45 45 16
AltUni2: 0000ad.ffffffff.0 0000ad.ffffffff.0
Width: 893
GlyphClass: 2
Flags: W
LayerCount: 2
Fore
SplineSet
486 435 m 2,0,-1
 405 437 l 2,1,2
 279 441 279 441 130 457 c 0,3,4
 128 457 128 457 125 461 c 1,5,6
 119 461 119 461 116.5 464.5 c 128,-1,7
 114 468 114 468 112 479 c 0,8,9
 110 525 110 525 132 527 c 0,10,11
 244 543 244 543 359 545 c 2,12,-1
 405 547 l 1,13,-1
 488 547 l 1,14,-1
 713 547 l 2,15,16
 737 547 737 547 763 543 c 0,17,18
 783 538 783 538 783 492 c 256,19,20
 783 446 783 446 763 441 c 0,21,22
 757 439 757 439 746 439 c 2,23,-1
 700 439 l 1,24,25
 598 435 598 435 486 435 c 2,0,-1
EndSplineSet
EndChar

StartChar: period
Encoding: 46 46 17
Width: 383
GlyphClass: 2
Flags: W
LayerCount: 2
Fore
SplineSet
191 237 m 1,0,-1
 191 237 l 1,1,2
 273 237 273 237 249 158 c 0,3,4
 238 127 238 127 224 100 c 0,5,6
 211 76 211 76 187 68.5 c 128,-1,7
 163 61 163 61 136 72 c 0,8,9
 114 81 114 81 112 103 c 0,10,11
 110 138 110 138 114 175 c 0,12,13
 121 241 121 241 191 237 c 1,0,-1
EndSplineSet
EndChar

StartChar: slash
Encoding: 47 47 18
Width: 1234
GlyphClass: 2
Flags: W
LayerCount: 2
Fore
SplineSet
1225 2562 m 1,0,-1
 1225 2562 l 1,1,2
 1232 2551 1232 2551 1232 2531 c 0,3,4
 1232 2525 1232 2525 1232 2518 c 2,5,-1
 1232 2507 l 1,6,7
 1228 2494 1228 2494 1223 2481 c 0,8,9
 1212 2443 1212 2443 1201 2406 c 0,10,11
 1131 2190 1131 2190 1045 1986 c 0,12,13
 1025 1933 1025 1933 1005 1880 c 0,14,15
 728 1174 728 1174 427 485 c 0,16,17
 326 252 326 252 231 15 c 0,18,19
 205 -47 205 -47 180 -109 c 0,20,21
 167 -150 167 -150 139 -155 c 0,22,23
 99 -159 99 -159 87 -130.5 c 128,-1,24
 75 -102 75 -102 95 -51 c 0,25,26
 106 -21 106 -21 117 8 c 0,27,28
 220 268 220 268 326 525 c 0,29,30
 330 536 330 536 334 547 c 0,31,32
 515 980 515 980 693 1417 c 128,-1,33
 871 1854 871 1854 1041 2296 c 0,34,35
 1045 2307 1045 2307 1052 2318 c 0,36,37
 1096 2428 1096 2428 1126 2545 c 0,38,39
 1137 2584 1137 2584 1168 2589 c 0,40,41
 1206 2597 1206 2597 1225 2562 c 1,0,-1
EndSplineSet
EndChar

StartChar: zero
Encoding: 48 48 19
Width: 1201
GlyphClass: 2
Flags: W
LayerCount: 2
Fore
SplineSet
1107 1500 m 5,0,-1
 1107 1500 l 5,1,2
 1111 1414 1111 1414 1109 1326 c 4,3,4
 1109 1286 1109 1286 1109 1244 c 4,5,6
 1113 925 1113 925 1063 611 c 4,7,8
 1043 503 1043 503 1003 402 c 4,9,10
 942 250 942 250 814 151 c 4,11,12
 684 54 684 54 540 63 c 132,-1,13
 396 72 396 72 279 182 c 4,14,15
 209 250 209 250 165 336 c 4,16,17
 31 593 31 593 13 884 c 4,18,19
 0 1110 0 1110 32 1329 c 132,-1,20
 64 1548 64 1548 134 1764 c 5,21,22
 191 1953 191 1953 295 2122 c 5,23,24
 359 2234 359 2234 484 2215 c 4,25,26
 570 2204 570 2204 652.5 2182 c 132,-1,27
 735 2160 735 2160 814 2120 c 4,28,29
 931 2058 931 2058 988 1940 c 4,30,31
 1093 1733 1093 1733 1107 1500 c 5,0,-1
928 1112 m 5,32,-1
 928 1112 l 5,33,34
 933 1350 933 1350 915 1546 c 4,35,36
 906 1627 906 1627 884 1703 c 132,-1,37
 862 1779 862 1779 834 1854 c 4,38,39
 792 1964 792 1964 710.5 2022 c 132,-1,40
 629 2080 629 2080 519 2100 c 4,41,42
 486 2107 486 2107 469.5 2099 c 132,-1,43
 453 2091 453 2091 438 2058 c 4,44,45
 389 1968 389 1968 352 1874 c 4,46,47
 240 1572 240 1572 200 1255 c 4,48,49
 180 1073 180 1073 191 892.5 c 132,-1,50
 202 712 202 712 264 536 c 4,51,52
 304 413 304 413 374 307 c 4,53,54
 425 230 425 230 502 182 c 4,55,56
 554 149 554 149 609 177 c 4,57,58
 691 219 691 219 746 290 c 4,59,60
 801 364 801 364 831.5 446.5 c 132,-1,61
 862 529 862 529 880 617 c 4,62,63
 898 712 898 712 906.5 805.5 c 132,-1,64
 915 899 915 899 920 987 c 4,65,66
 924 1053 924 1053 928 1112 c 5,32,-1
EndSplineSet
EndChar

StartChar: one
Encoding: 49 49 20
Width: 647
GlyphClass: 2
Flags: W
LayerCount: 2
Fore
SplineSet
427 136 m 1,0,-1
 427 136 l 1,1,2
 438 133 438 133 451 131 c 0,3,4
 504 127 504 127 548 98 c 0,5,6
 552 94 552 94 555.5 87.5 c 128,-1,7
 559 81 559 81 559 76 c 0,8,9
 557 67 557 67 552.5 58.5 c 128,-1,10
 548 50 548 50 541 45 c 0,11,12
 510 34 510 34 480 37 c 0,13,14
 387 50 387 50 293.5 53 c 128,-1,15
 200 56 200 56 108 56 c 0,16,17
 97 54 97 54 84 54 c 0,18,19
 53 54 53 54 22 65 c 0,20,21
 15 67 15 67 7.5 76 c 128,-1,22
 0 85 0 85 0 92 c 0,23,24
 0 100 0 100 4.5 110 c 128,-1,25
 9 120 9 120 15 125 c 0,26,27
 57 142 57 142 101 151 c 1,28,29
 145 155 145 155 156 169.5 c 128,-1,30
 167 184 167 184 165 235 c 0,31,32
 165 303 165 303 163 369 c 0,33,34
 158 468 158 468 158 567 c 0,35,36
 154 1053 154 1053 183 1537 c 0,37,38
 187 1618 187 1618 183 1702 c 0,39,40
 183 1744 183 1744 183 1786 c 1,41,42
 158 1761 158 1761 130.5 1749 c 128,-1,43
 103 1737 103 1737 70 1742 c 0,44,45
 18 1753 18 1753 20 1803 c 0,46,47
 22 1816 22 1816 24 1830 c 0,48,49
 79 2025 79 2025 154 2215 c 0,50,51
 176 2274 176 2274 238 2287 c 0,52,53
 359 2309 359 2309 367 2190 c 0,54,55
 367 2173 367 2173 367 2157 c 0,56,57
 378 1918 378 1918 370 1680 c 1,58,59
 339 1099 339 1099 343 518 c 0,60,61
 343 499 343 499 343 481 c 0,62,63
 345 353 345 353 348 224 c 0,64,65
 348 175 348 175 361 159.5 c 128,-1,66
 374 144 374 144 427 136 c 1,0,-1
EndSplineSet
EndChar

StartChar: two
Encoding: 50 50 21
Width: 1377
GlyphClass: 2
Flags: W
LayerCount: 2
Fore
SplineSet
1001 353 m 1,0,-1
 1001 353 l 1,1,2
 1085 290 1085 290 1149.5 210.5 c 128,-1,3
 1214 131 1214 131 1274 48 c 0,4,5
 1276 43 1276 43 1278 39 c 0,6,7
 1289 23 1289 23 1280.5 5.5 c 128,-1,8
 1272 -12 1272 -12 1250 -16 c 0,9,10
 1197 -23 1197 -23 1153 4 c 0,11,12
 1045 65 1045 65 966 158 c 0,13,14
 926 208 926 208 879 253 c 128,-1,15
 832 298 832 298 768 334 c 1,16,17
 748 314 748 314 733 296 c 0,18,19
 697 259 697 259 664 226 c 0,20,21
 596 162 596 162 518 114.5 c 128,-1,22
 440 67 440 67 348 43 c 0,23,24
 253 21 253 21 158 34 c 0,25,26
 64 50 64 50 32 109.5 c 128,-1,27
 0 169 0 169 40 257 c 0,28,29
 86 351 86 351 169 413 c 0,30,31
 367 565 367 565 614 529 c 0,32,33
 686 518 686 518 715 580 c 1,34,35
 900 912 900 912 994 1277 c 0,36,37
 1043 1462 1043 1462 1058 1654 c 1,38,39
 1076 1823 1076 1823 1019 1981 c 0,40,41
 975 2098 975 2098 860 2155 c 0,42,43
 774 2195 774 2195 686 2157 c 0,44,45
 612 2127 612 2127 562.5 2070.5 c 128,-1,46
 513 2014 513 2014 484 1942 c 0,47,48
 411 1753 411 1753 447 1552 c 0,49,50
 451 1526 451 1526 455 1497 c 0,51,52
 464 1462 464 1462 469 1427 c 0,53,54
 469 1418 469 1418 464.5 1409.5 c 128,-1,55
 460 1401 460 1401 453 1394 c 0,56,57
 429 1379 429 1379 391.5 1384.5 c 128,-1,58
 354 1390 354 1390 337 1412 c 0,59,60
 319 1438 319 1438 310 1469 c 0,61,62
 240 1702 240 1702 308 1933 c 1,63,64
 367 2105 367 2105 482.5 2186 c 128,-1,65
 598 2267 598 2267 734.5 2276 c 128,-1,66
 871 2285 871 2285 988 2232 c 0,67,68
 1082 2190 1082 2190 1140.5 2117.5 c 128,-1,69
 1199 2045 1199 2045 1225 1948 c 0,70,71
 1256 1838 1256 1838 1256 1727 c 128,-1,72
 1256 1616 1256 1616 1239 1506 c 0,73,74
 1159 991 1159 991 902 536 c 0,75,76
 898 527 898 527 893 518 c 0,77,78
 884 505 884 505 878 492 c 0,79,80
 858 459 858 459 887 437 c 0,81,82
 944 395 944 395 1001 353 c 1,0,-1
581 386 m 1,83,-1
 581 386 l 1,84,85
 583 391 583 391 583 395 c 0,86,87
 583 397 583 397 585 400 c 0,88,89
 585 408 585 408 569.5 419 c 128,-1,90
 554 430 554 430 537 430 c 0,91,92
 436 428 436 428 344.5 362 c 128,-1,93
 253 296 253 296 213 199 c 0,94,95
 202 173 202 173 218 151 c 0,96,97
 229 140 229 140 241 139 c 128,-1,98
 253 138 253 138 264 142 c 0,99,100
 363 177 363 177 441 241 c 128,-1,101
 519 305 519 305 581 386 c 1,83,-1
EndSplineSet
EndChar

StartChar: three
Encoding: 51 51 22
Width: 1166
GlyphClass: 2
Flags: W
LayerCount: 2
Fore
SplineSet
733 1326 m 1,0,-1
 733 1326 l 1,1,2
 882 1260 882 1260 967 1142 c 128,-1,3
 1052 1024 1052 1024 1096 875 c 0,4,5
 1166 650 1166 650 1120 419 c 1,6,7
 1076 221 1076 221 941.5 96 c 128,-1,8
 807 -29 807 -29 605 -60 c 0,9,10
 484 -78 484 -78 363 -62 c 0,11,12
 255 -45 255 -45 182.5 13.5 c 128,-1,13
 110 72 110 72 79 180 c 0,14,15
 0 492 0 492 172 767 c 0,16,17
 211 826 211 826 282 813 c 0,18,19
 304 809 304 809 315 793.5 c 128,-1,20
 326 778 326 778 315 760 c 0,21,22
 255 646 255 646 231 521 c 0,23,24
 202 351 202 351 260 193 c 0,25,26
 332 -5 332 -5 541 39 c 0,27,28
 867 109 867 109 935 439 c 0,29,30
 966 595 966 595 938.5 742.5 c 128,-1,31
 911 890 911 890 840 1031 c 0,32,33
 805 1099 805 1099 748 1154 c 0,34,35
 700 1203 700 1203 641.5 1230.5 c 128,-1,36
 583 1258 583 1258 508 1249 c 1,37,38
 458 1236 458 1236 409 1255 c 0,39,40
 400 1260 400 1260 392.5 1266.5 c 128,-1,41
 385 1273 385 1273 383 1282 c 0,42,43
 376 1308 376 1308 403 1326 c 1,44,45
 403 1326 403 1326 405 1328 c 0,46,47
 425 1341 425 1341 447 1346 c 0,48,49
 499 1357 499 1357 542 1384.5 c 128,-1,50
 585 1412 585 1412 623 1445 c 0,51,52
 803 1585 803 1585 898 1792 c 0,53,54
 931 1867 931 1867 950 1948 c 0,55,56
 970 2032 970 2032 931 2109 c 0,57,58
 895 2175 895 2175 834.5 2198 c 128,-1,59
 774 2221 774 2221 704 2195 c 0,60,61
 570 2142 570 2142 488 2021 c 0,62,63
 425 1926 425 1926 396 1821.5 c 128,-1,64
 367 1717 367 1717 396 1599 c 0,65,66
 416 1517 416 1517 328 1528 c 0,67,68
 264 1533 264 1533 242 1592 c 0,69,70
 209 1678 209 1678 222 1768 c 0,71,72
 262 2032 262 2032 473 2197 c 1,73,74
 653 2329 653 2329 871 2294 c 0,75,76
 1001 2270 1001 2270 1069 2176.5 c 128,-1,77
 1137 2083 1137 2083 1122 1953 c 0,78,79
 1111 1876 1111 1876 1082 1805 c 0,80,81
 986 1572 986 1572 794 1405 c 0,82,83
 761 1376 761 1376 728 1346 c 0,84,85
 726 1346 726 1346 726 1343.5 c 128,-1,86
 726 1341 726 1341 726 1339 c 0,87,88
 724 1337 724 1337 724 1335 c 0,89,90
 726 1332 726 1332 726 1330 c 0,91,92
 730 1328 730 1328 733 1326 c 1,0,-1
EndSplineSet
EndChar

StartChar: four
Encoding: 52 52 23
Width: 1300
GlyphClass: 2
Flags: W
LayerCount: 2
Fore
SplineSet
1135 2316 m 1,0,-1
 1135 2316 l 1,1,2
 1210 2314 1210 2314 1212 2248 c 0,3,4
 1212 2100 1212 2100 1199 1955 c 0,5,6
 1146 1346 1146 1346 1122 732 c 0,7,8
 1109 459 1109 459 1129 184 c 0,9,10
 1131 166 1131 166 1131 147 c 0,11,12
 1133 94 1133 94 1121 74 c 128,-1,13
 1109 54 1109 54 1074 54 c 0,14,15
 1034 50 1034 50 1014 67.5 c 128,-1,16
 994 85 994 85 988 138 c 0,17,18
 966 283 966 283 953 428 c 0,19,20
 937 650 937 650 948 873 c 0,21,22
 950 892 950 892 950 914 c 0,23,24
 957 996 957 996 939.5 1012.5 c 128,-1,25
 922 1029 922 1029 840 1027 c 0,26,27
 768 1027 768 1027 695 1027 c 0,28,29
 570 1027 570 1027 444 1024 c 0,30,31
 356 1022 356 1022 271 1016 c 0,32,33
 242 1013 242 1013 216 1011 c 0,34,35
 176 1009 176 1009 138.5 1010 c 128,-1,36
 101 1011 101 1011 64 1024 c 1,37,38
 0 1055 0 1055 31 1119 c 1,39,40
 59 1165 59 1165 97 1209 c 0,41,42
 97 1211 97 1211 97 1211 c 1,43,44
 227 1376 227 1376 353.5 1545.5 c 128,-1,45
 480 1715 480 1715 596 1891 c 0,46,47
 700 2052 700 2052 788 2221 c 0,48,49
 829 2300 829 2300 915 2278 c 0,50,51
 935 2274 935 2274 946 2257.5 c 128,-1,52
 957 2241 957 2241 955 2221 c 0,53,54
 939 2151 939 2151 902 2089 c 0,55,56
 898 2085 898 2085 895 2080 c 0,57,58
 752 1816 752 1816 572 1577 c 0,59,60
 475 1449 475 1449 378 1321 c 0,61,62
 328 1255 328 1255 277 1189 c 0,63,64
 268 1176 268 1176 253 1154 c 0,65,66
 244 1141 244 1141 231 1121 c 1,67,68
 330 1121 330 1121 420 1121 c 0,69,70
 625 1123 625 1123 816 1121 c 0,71,72
 823 1121 823 1121 829 1121 c 0,73,74
 891 1117 891 1117 919.5 1123.5 c 128,-1,75
 948 1130 948 1130 956 1159.5 c 128,-1,76
 964 1189 964 1189 968 1258 c 0,77,78
 979 1390 979 1390 990 1522 c 0,79,80
 1010 1753 1010 1753 1030 1984 c 0,81,82
 1041 2116 1041 2116 1058 2250 c 0,83,84
 1067 2318 1067 2318 1135 2316 c 1,0,-1
EndSplineSet
EndChar

StartChar: five
Encoding: 53 53 24
Width: 1159
GlyphClass: 2
Flags: W
LayerCount: 2
Fore
SplineSet
640 1387 m 1,0,-1
 640 1387 l 1,1,2
 862 1381 862 1381 948 1181 c 1,3,4
 1034 969 1034 969 1025 743 c 1,5,6
 1023 589 1023 589 975 441 c 1,7,8
 917 285 917 285 793 192.5 c 128,-1,9
 669 100 669 100 514 87 c 128,-1,10
 359 74 359 74 211 155 c 0,11,12
 79 230 79 230 18 369 c 0,13,14
 15 373 15 373 15 375 c 0,15,16
 4 393 4 393 2 414 c 128,-1,17
 0 435 0 435 18 452 c 0,18,19
 44 470 44 470 78 464.5 c 128,-1,20
 112 459 112 459 132 435 c 0,21,22
 145 415 145 415 156 395 c 0,23,24
 163 382 163 382 172 369 c 0,25,26
 216 296 216 296 286 248 c 0,27,28
 458 136 458 136 629 254 c 1,29,30
 746 342 746 342 785 483 c 0,31,32
 851 712 851 712 814 950 c 0,33,34
 796 1044 796 1044 768 1134 c 0,35,36
 750 1183 750 1183 719 1225 c 0,37,38
 651 1317 651 1317 539 1271 c 0,39,40
 407 1214 407 1214 317 1104 c 0,41,42
 304 1088 304 1088 293 1071 c 0,43,44
 282 1055 282 1055 271 1042 c 0,45,46
 209 972 209 972 123 1007 c 0,47,48
 90 1022 90 1022 95 1060 c 0,49,50
 101 1097 101 1097 112 1134 c 0,51,52
 117 1152 117 1152 121 1172 c 0,53,54
 227 1605 227 1605 295 2047 c 0,55,56
 295 2054 295 2054 297 2061 c 0,57,58
 304 2091 304 2091 304 2122 c 0,59,60
 301 2177 301 2177 315.5 2197 c 128,-1,61
 330 2217 330 2217 376 2217 c 0,62,63
 576 2223 576 2223 774 2226 c 0,64,65
 845 2226 845 2226 913 2226 c 0,66,67
 924 2226 924 2226 935 2223 c 0,68,69
 937 2223 937 2223 939 2223 c 0,70,71
 953 2219 953 2219 962.5 2212.5 c 128,-1,72
 972 2206 972 2206 975 2193 c 0,73,74
 977 2173 977 2173 966 2163 c 128,-1,75
 955 2153 955 2153 937 2149 c 0,76,77
 845 2124 845 2124 748 2127 c 1,78,79
 640 2124 640 2124 530 2122 c 0,80,81
 497 2122 497 2122 485 2112 c 128,-1,82
 473 2102 473 2102 471 2074 c 0,83,84
 425 1726 425 1726 345 1383 c 0,85,86
 343 1370 343 1370 343 1348 c 0,87,88
 343 1335 343 1335 341 1317 c 1,89,90
 493 1390 493 1390 640 1387 c 1,0,-1
EndSplineSet
EndChar

StartChar: six
Encoding: 54 54 25
Width: 1168
GlyphClass: 2
Flags: W
LayerCount: 2
Fore
SplineSet
614 1258 m 1,0,-1
 614 1258 l 1,1,2
 856 1251 856 1251 968 1044 c 0,3,4
 1080 831 1080 831 1079 616.5 c 128,-1,5
 1078 402 1078 402 957 193 c 0,6,7
 865 39 865 39 727.5 -8.5 c 128,-1,8
 590 -56 590 -56 416 -16 c 0,9,10
 332 6 332 6 269.5 57.5 c 128,-1,11
 207 109 207 109 163 184 c 0,12,13
 112 263 112 263 82.5 350 c 128,-1,14
 53 437 53 437 35 529 c 0,15,16
 2 686 2 686 2 846 c 0,17,18
 0 1007 0 1007 37 1161 c 0,19,20
 139 1610 139 1610 416 1975 c 0,21,22
 508 2098 508 2098 636 2188 c 0,23,24
 713 2243 713 2243 803 2221 c 0,25,26
 812 2219 812 2219 819.5 2211.5 c 128,-1,27
 827 2204 827 2204 829 2197 c 0,28,29
 832 2188 832 2188 828.5 2178 c 128,-1,30
 825 2168 825 2168 818 2164 c 0,31,32
 647 2052 647 2052 537 1890 c 128,-1,33
 427 1728 427 1728 341 1548 c 0,34,35
 273 1412 273 1412 233 1262 c 0,36,37
 218 1196 218 1196 275 1218 c 0,38,39
 359 1249 359 1249 443.5 1254.5 c 128,-1,40
 528 1260 528 1260 614 1258 c 1,0,-1
788 228 m 1,41,-1
 788 228 l 1,42,43
 893 406 893 406 895 615 c 0,44,45
 895 776 895 776 838 928 c 0,46,47
 807 1011 807 1011 746 1077 c 0,48,49
 680 1150 680 1150 579 1159 c 0,50,51
 361 1176 361 1176 222 1005 c 0,52,53
 178 956 178 956 176 892 c 0,54,55
 167 681 167 681 220 477 c 0,56,57
 238 402 238 402 265.5 331.5 c 128,-1,58
 293 261 293 261 339 199 c 0,59,60
 398 114 398 114 495 74 c 0,61,62
 552 54 552 54 607 74 c 0,63,64
 724 120 724 120 788 228 c 1,41,-1
EndSplineSet
EndChar

StartChar: seven
Encoding: 55 55 26
Width: 1155
GlyphClass: 2
Flags: W
LayerCount: 2
Fore
SplineSet
1005 2208 m 1,0,-1
 1005 2208 l 1,1,2
 1023 2208 1023 2208 1041 2210 c 0,3,4
 1071 2215 1071 2215 1100 2210.5 c 128,-1,5
 1129 2206 1129 2206 1144 2175 c 0,6,7
 1155 2151 1155 2151 1144 2130 c 128,-1,8
 1133 2109 1133 2109 1118 2089 c 1,9,10
 1100 2072 1100 2072 1091 2052 c 0,11,12
 1082 2039 1082 2039 1074 2023 c 0,13,14
 1069 2017 1069 2017 1065 2008 c 0,15,16
 926 1764 926 1764 812 1511 c 0,17,18
 763 1407 763 1407 713 1304 c 0,19,20
 715 1299 715 1299 717 1297 c 0,21,22
 719 1291 719 1291 722 1288 c 0,23,24
 733 1280 733 1280 746 1275 c 0,25,26
 757 1269 757 1269 765.5 1261 c 128,-1,27
 774 1253 774 1253 774 1240 c 0,28,29
 774 1216 774 1216 757.5 1208 c 128,-1,30
 741 1200 741 1200 722 1200 c 0,31,32
 715 1198 715 1198 708 1198 c 0,33,34
 671 1192 671 1192 652.5 1168.5 c 128,-1,35
 634 1145 634 1145 620 1115 c 0,36,37
 537 950 537 950 468.5 777 c 128,-1,38
 400 604 400 604 339 430 c 0,39,40
 264 206 264 206 156 -3 c 0,41,42
 141 -32 141 -32 121 -49.5 c 128,-1,43
 101 -67 101 -67 70 -67 c 2,44,-1
 68 -67 l 2,45,46
 62 -67 62 -67 55 -67 c 0,47,48
 31 -62 31 -62 15.5 -45.5 c 128,-1,49
 0 -29 0 -29 2 -5 c 0,50,51
 11 45 11 45 24 94 c 0,52,53
 101 338 101 338 187 578 c 128,-1,54
 273 818 273 818 378 1051 c 0,55,56
 394 1086 394 1086 407 1121 c 0,57,58
 409 1128 409 1128 411 1134 c 2,59,60
 411 1134 411 1134 411 1136.5 c 128,-1,61
 411 1139 411 1139 411 1141 c 0,62,63
 409 1143 409 1143 409 1145 c 0,64,65
 400 1154 400 1154 389 1156.5 c 128,-1,66
 378 1159 378 1159 367 1159 c 0,67,68
 365 1159 365 1159 363 1159 c 0,69,70
 348 1159 348 1159 332 1161 c 0,71,72
 290 1161 290 1161 249 1163 c 0,73,74
 244 1163 244 1163 240 1163 c 0,75,76
 216 1163 216 1163 195 1169.5 c 128,-1,77
 174 1176 174 1176 163 1203 c 0,78,79
 152 1242 152 1242 251 1251 c 0,80,81
 255 1251 255 1251 257 1251 c 0,82,83
 326 1258 326 1258 392 1255 c 0,84,85
 482 1251 482 1251 519 1337 c 0,86,87
 627 1568 627 1568 741 1797 c 0,88,89
 785 1882 785 1882 832 1968 c 0,90,91
 862 2023 862 2023 891 2078 c 0,92,93
 898 2091 898 2091 892.5 2102 c 128,-1,94
 887 2113 887 2113 871 2113 c 0,95,96
 827 2120 827 2120 783 2116 c 0,97,98
 649 2105 649 2105 515 2108 c 128,-1,99
 381 2111 381 2111 246 2118 c 0,100,101
 202 2122 202 2122 158 2124 c 0,102,103
 154 2124 154 2124 147 2124 c 0,104,105
 121 2124 121 2124 95.5 2129.5 c 128,-1,106
 70 2135 70 2135 51 2155 c 0,107,108
 42 2164 42 2164 43 2178.5 c 128,-1,109
 44 2193 44 2193 53 2199 c 0,110,111
 86 2221 86 2221 125 2217 c 0,112,113
 266 2204 266 2204 406 2202.5 c 128,-1,114
 546 2201 546 2201 686 2206 c 0,115,116
 847 2210 847 2210 1005 2208 c 1,0,-1
EndSplineSet
EndChar

StartChar: eight
Encoding: 56 56 27
Width: 1274
GlyphClass: 2
Flags: W
LayerCount: 2
Fore
SplineSet
1126 1557 m 1,0,-1
 1126 1557 l 1,1,2
 1089 1462 1089 1462 1036 1375 c 128,-1,3
 983 1288 983 1288 909 1216 c 0,4,5
 898 1205 898 1205 884 1189 c 0,6,7
 878 1183 878 1183 867 1172 c 1,8,9
 891 1145 891 1145 913 1121 c 0,10,11
 961 1073 961 1073 1003 1024 c 0,12,13
 1135 877 1135 877 1160.5 710 c 128,-1,14
 1186 543 1186 543 1113 360 c 0,15,16
 1047 199 1047 199 922 78 c 0,17,18
 807 -29 807 -29 663 -54.5 c 128,-1,19
 519 -80 519 -80 380.5 -28.5 c 128,-1,20
 242 23 242 23 147 149 c 0,21,22
 55 276 55 276 27.5 416 c 128,-1,23
 0 556 0 556 26 705 c 0,24,25
 68 945 68 945 231 1126 c 0,26,27
 286 1189 286 1189 335.5 1223.5 c 128,-1,28
 385 1258 385 1258 469 1291 c 1,29,30
 469 1308 469 1308 461 1318 c 128,-1,31
 453 1328 453 1328 442 1337 c 0,32,33
 436 1343 436 1343 429 1350 c 0,34,35
 411 1370 411 1370 394 1390 c 0,36,37
 354 1431 354 1431 319 1475 c 0,38,39
 240 1577 240 1577 273 1704 c 0,40,41
 286 1753 286 1753 306 1799 c 0,42,43
 403 2001 403 2001 594 2116 c 0,44,45
 689 2173 689 2173 799 2177 c 1,46,47
 950 2175 950 2175 1051.5 2085 c 128,-1,48
 1153 1995 1153 1995 1170 1845 c 0,49,50
 1184 1695 1184 1695 1126 1557 c 1,0,-1
966 470 m 1,51,-1
 966 470 l 1,52,53
 1041 743 1041 743 858 958 c 0,54,55
 796 1031 796 1031 726 1093.5 c 128,-1,56
 656 1156 656 1156 583 1216 c 0,57,58
 576 1220 576 1220 570 1227 c 1,59,60
 561 1222 561 1222 554 1220 c 0,61,62
 541 1216 541 1216 530 1211 c 0,63,64
 343 1082 343 1082 252 867.5 c 128,-1,65
 161 653 161 653 202 433 c 0,66,67
 222 327 222 327 272.5 240 c 128,-1,68
 323 153 323 153 414 94 c 1,69,70
 504 30 504 30 571 32 c 128,-1,71
 638 34 638 34 717 92 c 0,72,73
 744 111 744 111 768 133 c 0,74,75
 913 274 913 274 966 470 c 1,51,-1
750 1277 m 1,76,-1
 750 1277 l 1,77,78
 790 1317 790 1317 820.5 1363 c 128,-1,79
 851 1409 851 1409 876 1458 c 0,80,81
 882 1467 882 1467 889 1478 c 0,82,83
 966 1612 966 1612 981 1768 c 0,84,85
 997 1915 997 1915 898 2025 c 0,86,87
 827 2107 827 2107 737 2050 c 0,88,89
 548 1940 548 1940 469 1737 c 1,90,91
 411 1607 411 1607 502 1497 c 0,92,93
 607 1370 607 1370 750 1277 c 1,76,-1
EndSplineSet
EndChar

StartChar: nine
Encoding: 57 57 28
Width: 1298
GlyphClass: 2
Flags: W
LayerCount: 2
Fore
SplineSet
1016 2006 m 1,0,-1
 1016 2006 l 1,1,2
 1179 1797 1179 1797 1190 1535 c 0,3,4
 1210 1163 1210 1163 1080 848.5 c 128,-1,5
 950 534 950 534 684 276 c 0,6,7
 594 188 594 188 484 142 c 128,-1,8
 374 96 374 96 253 72 c 0,9,10
 216 61 216 61 178 81 c 0,11,12
 172 85 172 85 168.5 92.5 c 128,-1,13
 165 100 165 100 165 110 c 128,-1,14
 165 120 165 120 172 125 c 0,15,16
 191 140 191 140 216 149 c 0,17,18
 337 195 337 195 436 273 c 128,-1,19
 535 351 535 351 618 450 c 0,20,21
 898 771 898 771 975 1187 c 0,22,23
 975 1196 975 1196 977 1203 c 0,24,25
 983 1233 983 1233 986.5 1264 c 128,-1,26
 990 1295 990 1295 981 1326 c 1,27,28
 964 1330 964 1330 949.5 1324.5 c 128,-1,29
 935 1319 935 1319 922 1310 c 0,30,31
 909 1304 909 1304 898 1299 c 0,32,33
 596 1189 596 1189 304 1321 c 0,34,35
 216 1361 216 1361 145 1429 c 1,36,37
 59 1519 59 1519 40.5 1630.5 c 128,-1,38
 22 1742 22 1742 77 1854 c 0,39,40
 134 1962 134 1962 231 2039 c 0,41,42
 400 2175 400 2175 616 2188 c 0,43,44
 862 2201 862 2201 1016 2006 c 1,0,-1
992 1484 m 1,45,-1
 992 1484 l 1,46,47
 992 1491 992 1491 992 1500 c 0,48,49
 992 1504 992 1504 992 1508 c 0,50,51
 986 1717 986 1717 882 1898 c 0,52,53
 843 1970 843 1970 777 2023 c 0,54,55
 739 2056 739 2056 696 2073.5 c 128,-1,56
 653 2091 653 2091 601 2083 c 0,57,58
 477 2058 477 2058 386 1991 c 128,-1,59
 295 1924 295 1924 240 1810 c 0,60,61
 196 1715 196 1715 217 1621.5 c 128,-1,62
 238 1528 238 1528 317 1464 c 1,63,64
 458 1359 458 1359 585.5 1345.5 c 128,-1,65
 713 1332 713 1332 849 1405 c 0,66,67
 856 1409 856 1409 862 1412 c 0,68,69
 904 1440 904 1440 957 1442 c 0,70,71
 975 1442 975 1442 983.5 1454.5 c 128,-1,72
 992 1467 992 1467 992 1484 c 1,45,-1
EndSplineSet
EndChar

StartChar: colon
Encoding: 58 58 29
Width: 383
GlyphClass: 2
Flags: W
LayerCount: 2
Fore
SplineSet
191 950 m 1,0,-1
 191 950 l 1,1,2
 273 950 273 950 249 870 c 0,3,4
 238 840 238 840 224 813 c 0,5,6
 211 789 211 789 187 781.5 c 128,-1,7
 163 774 163 774 136 785 c 0,8,9
 114 793 114 793 112 815 c 0,10,11
 110 851 110 851 114 888 c 0,12,13
 121 954 121 954 191 950 c 1,0,-1
191 213 m 1,14,-1
 191 213 l 1,15,16
 273 213 273 213 249 133 c 0,17,18
 238 103 238 103 224 76 c 0,19,20
 211 52 211 52 187 44.5 c 128,-1,21
 163 37 163 37 136 48 c 0,22,23
 114 56 114 56 112 78 c 0,24,25
 110 114 110 114 114 151 c 0,26,27
 121 217 121 217 191 213 c 1,14,-1
EndSplineSet
EndChar

StartChar: semicolon
Encoding: 59 59 30
AltUni2: 00037e.ffffffff.0 00037e.ffffffff.0
Width: 398
GlyphClass: 2
Flags: W
LayerCount: 2
Fore
SplineSet
163 254 m 1,0,-1
 163 254 l 1,1,2
 211 265 211 265 227 215 c 0,3,4
 244 169 244 169 244 122 c 0,5,6
 244 81 244 81 228.5 49 c 128,-1,7
 213 17 213 17 191 -10 c 0,8,9
 178 -25 178 -25 162.5 -26 c 128,-1,10
 147 -27 147 -27 132 -18 c 0,11,12
 110 -7 110 -7 134 19 c 1,13,14
 172 100 172 100 135.5 145.5 c 128,-1,15
 99 191 99 191 113.5 219.5 c 128,-1,16
 128 248 128 248 163 254 c 1,0,-1
207 941 m 1,17,-1
 207 941 l 1,18,19
 288 941 288 941 264 862 c 0,20,21
 253 831 253 831 240 804 c 0,22,23
 227 780 227 780 202.5 772.5 c 128,-1,24
 178 765 178 765 152 776 c 0,25,26
 130 785 130 785 128 807 c 0,27,28
 125 842 125 842 130 879 c 0,29,30
 136 945 136 945 207 941 c 1,17,-1
EndSplineSet
EndChar

StartChar: less
Encoding: 60 60 31
Width: 1033
GlyphClass: 2
Flags: W
LayerCount: 2
Fore
SplineSet
132 551 m 1,0,1
 124 578 124 578 139 587 c 0,2,3
 236 642 236 642 341 688 c 2,4,-1
 383 708 l 1,5,-1
 460 738 l 1,6,-1
 667 824 l 2,7,8
 691 835 691 835 718 840 c 0,9,10
 737 844 737 844 755 800 c 0,11,12
 773 758 773 758 755 745 c 0,13,14
 751 741 751 741 742 736 c 2,15,-1
 698 719 l 1,16,17
 605 677 605 677 502 635 c 2,18,-1
 425 606 l 2,19,20
 341 576 341 576 245 545 c 1,21,22
 339 516 339 516 421 485 c 2,23,-1
 498 457 l 1,24,25
 601 415 601 415 693 373 c 2,26,-1
 737 353 l 2,27,28
 746 351 746 351 751 347 c 0,29,30
 768 334 768 334 751 292 c 0,31,32
 733 248 733 248 713 252 c 0,33,34
 687 257 687 257 663 265 c 2,35,-1
 456 351 l 1,36,-1
 379 384 l 1,37,-1
 337 402 l 2,38,39
 231 448 231 448 135 505 c 0,40,41
 117 514 117 514 132 551 c 1,0,1
EndSplineSet
EndChar

StartChar: equal
Encoding: 61 61 32
Width: 893
GlyphClass: 2
Flags: W
LayerCount: 2
Fore
SplineSet
473 327 m 2,0,-1
 385 329 l 2,1,2
 246 334 246 334 84 349 c 0,3,4
 79 349 79 349 77 353 c 0,5,6
 73 353 73 353 69.5 356.5 c 128,-1,7
 66 360 66 360 64 371 c 0,8,9
 62 417 62 417 86 419 c 0,10,11
 207 435 207 435 334 437 c 2,12,-1
 385 439 l 1,13,-1
 475 439 l 1,14,-1
 722 439 l 2,15,16
 748 439 748 439 777 435 c 0,17,18
 799 430 799 430 799 384 c 256,19,20
 799 338 799 338 777 334 c 0,21,22
 768 331 768 331 759 331 c 2,23,-1
 706 331 l 1,24,25
 596 327 596 327 473 327 c 2,0,-1
486 536 m 2,26,-1
 398 538 l 2,27,28
 260 543 260 543 97 558 c 0,29,30
 92 558 92 558 90 562 c 0,31,32
 86 562 86 562 82.5 565.5 c 128,-1,33
 79 569 79 569 77 580 c 0,34,35
 75 626 75 626 99 628 c 0,36,37
 220 644 220 644 348 646 c 2,38,-1
 398 648 l 1,39,-1
 488 648 l 1,40,-1
 735 648 l 2,41,42
 761 648 761 648 790 644 c 0,43,44
 812 639 812 639 812 593 c 256,45,46
 812 547 812 547 790 543 c 0,47,48
 781 540 781 540 772 540 c 2,49,-1
 719 540 l 1,50,51
 609 536 609 536 486 536 c 2,26,-1
EndSplineSet
EndChar

StartChar: greater
Encoding: 62 62 33
Width: 1033
GlyphClass: 2
Flags: W
LayerCount: 2
Fore
SplineSet
757 551 m 1,0,1
 773 514 773 514 755 505 c 0,2,3
 658 448 658 448 553 402 c 2,4,-1
 511 384 l 1,5,-1
 434 351 l 1,6,-1
 227 265 l 2,7,8
 203 257 203 257 176 252 c 0,9,10
 157 248 157 248 139 292 c 0,11,12
 121 334 121 334 139 347 c 0,13,14
 143 351 143 351 152 353 c 2,15,-1
 196 373 l 2,16,17
 289 415 289 415 392 457 c 1,18,-1
 469 485 l 2,19,20
 548 516 548 516 643 545 c 1,21,22
 546 576 546 576 465 606 c 2,23,-1
 388 635 l 2,24,25
 284 677 284 677 192 719 c 1,26,-1
 148 736 l 2,27,28
 139 741 139 741 135 745 c 0,29,30
 117 758 117 758 135 800 c 0,31,32
 152 844 152 844 172 840 c 0,33,34
 198 835 198 835 223 824 c 2,35,-1
 429 738 l 1,36,-1
 506 708 l 1,37,-1
 548 688 l 1,38,39
 654 642 654 642 751 587 c 0,40,41
 766 578 766 578 757 551 c 1,0,1
EndSplineSet
EndChar

StartChar: question
Encoding: 63 63 34
Width: 1971
GlyphClass: 2
Flags: W
LayerCount: 2
Fore
SplineSet
557 1174 m 1,0,-1
 557 1174 l 1,1,2
 565 1167 565 1167 572 1159.5 c 128,-1,3
 579 1152 579 1152 581 1143 c 0,4,5
 585 1132 585 1132 578.5 1125.5 c 128,-1,6
 572 1119 572 1119 563 1117 c 0,7,8
 458 1084 458 1084 354 1152 c 0,9,10
 211 1244 211 1244 160.5 1378.5 c 128,-1,11
 110 1513 110 1513 136.5 1666 c 128,-1,12
 163 1819 163 1819 250 1966 c 128,-1,13
 337 2113 337 2113 469 2237 c 1,14,15
 601 2355 601 2355 786.5 2429 c 128,-1,16
 972 2503 972 2503 1177 2496 c 0,17,18
 1360 2487 1360 2487 1520.5 2399 c 128,-1,19
 1681 2311 1681 2311 1771 2160.5 c 128,-1,20
 1861 2010 1861 2010 1828 1814 c 1,21,22
 1802 1691 1802 1691 1696.5 1536 c 128,-1,23
 1591 1381 1591 1381 1448 1198 c 0,24,25
 1324 1038 1324 1038 1200 863 c 128,-1,26
 1076 688 1076 688 981.5 506.5 c 128,-1,27
 887 325 887 325 851 140 c 0,28,29
 847 131 847 131 845 122 c 0,30,31
 836 100 836 100 825 79.5 c 128,-1,32
 814 59 814 59 801 50 c 128,-1,33
 788 41 788 41 770 56 c 1,34,35
 724 219 724 219 792 409.5 c 128,-1,36
 860 600 860 600 993 800 c 128,-1,37
 1126 1000 1126 1000 1274 1194 c 0,38,39
 1421 1385 1421 1385 1531 1554.5 c 128,-1,40
 1641 1724 1641 1724 1665 1854 c 1,41,42
 1696 2061 1696 2061 1627 2180.5 c 128,-1,43
 1558 2300 1558 2300 1426 2345.5 c 128,-1,44
 1294 2391 1294 2391 1135.5 2374.5 c 128,-1,45
 977 2358 977 2358 827.5 2293 c 128,-1,46
 678 2228 678 2228 574 2129 c 0,47,48
 458 2014 458 2014 387.5 1872.5 c 128,-1,49
 317 1731 317 1731 311.5 1581 c 128,-1,50
 306 1431 306 1431 387 1295 c 0,51,52
 411 1253 411 1253 442 1224.5 c 128,-1,53
 473 1196 473 1196 521 1189 c 0,54,55
 541 1185 541 1185 557 1174 c 1,0,-1
836 -45 m 1,56,-1
 836 -45 l 1,57,58
 871 -54 871 -54 871 -91 c 1,59,60
 867 -102 867 -102 865 -115 c 0,61,62
 862 -135 862 -135 853.5 -150.5 c 128,-1,63
 845 -166 845 -166 823 -172 c 0,64,65
 768 -188 768 -188 728 -153 c 0,66,67
 713 -137 713 -137 705 -119.5 c 128,-1,68
 697 -102 697 -102 704 -82 c 0,69,70
 717 -43 717 -43 761 -40 c 0,71,72
 799 -38 799 -38 836 -45 c 1,56,-1
EndSplineSet
EndChar

StartChar: at
Encoding: 64 64 35
Width: 1228
GlyphClass: 2
Flags: W
LayerCount: 2
Fore
SplineSet
1192 378 m 1,0,-1
 1192 378 l 1,1,2
 1210 373 1210 373 1219 362 c 128,-1,3
 1228 351 1228 351 1223 336 c 0,4,5
 1179 171 1179 171 1088 44.5 c 128,-1,6
 997 -82 997 -82 840 -157 c 0,7,8
 625 -256 625 -256 416 -133 c 0,9,10
 273 -47 273 -47 172 85 c 0,11,12
 0 314 0 314 62 593 c 0,13,14
 125 866 125 866 339 1042 c 0,15,16
 469 1148 469 1148 615 1181 c 128,-1,17
 761 1214 761 1214 920 1165 c 0,18,19
 1076 1117 1076 1117 1145 1000.5 c 128,-1,20
 1214 884 1214 884 1188 721 c 0,21,22
 1166 593 1166 593 1102 481 c 0,23,24
 1036 358 1036 358 909 391 c 0,25,26
 871 402 871 402 846 393 c 128,-1,27
 821 384 821 384 796 358 c 0,28,29
 752 309 752 309 689 290 c 0,30,31
 603 263 603 263 542.5 299.5 c 128,-1,32
 482 336 482 336 471 426 c 0,33,34
 453 613 453 613 583 747 c 0,35,36
 647 809 647 809 732.5 808 c 128,-1,37
 818 807 818 807 878 745 c 0,38,39
 891 732 891 732 896.5 716.5 c 128,-1,40
 902 701 902 701 893 681 c 0,41,42
 882 666 882 666 866.5 660.5 c 128,-1,43
 851 655 851 655 832 657 c 0,44,45
 810 657 810 657 793.5 669 c 128,-1,46
 777 681 777 681 761 697 c 0,47,48
 759 701 759 701 755 703 c 0,49,50
 728 727 728 727 704 701 c 0,51,52
 649 637 649 637 626 564.5 c 128,-1,53
 603 492 603 492 618 408 c 0,54,55
 620 393 620 393 634.5 388.5 c 128,-1,56
 649 384 649 384 662 393 c 0,57,58
 717 437 717 437 755 499 c 0,59,60
 766 514 766 514 774 532 c 0,61,62
 785 549 785 549 796 569 c 0,63,64
 867 659 867 659 955 582 c 0,65,66
 957 580 957 580 959 573 c 0,67,68
 964 567 964 567 966 565 c 0,69,70
 972 560 972 560 979 558 c 0,71,72
 983 556 983 556 986 556 c 0,73,74
 1045 659 1045 659 1049 778 c 0,75,76
 1056 910 1056 910 984.5 997 c 128,-1,77
 913 1084 913 1084 783 1106 c 0,78,79
 733 1115 733 1115 684.5 1102.5 c 128,-1,80
 636 1090 636 1090 592 1068 c 0,81,82
 469 1011 469 1011 386.5 915.5 c 128,-1,83
 304 820 304 820 253 699 c 0,84,85
 200 576 200 576 198 455 c 128,-1,86
 196 334 196 334 257 213 c 0,87,88
 308 116 308 116 383 44.5 c 128,-1,89
 458 -27 458 -27 550 -82 c 0,90,91
 607 -115 607 -115 662 -110.5 c 128,-1,92
 717 -106 717 -106 770 -73 c 0,93,94
 937 32 937 32 1032 206 c 0,95,96
 1052 243 1052 243 1067 285 c 0,97,98
 1078 309 1078 309 1089 334 c 0,99,100
 1118 402 1118 402 1192 378 c 1,0,-1
EndSplineSet
EndChar

StartChar: A
Encoding: 65 65 36
Width: 4100
GlyphClass: 2
Flags: W
LayerCount: 2
Fore
SplineSet
4059 -656 m 1,0,-1
 4059 -656 l 1,1,2
 4068 -674 4068 -674 4070 -694 c 0,3,4
 4074 -722 4074 -722 4046 -731 c 0,5,6
 3960 -762 3960 -762 3916 -685 c 0,7,8
 3885 -630 3885 -630 3859 -571 c 0,9,10
 3799 -430 3799 -430 3752 -283.5 c 128,-1,11
 3705 -137 3705 -137 3665 10 c 0,12,13
 3630 140 3630 140 3597 270 c 0,14,15
 3575 362 3575 362 3551 455 c 0,16,17
 3540 501 3540 501 3524.5 512 c 128,-1,18
 3509 523 3509 523 3463 521 c 0,19,20
 3313 512 3313 512 3164 503 c 0,21,22
 3007 494 3007 494 2851 488 c 0,23,24
 2812 485 2812 485 2793 465.5 c 128,-1,25
 2774 446 2774 446 2765 411 c 0,26,27
 2669 48 2669 48 2539 -307 c 0,28,29
 2451 -540 2451 -540 2345.5 -765.5 c 128,-1,30
 2240 -991 2240 -991 2103 -1200 c 0,31,32
 1980 -1387 1980 -1387 1811 -1534 c 0,33,34
 1643 -1682 1643 -1682 1430 -1732 c 0,35,36
 1137 -1800 1137 -1800 873 -1660 c 0,37,38
 715 -1572 715 -1572 594 -1440 c 0,39,40
 189 -1000 189 -1000 29 -423 c 0,41,42
 0 -318 0 -318 0 -208 c 2,43,-1
 0 -203 l 2,44,45
 0 -181 0 -181 2 -157 c 0,46,47
 18 98 18 98 242 224 c 0,48,49
 328 270 328 270 419 297.5 c 128,-1,50
 510 325 510 325 605 338 c 0,51,52
 889 382 889 382 1175 415 c 0,53,54
 1630 466 1630 466 2088 510 c 0,55,56
 2248 525 2248 525 2407 536 c 0,57,58
 2484 540 2484 540 2559 547 c 0,59,60
 2611 549 2611 549 2629 561 c 128,-1,61
 2647 573 2647 573 2658 622 c 0,62,63
 2686 725 2686 725 2713 831 c 0,64,65
 2897 1640 2897 1640 3005 2463 c 1,66,67
 3078 2976 3078 2976 3120 3491 c 0,68,69
 3131 3653 3131 3653 3135 3816 c 0,70,71
 3137 3889 3137 3889 3142 3961 c 0,72,73
 3142 3972 3142 3972 3142 3983 c 0,74,75
 3142 4005 3142 4005 3144 4025 c 0,76,77
 3146 4067 3146 4067 3164.5 4083.5 c 128,-1,78
 3183 4100 3183 4100 3225 4100 c 0,79,80
 3267 4102 3267 4102 3285.5 4085.5 c 128,-1,81
 3304 4069 3304 4069 3304 4025 c 0,82,83
 3304 3878 3304 3878 3304 3722 c 0,84,85
 3304 3656 3304 3656 3304 3587 c 0,86,87
 3313 3167 3313 3167 3351 2725 c 0,88,89
 3392 2230 3392 2230 3461 1737 c 0,90,91
 3531 1225 3531 1225 3645 721 c 0,92,93
 3650 697 3650 697 3656 675 c 0,94,95
 3661 661 3661 661 3665 646 c 0,96,97
 3678 604 3678 604 3722 609 c 1,98,99
 3817 611 3817 611 3914 613 c 0,100,101
 3960 617 3960 617 4000 595 c 0,102,103
 4015 584 4015 584 4015 562 c 0,104,105
 4013 551 4013 551 4005 545.5 c 128,-1,106
 3997 540 3997 540 3989 540 c 0,107,108
 3942 538 3942 538 3894 538 c 0,109,110
 3872 536 3872 536 3850 536 c 0,111,112
 3837 536 3837 536 3826 536 c 0,113,114
 3786 536 3786 536 3749 534 c 0,115,116
 3692 529 3692 529 3705 472 c 0,117,118
 3714 435 3714 435 3725 397 c 0,119,120
 3758 248 3758 248 3799 103 c 0,121,122
 3852 -91 3852 -91 3913.5 -282.5 c 128,-1,123
 3975 -474 3975 -474 4059 -656 c 1,0,-1
2596 395 m 1,124,-1
 2596 395 l 1,125,126
 2609 439 2609 439 2599 453.5 c 128,-1,127
 2589 468 2589 468 2545 463 c 0,128,129
 2361 450 2361 450 2178 430 c 0,130,131
 2143 428 2143 428 2108 424 c 0,132,133
 1698 384 1698 384 1289 338 c 0,134,135
 986 303 986 303 682 259 c 0,136,137
 543 241 543 241 411 186 c 0,138,139
 152 78 152 78 156 -203 c 0,140,141
 158 -298 158 -298 178 -392 c 0,142,143
 207 -511 207 -511 252 -623.5 c 128,-1,144
 297 -736 297 -736 352 -843 c 0,145,146
 497 -1145 497 -1145 724 -1389 c 0,147,148
 843 -1519 843 -1519 994 -1602 c 0,149,150
 1252 -1737 1252 -1737 1507 -1598 c 0,151,152
 1661 -1517 1661 -1517 1778 -1387 c 0,153,154
 1954 -1191 1954 -1191 2077 -960 c 0,155,156
 2334 -474 2334 -474 2495 54 c 0,157,158
 2548 224 2548 224 2596 395 c 1,124,-1
3498 609 m 1,159,-1
 3498 609 l 1,160,161
 3500 611 3500 611 3500 613 c 0,162,163
 3502 615 3502 615 3503.5 617.5 c 128,-1,164
 3505 620 3505 620 3502 620 c 0,165,166
 3307 1548 3307 1548 3216 2494 c 0,167,168
 3212 2525 3212 2525 3205 2556 c 0,169,170
 3203 2562 3203 2562 3197 2571 c 0,171,172
 3192 2575 3192 2575 3188 2584 c 1,173,174
 3177 2505 3177 2505 3164 2426 c 0,175,176
 3139 2250 3139 2250 3111 2076 c 0,177,178
 3073 1823 3073 1823 3027 1572 c 0,179,180
 3001 1431 3001 1431 2972 1291 c 0,181,182
 2950 1183 2950 1183 2930 1073 c 0,183,184
 2908 965 2908 965 2880 859 c 0,185,186
 2845 721 2845 721 2820 580 c 1,187,188
 2878 573 2878 573 3012 576.5 c 128,-1,189
 3146 580 3146 580 3285.5 589 c 128,-1,190
 3425 598 3425 598 3498 609 c 1,159,-1
EndSplineSet
Substitution2: "'salt' Stylistic Alternatives in Latin lookup 0 subtable" A.salt
EndChar

StartChar: B
Encoding: 66 66 37
Width: 3198
GlyphClass: 2
Flags: W
LayerCount: 2
Fore
SplineSet
3062 598 m 1,0,-1
 3062 598 l 1,1,2
 3084 600 3084 600 3082 564.5 c 128,-1,3
 3080 529 3080 529 3054 527 c 0,4,5
 3029 523 3029 523 3008.5 503 c 128,-1,6
 2988 483 2988 483 2988 459 c 0,7,8
 2994 246 2994 246 2933.5 49 c 128,-1,9
 2873 -148 2873 -148 2772 -331 c 1,10,11
 2572 -711 2572 -711 2286 -1007 c 128,-1,12
 2000 -1303 2000 -1303 1617 -1506 c 0,13,14
 1406 -1616 1406 -1616 1182.5 -1671 c 128,-1,15
 959 -1726 959 -1726 719 -1712 c 0,16,17
 519 -1701 519 -1701 343 -1605 c 1,18,19
 134 -1481 134 -1481 67 -1282 c 128,-1,20
 0 -1083 0 -1083 92 -859 c 1,21,22
 189 -641 189 -641 397 -453 c 128,-1,23
 605 -265 605 -265 881 -107.5 c 128,-1,24
 1157 50 1157 50 1456.5 171 c 128,-1,25
 1756 292 1756 292 2034 377.5 c 128,-1,26
 2312 463 2312 463 2528 507 c 0,27,28
 2587 521 2587 521 2644 532 c 0,29,30
 2706 543 2706 543 2765 556 c 0,31,32
 2816 565 2816 565 2801 611 c 0,33,34
 2750 822 2750 822 2598 974 c 0,35,36
 2488 1082 2488 1082 2359.5 1156.5 c 128,-1,37
 2231 1231 2231 1231 2088 1282 c 0,38,39
 1659 1434 1659 1434 1201 1453 c 0,40,41
 1170 1456 1170 1456 1137 1456 c 0,42,43
 1100 1453 1100 1453 1098 1416 c 0,44,45
 1093 1372 1093 1372 1093 1328 c 0,46,47
 1091 983 1091 983 1091 637 c 0,48,49
 1089 485 1089 485 1089 331 c 0,50,51
 1089 320 1089 320 1089 312 c 0,52,53
 1089 290 1089 290 1089 268 c 0,54,55
 1078 169 1078 169 986 199 c 0,56,57
 950 210 950 210 948 246 c 0,58,59
 944 296 944 296 946 347 c 0,60,61
 944 659 944 659 944 969 c 0,62,63
 944 1126 944 1126 944 1280 c 0,64,65
 944 1293 944 1293 944 1306 c 0,66,67
 944 1343 944 1343 942 1383 c 0,68,69
 942 1425 942 1425 929.5 1438 c 128,-1,70
 917 1451 917 1451 878 1453 c 0,71,72
 860 1453 860 1453 845 1453 c 0,73,74
 803 1456 803 1456 763 1460 c 0,75,76
 728 1464 728 1464 715 1497 c 1,77,78
 704 1539 704 1539 737 1566 c 0,79,80
 781 1601 781 1601 829 1634 c 0,81,82
 849 1647 849 1647 865 1656 c 0,83,84
 902 1680 902 1680 918.5 1695.5 c 128,-1,85
 935 1711 935 1711 938.5 1730.5 c 128,-1,86
 942 1750 942 1750 942 1792 c 0,87,88
 939 1816 939 1816 939 1849 c 0,89,90
 942 2098 942 2098 942 2349 c 0,91,92
 942 2487 942 2487 942 2628 c 0,93,94
 942 2630 942 2630 942 2635 c 0,95,96
 942 2683 942 2683 946 2729 c 0,97,98
 950 2789 950 2789 1016 2787 c 0,99,100
 1080 2789 1080 2789 1089 2732 c 1,101,102
 1093 2674 1093 2674 1093 2615 c 0,103,104
 1093 2465 1093 2465 1093 2316 c 0,105,106
 1093 2133 1093 2133 1096 1953 c 0,107,108
 1093 1940 1093 1940 1093 1929 c 0,109,110
 1089 1878 1089 1878 1109 1812 c 1,111,112
 1254 1896 1254 1896 1459.5 2024.5 c 128,-1,113
 1665 2153 1665 2153 1878.5 2300.5 c 128,-1,114
 2092 2448 2092 2448 2257 2595.5 c 128,-1,115
 2422 2743 2422 2743 2486 2868 c 1,116,117
 2554 3011 2554 3011 2424 3103 c 0,118,119
 2264 3211 2264 3211 2010 3221 c 128,-1,120
 1756 3231 1756 3231 1474 3167 c 128,-1,121
 1192 3103 1192 3103 950 2989 c 128,-1,122
 708 2875 708 2875 568 2732 c 0,123,124
 524 2685 524 2685 488.5 2620.5 c 128,-1,125
 453 2556 453 2556 433 2492 c 0,126,127
 418 2452 418 2452 374 2445.5 c 128,-1,128
 330 2439 330 2439 299 2470 c 1,129,130
 284 2492 284 2492 290 2518 c 0,131,132
 310 2593 310 2593 359 2655 c 0,133,134
 515 2855 515 2855 802 3004.5 c 128,-1,135
 1089 3154 1089 3154 1424.5 3231 c 128,-1,136
 1760 3308 1760 3308 2061.5 3295 c 128,-1,137
 2363 3282 2363 3282 2548 3158 c 0,138,139
 2737 3029 2737 3029 2629 2826 c 0,140,141
 2574 2725 2574 2725 2467.5 2620.5 c 128,-1,142
 2361 2516 2361 2516 2241 2422.5 c 128,-1,143
 2121 2329 2121 2329 2028 2261 c 0,144,145
 1859 2138 1859 2138 1681 2024.5 c 128,-1,146
 1503 1911 1503 1911 1322 1803 c 0,147,148
 1318 1801 1318 1801 1313 1797 c 0,149,150
 1223 1746 1223 1746 1137 1691 c 1,151,152
 1076 1645 1076 1645 1100 1568 c 0,153,154
 1102 1561 1102 1561 1110 1553.5 c 128,-1,155
 1118 1546 1118 1546 1126 1546 c 0,156,157
 1162 1539 1162 1539 1197 1539 c 0,158,159
 1199 1539 1199 1539 1203 1539 c 0,160,161
 1679 1526 1679 1526 2130 1376 c 0,162,163
 2380 1297 2380 1297 2596 1145 c 0,164,165
 2726 1053 2726 1053 2817 934 c 128,-1,166
 2908 815 2908 815 2952 661 c 0,167,168
 2966 611 2966 611 2984.5 600 c 128,-1,169
 3003 589 3003 589 3062 598 c 1,0,-1
2825 347 m 1,170,-1
 2825 347 l 1,171,172
 2834 437 2834 437 2812 457 c 128,-1,173
 2790 477 2790 477 2699 455 c 0,174,175
 2484 411 2484 411 2213.5 331.5 c 128,-1,176
 1943 252 1943 252 1657 137.5 c 128,-1,177
 1371 23 1371 23 1107 -125.5 c 128,-1,178
 843 -274 843 -274 641.5 -455.5 c 128,-1,179
 440 -637 440 -637 339 -854 c 0,180,181
 266 -1019 266 -1019 272.5 -1165.5 c 128,-1,182
 279 -1312 279 -1312 347.5 -1418.5 c 128,-1,183
 416 -1525 416 -1525 528 -1569 c 0,184,185
 671 -1624 671 -1624 825 -1629 c 0,186,187
 836 -1629 836 -1629 845 -1627 c 0,188,189
 867 -1624 867 -1624 889 -1624 c 0,190,191
 1179 -1596 1179 -1596 1437 -1466 c 0,192,193
 1907 -1233 1907 -1233 2230.5 -865.5 c 128,-1,194
 2554 -498 2554 -498 2743 -12 c 0,195,196
 2809 162 2809 162 2825 347 c 1,170,-1
EndSplineSet
Substitution2: "'salt' Stylistic Alternatives in Latin lookup 0 subtable" B.salt
EndChar

StartChar: C
Encoding: 67 67 38
Width: 2691
GlyphClass: 2
Flags: W
LayerCount: 2
Fore
SplineSet
2810 631 m 1,0,-1
 2810 631 l 1,1,2
 2823 626 2823 626 2823 609.5 c 128,-1,3
 2823 593 2823 593 2815 573.5 c 128,-1,4
 2807 554 2807 554 2803 540 c 0,5,6
 2664 215 2664 215 2474 -83 c 128,-1,7
 2284 -381 2284 -381 2018 -608 c 0,8,9
 1877 -725 1877 -725 1720.5 -819.5 c 128,-1,10
 1564 -914 1564 -914 1384 -978 c 0,11,12
 1270 -1019 1270 -1019 1176.5 -1035.5 c 128,-1,13
 1083 -1052 1083 -1052 959 -1050 c 0,14,15
 889 -1052 889 -1052 818.5 -1046.5 c 128,-1,16
 748 -1041 748 -1041 676 -1022 c 0,17,18
 343 -927 343 -927 181 -617 c 0,19,20
 126 -509 126 -509 95 -398 c 128,-1,21
 64 -287 64 -287 49 -175 c 0,22,23
 11 125 11 125 46 415 c 0,24,25
 93 818 93 818 209.5 1189.5 c 128,-1,26
 326 1561 326 1561 504 1904 c 0,27,28
 698 2285 698 2285 981 2602 c 0,29,30
 1177 2822 1177 2822 1428 2978 c 0,31,32
 1615 3097 1615 3097 1844 3134 c 0,33,34
 1945 3152 1945 3152 2048 3125 c 0,35,36
 2209 3086 2209 3086 2253 2927 c 1,37,38
 2284 2798 2284 2798 2253 2607.5 c 128,-1,39
 2222 2417 2222 2417 2155 2210 c 128,-1,40
 2088 2003 2088 2003 2006.5 1826 c 128,-1,41
 1925 1649 1925 1649 1857 1544 c 0,42,43
 1837 1517 1837 1517 1808.5 1511.5 c 128,-1,44
 1780 1506 1780 1506 1745 1515 c 0,45,46
 1727 1519 1727 1519 1716 1534.5 c 128,-1,47
 1705 1550 1705 1550 1712 1563 c 0,48,49
 1718 1585 1718 1585 1729 1605 c 0,50,51
 1734 1616 1734 1616 1740 1629 c 0,52,53
 1765 1689 1765 1689 1798 1761 c 0,54,55
 1870 1922 1870 1922 1948 2113.5 c 128,-1,56
 2026 2305 2026 2305 2074.5 2495 c 128,-1,57
 2123 2685 2123 2685 2110 2839 c 0,58,59
 2086 3099 2086 3099 1846 3033 c 0,60,61
 1740 3004 1740 3004 1649 2956 c 128,-1,62
 1558 2908 1558 2908 1474 2848 c 0,63,64
 1307 2727 1307 2727 1169.5 2579.5 c 128,-1,65
 1032 2432 1032 2432 918 2265 c 0,66,67
 354 1445 354 1445 225 406 c 0,68,69
 187 105 187 105 227 -208 c 0,70,71
 249 -388 249 -388 332 -562 c 0,72,73
 416 -733 416 -733 531.5 -823.5 c 128,-1,74
 647 -914 647 -914 771.5 -942.5 c 128,-1,75
 896 -971 896 -971 1006 -958 c 0,76,77
 1199 -936 1199 -936 1369 -857 c 0,78,79
 1707 -703 1707 -703 1921.5 -529 c 128,-1,80
 2136 -355 2136 -355 2281.5 -163.5 c 128,-1,81
 2427 28 2427 28 2554 237 c 0,82,83
 2605 320 2605 320 2642 397 c 0,84,85
 2686 488 2686 488 2757 600 c 0,86,87
 2781 635 2781 635 2810 631 c 1,0,-1
EndSplineSet
Substitution2: "'salt' Stylistic Alternatives in Latin lookup 0 subtable" C.salt
EndChar

StartChar: D
Encoding: 68 68 39
Width: 3903
GlyphClass: 2
Flags: W
LayerCount: 2
Fore
SplineSet
3573 562 m 1,0,-1
 3573 562 l 1,1,2
 3584 565 3584 565 3634 576 c 0,3,4
 3709 589 3709 589 3814.5 607.5 c 128,-1,5
 3920 626 3920 626 4000.5 632.5 c 128,-1,6
 4081 639 4081 639 4081 620 c 1,7,8
 4070 604 4070 604 3981 577.5 c 128,-1,9
 3892 551 3892 551 3771 525 c 128,-1,10
 3650 499 3650 499 3547.5 478 c 128,-1,11
 3445 457 3445 457 3410 450 c 0,12,13
 3337 437 3337 437 3300 375 c 1,14,15
 2983 -69 2983 -69 2567 -421 c 1,16,17
 2262 -685 2262 -685 1910 -883 c 0,18,19
 1773 -962 1773 -962 1630 -1021.5 c 128,-1,20
 1487 -1081 1487 -1081 1333 -1116 c 0,21,22
 1188 -1147 1188 -1147 1041 -1134 c 0,23,24
 867 -1116 867 -1116 797.5 -1005 c 128,-1,25
 728 -894 728 -894 783 -727 c 1,26,27
 823 -623 823 -623 895 -542 c 0,28,29
 1008 -410 1008 -410 1148 -309 c 0,30,31
 1340 -170 1340 -170 1549 -60 c 0,32,33
 1566 -51 1566 -51 1584 -43 c 0,34,35
 1606 -32 1606 -32 1628 -18 c 0,36,37
 1659 -3 1659 -3 1659 32 c 0,38,39
 1661 54 1661 54 1661 78 c 0,40,41
 1661 111 1661 111 1661 147 c 0,42,43
 1661 571 1661 571 1661 998 c 0,44,45
 1661 1574 1661 1574 1661 2153 c 0,46,47
 1661 2157 1661 2157 1661 2164 c 0,48,49
 1661 2215 1661 2215 1663 2267 c 1,50,51
 1672 2320 1672 2320 1738 2322 c 0,52,53
 1802 2320 1802 2320 1808 2265 c 0,54,55
 1813 2219 1813 2219 1811 2171 c 0,56,57
 1811 2160 1811 2160 1811 2151 c 0,58,59
 1813 1691 1813 1691 1811 1231 c 0,60,61
 1811 727 1811 727 1813 221 c 0,62,63
 1813 202 1813 202 1811 184 c 0,64,65
 1806 98 1806 98 1826 88 c 128,-1,66
 1846 78 1846 78 1938 120 c 0,67,68
 1943 122 1943 122 1949 125 c 0,69,70
 2497 356 2497 356 3080 472 c 1,71,72
 3212 494 3212 494 3278 611 c 0,73,74
 3434 881 3434 881 3542 1189 c 128,-1,75
 3650 1497 3650 1497 3689.5 1801 c 128,-1,76
 3729 2105 3729 2105 3680.5 2364.5 c 128,-1,77
 3632 2624 3632 2624 3477 2797.5 c 128,-1,78
 3322 2971 3322 2971 3040.5 3017.5 c 128,-1,79
 2759 3064 2759 3064 2332 2941 c 1,80,81
 2116 2883 2116 2883 1853.5 2766.5 c 128,-1,82
 1591 2650 1591 2650 1320 2488.5 c 128,-1,83
 1049 2327 1049 2327 808.5 2136.5 c 128,-1,84
 568 1946 568 1946 395 1741.5 c 128,-1,85
 222 1537 222 1537 154 1332 c 0,86,87
 134 1269 134 1269 68 1271 c 0,88,89
 33 1271 33 1271 16.5 1292 c 128,-1,90
 0 1313 0 1313 7 1346 c 0,91,92
 31 1425 31 1425 75 1495 c 0,93,94
 180 1665 180 1665 317 1810 c 0,95,96
 667 2190 667 2190 1166 2507 c 128,-1,97
 1665 2824 1665 2824 2158 2989 c 1,98,99
 2614 3134 2614 3134 2942.5 3116.5 c 128,-1,100
 3271 3099 3271 3099 3481.5 2950.5 c 128,-1,101
 3692 2802 3692 2802 3789.5 2554.5 c 128,-1,102
 3887 2307 3887 2307 3880.5 1993.5 c 128,-1,103
 3874 1680 3874 1680 3769.5 1333.5 c 128,-1,104
 3665 987 3665 987 3469 639 c 0,105,106
 3428 567 3428 567 3444.5 555 c 128,-1,107
 3461 543 3461 543 3518 556 c 0,108,109
 3542 560 3542 560 3573 562 c 1,0,-1
3038 265 m 1,110,-1
 3038 265 l 1,111,112
 3045 274 3045 274 3051 281 c 0,113,114
 3084 314 3084 314 3095 362 c 1,115,116
 3078 375 3078 375 3060.5 374 c 128,-1,117
 3043 373 3043 373 3025 369 c 0,118,119
 3018 367 3018 367 3012 364 c 0,120,121
 2737 294 2737 294 2467.5 207 c 128,-1,122
 2198 120 2198 120 1936 4 c 0,123,124
 1918 -5 1918 -5 1903 -12 c 0,125,126
 1859 -29 1859 -29 1839 -42.5 c 128,-1,127
 1819 -56 1819 -56 1815 -77 c 128,-1,128
 1811 -98 1811 -98 1813 -139 c 0,129,130
 1813 -161 1813 -161 1813 -192 c 0,131,132
 1811 -238 1811 -238 1813 -282 c 0,133,134
 1813 -326 1813 -326 1811 -373 c 0,135,136
 1811 -417 1811 -417 1806 -461 c 0,137,138
 1795 -520 1795 -520 1734 -518 c 0,139,140
 1668 -513 1668 -513 1665 -443 c 0,141,142
 1661 -366 1661 -366 1661 -291 c 0,143,144
 1661 -238 1661 -238 1661 -188 c 0,145,146
 1657 -135 1657 -135 1610 -157 c 0,147,148
 1463 -236 1463 -236 1327.5 -330.5 c 128,-1,149
 1192 -425 1192 -425 1076 -544 c 0,150,151
 1003 -619 1003 -619 957 -711 c 0,152,153
 920 -786 920 -786 917 -870 c 1,154,155
 920 -1011 920 -1011 1054 -1046 c 0,156,157
 1137 -1066 1137 -1066 1219 -1048 c 0,158,159
 1377 -1017 1377 -1017 1524.5 -956.5 c 128,-1,160
 1672 -896 1672 -896 1811 -815 c 0,161,162
 2171 -608 2171 -608 2476 -335 c 128,-1,163
 2781 -62 2781 -62 3038 265 c 1,110,-1
EndSplineSet
Substitution2: "'salt' Stylistic Alternatives in Latin lookup 0 subtable" D.salt
EndChar

StartChar: E
Encoding: 69 69 40
Width: 2890
GlyphClass: 2
Flags: W
LayerCount: 2
Fore
SplineSet
2958 624 m 1,0,-1
 2958 624 l 1,1,2
 2969 631 2969 631 2988.5 631 c 128,-1,3
 3008 631 3008 631 3022.5 621 c 128,-1,4
 3037 611 3037 611 3028 591 c 0,5,6
 2911 367 2911 367 2696.5 105 c 128,-1,7
 2482 -157 2482 -157 2275.5 -370.5 c 128,-1,8
 2069 -584 2069 -584 1974 -663 c 0,9,10
 1750 -857 1750 -857 1470 -1002 c 0,11,12
 1325 -1079 1325 -1079 1160 -1129 c 0,13,14
 969 -1187 969 -1187 751 -1169 c 0,15,16
 469 -1147 469 -1147 293 -953 c 0,17,18
 175 -817 175 -817 142 -661 c 0,19,20
 73 -355 73 -355 168 -76 c 1,21,22
 243 162 243 162 378 371 c 128,-1,23
 513 580 513 580 694 767 c 0,24,25
 956 1035 956 1035 1290 1251 c 0,26,27
 1299 1258 1299 1258 1308 1262 c 0,28,29
 1325 1271 1325 1271 1339.5 1283 c 128,-1,30
 1354 1295 1354 1295 1358 1319 c 1,31,32
 1176 1376 1176 1376 1083.5 1451 c 128,-1,33
 991 1526 991 1526 960 1615 c 128,-1,34
 929 1704 929 1704 929 1801 c 0,35,36
 931 1940 931 1940 986 2067 c 0,37,38
 1070 2276 1070 2276 1224 2454 c 1,39,40
 1413 2683 1413 2683 1655 2879 c 1,41,42
 1767 2976 1767 2976 1915 3040 c 0,43,44
 2027 3086 2027 3086 2161 3070 c 0,45,46
 2251 3062 2251 3062 2304 3015.5 c 128,-1,47
 2357 2969 2357 2969 2359 2901 c 0,48,49
 2359 2817 2359 2817 2331 2743 c 0,50,51
 2287 2633 2287 2633 2227 2527 c 0,52,53
 2172 2428 2172 2428 2115 2331 c 0,54,55
 2089 2287 2089 2287 2064 2243 c 0,56,57
 2045 2208 2045 2208 2018.5 2197 c 128,-1,58
 1992 2186 1992 2186 1941 2193 c 0,59,60
 1908 2199 1908 2199 1888.5 2216.5 c 128,-1,61
 1869 2234 1869 2234 1875 2256 c 0,62,63
 1888 2305 1888 2305 1913 2349 c 0,64,65
 1957 2428 1957 2428 2003 2505 c 0,66,67
 2027 2547 2027 2547 2051 2589 c 0,68,69
 2111 2692 2111 2692 2141 2806 c 0,70,71
 2157 2861 2157 2861 2148 2919 c 0,72,73
 2141 2952 2141 2952 2115 2965 c 128,-1,74
 2089 2978 2089 2978 2056 2963 c 0,75,76
 1983 2930 1983 2930 1921 2886 c 0,77,78
 1530 2597 1530 2597 1281 2217 c 0,79,80
 1154 2025 1154 2025 1138 1797 c 0,81,82
 1127 1676 1127 1676 1204 1557 c 1,83,84
 1270 1464 1270 1464 1393 1420 c 0,85,86
 1506 1376 1506 1376 1611 1420 c 0,87,88
 1723 1469 1723 1469 1851 1500 c 1,89,90
 1970 1533 1970 1533 2104 1513 c 0,91,92
 2150 1506 2150 1506 2172 1473 c 1,93,94
 2190 1438 2190 1438 2157 1416 c 0,95,96
 2102 1383 2102 1383 2040 1361 c 0,97,98
 1906 1313 1906 1313 1752 1306 c 0,99,100
 1662 1304 1662 1304 1596 1262 c 0,101,102
 1184 1022 1184 1022 886 712 c 128,-1,103
 588 402 588 402 421 10 c 0,104,105
 353 -150 353 -150 335.5 -319.5 c 128,-1,106
 318 -489 318 -489 362 -667 c 1,107,108
 392 -813 392 -813 507 -936 c 0,109,110
 672 -1112 672 -1112 918 -1070 c 0,111,112
 1066 -1046 1066 -1046 1191 -986 c 0,113,114
 1420 -881 1420 -881 1651 -716 c 128,-1,115
 1882 -551 1882 -551 2082 -364 c 128,-1,116
 2282 -177 2282 -177 2425 -5 c 0,117,118
 2511 96 2511 96 2641 248 c 0,119,120
 2830 470 2830 470 2958 624 c 1,0,-1
EndSplineSet
Substitution2: "'salt' Stylistic Alternatives in Latin lookup 0 subtable" E.salt
EndChar

StartChar: F
Encoding: 70 70 41
Width: 4371
GlyphClass: 2
Flags: W
LayerCount: 2
Fore
SplineSet
4332 771 m 1,0,-1
 4332 771 l 1,1,2
 4367 765 4367 765 4371 730 c 0,3,4
 4371 708 4371 708 4358 700 c 128,-1,5
 4345 692 4345 692 4330 692 c 0,6,7
 4200 683 4200 683 4070 677 c 0,8,9
 4052 677 4052 677 4035 675 c 0,10,11
 4006 675 4006 675 3978 672 c 0,12,13
 3936 672 3936 672 3896 668 c 0,14,15
 3865 668 3865 668 3854 657 c 128,-1,16
 3843 646 3843 646 3841 615 c 0,17,18
 3828 430 3828 430 3815 246 c 0,19,20
 3795 -106 3795 -106 3747 -454 c 0,21,22
 3738 -509 3738 -509 3731 -564 c 0,23,24
 3725 -630 3725 -630 3716 -694 c 0,25,26
 3705 -764 3705 -764 3637 -758 c 0,27,28
 3582 -753 3582 -753 3579 -703 c 1,29,30
 3584 -568 3584 -568 3593 -434 c 0,31,32
 3604 -280 3604 -280 3615 -126 c 0,33,34
 3637 171 3637 171 3654 470 c 0,35,36
 3656 507 3656 507 3659 536 c 0,37,38
 3665 600 3665 600 3659.5 627.5 c 128,-1,39
 3654 655 3654 655 3621 659.5 c 128,-1,40
 3588 664 3588 664 3513 657 c 0,41,42
 3489 655 3489 655 3463 655 c 0,43,44
 3137 637 3137 637 2812 646 c 0,45,46
 2713 650 2713 650 2721 692 c 0,47,48
 2730 719 2730 719 2750 724.5 c 128,-1,49
 2770 730 2770 730 2792 727 c 0,50,51
 2801 727 2801 727 2807 727 c 0,52,53
 2977 736 2977 736 3146 741 c 0,54,55
 3168 743 3168 743 3190 743 c 0,56,57
 3278 745 3278 745 3366 747 c 0,58,59
 3483 749 3483 749 3599 754 c 0,60,61
 3639 754 3639 754 3653 767 c 128,-1,62
 3667 780 3667 780 3670 822 c 0,63,64
 3674 859 3674 859 3676 897 c 0,65,66
 3683 1033 3683 1033 3689 1167 c 0,67,68
 3703 1409 3703 1409 3709.5 1651 c 128,-1,69
 3716 1893 3716 1893 3707 2135 c 0,70,71
 3698 2349 3698 2349 3677 2561 c 128,-1,72
 3656 2773 3656 2773 3612 2985 c 0,73,74
 3590 3084 3590 3084 3555 3180 c 0,75,76
 3505 3310 3505 3310 3407 3376 c 128,-1,77
 3309 3442 3309 3442 3172 3449 c 0,78,79
 3082 3455 3082 3455 2993 3444 c 128,-1,80
 2904 3433 2904 3433 2818 3416 c 0,81,82
 2435 3339 2435 3339 2076.5 3201.5 c 128,-1,83
 1718 3064 1718 3064 1377 2877 c 0,84,85
 994 2670 994 2670 662 2386 c 0,86,87
 491 2241 491 2241 356 2061 c 0,88,89
 279 1959 279 1959 238 1836 c 0,90,91
 176 1645 176 1645 350 1544 c 0,92,93
 519 1447 519 1447 713 1436 c 0,94,95
 801 1431 801 1431 889 1431 c 0,96,97
 935 1431 935 1431 981 1431 c 0,98,99
 1025 1431 1025 1431 1069 1425 c 0,100,101
 1078 1423 1078 1423 1084.5 1415 c 128,-1,102
 1091 1407 1091 1407 1093 1398 c 0,103,104
 1093 1390 1093 1390 1087.5 1381 c 128,-1,105
 1082 1372 1082 1372 1076 1368 c 0,106,107
 1047 1354 1047 1354 1016 1352 c 0,108,109
 999 1352 999 1352 981 1352 c 0,110,111
 856 1348 856 1348 730.5 1352.5 c 128,-1,112
 605 1357 605 1357 482 1383 c 0,113,114
 337 1414 337 1414 211 1493 c 0,115,116
 0 1629 0 1629 79 1867 c 0,117,118
 119 1990 119 1990 196 2094 c 0,119,120
 361 2316 361 2316 576 2487 c 1,121,122
 834 2699 834 2699 1119 2868 c 128,-1,123
 1404 3037 1404 3037 1709 3169 c 1,124,125
 2178 3381 2178 3381 2677 3488 c 0,126,127
 2820 3521 2820 3521 2966.5 3535.5 c 128,-1,128
 3113 3550 3113 3550 3260 3535 c 0,129,130
 3445 3517 3445 3517 3567 3422.5 c 128,-1,131
 3689 3328 3689 3328 3749 3150 c 0,132,133
 3784 3037 3784 3037 3805 2920.5 c 128,-1,134
 3826 2804 3826 2804 3839 2688 c 0,135,136
 3876 2399 3876 2399 3885 2107.5 c 128,-1,137
 3894 1816 3894 1816 3883 1522 c 0,138,139
 3881 1489 3881 1489 3881 1453 c 0,140,141
 3865 1156 3865 1156 3850 853 c 0,142,143
 3850 846 3850 846 3850 840 c 0,144,145
 3848 833 3848 833 3848 826 c 0,146,147
 3846 769 3846 769 3898 769 c 0,148,149
 3986 771 3986 771 4074 774 c 0,150,151
 4088 776 4088 776 4103 776 c 0,152,153
 4132 776 4132 776 4160 778 c 0,154,155
 4209 780 4209 780 4255 782 c 0,156,157
 4294 780 4294 780 4332 771 c 1,0,-1
EndSplineSet
Substitution2: "'salt' Stylistic Alternatives in Latin lookup 0 subtable" F.salt
EndChar

StartChar: G
Encoding: 71 71 42
Width: 2291
GlyphClass: 2
Flags: W
LayerCount: 2
Fore
SplineSet
1714 3070 m 1,0,-1
 1714 3070 l 1,1,2
 1914 3020 1914 3020 2037 2833 c 0,3,4
 2171 2622 2171 2622 2196 2402 c 0,5,6
 2202 2333 2202 2333 2132 2336 c 0,7,8
 2064 2338 2064 2338 2039 2410 c 0,9,10
 2028 2446 2028 2446 2020 2481 c 0,11,12
 2015 2505 2015 2505 2009 2529 c 0,13,14
 1967 2679 1967 2679 1870 2813 c 0,15,16
 1745 2987 1745 2987 1560 2996 c 1,17,18
 1430 2998 1430 2998 1322 2949 c 0,19,20
 1034 2826 1034 2826 823 2578.5 c 128,-1,21
 612 2331 612 2331 473 2001 c 128,-1,22
 334 1671 334 1671 264 1301.5 c 128,-1,23
 194 932 194 932 184 565.5 c 128,-1,24
 174 199 174 199 220 -123 c 128,-1,25
 266 -445 266 -445 360.5 -678.5 c 128,-1,26
 455 -912 455 -912 585 -1037 c 128,-1,27
 715 -1162 715 -1162 902 -1119.5 c 128,-1,28
 1089 -1077 1089 -1077 1363 -649 c 128,-1,29
 1637 -221 1637 -221 1848 864 c 0,30,31
 1859 903 1859 903 1844.5 917.5 c 128,-1,32
 1830 932 1830 932 1784 932 c 0,33,34
 1782 932 1782 932 1778 932 c 0,35,36
 1769 932 1769 932 1760 930 c 0,37,38
 1679 925 1679 925 1595 919 c 0,39,40
 1377 903 1377 903 1159 888 c 0,41,42
 1098 886 1098 886 1036 888 c 0,43,44
 1034 888 1034 888 1034 888 c 2,45,46
 1019 890 1019 890 1006.5 899 c 128,-1,47
 994 908 994 908 988 921 c 0,48,49
 981 934 981 934 984.5 946 c 128,-1,50
 988 958 988 958 1001 963 c 0,51,52
 1012 965 1012 965 1023 969 c 0,53,54
 1063 985 1063 985 1104 989 c 0,55,56
 1318 1013 1318 1013 1472 1022 c 128,-1,57
 1626 1031 1626 1031 1884.5 1071.5 c 128,-1,58
 2143 1112 2143 1112 2132 842.5 c 128,-1,59
 2121 573 2121 573 2147 257 c 0,60,61
 2165 83 2165 83 2185 -91 c 0,62,63
 2207 -267 2207 -267 2235 -445 c 0,64,65
 2246 -518 2246 -518 2259 -593 c 0,66,67
 2262 -610 2262 -610 2266 -626 c 0,68,69
 2268 -643 2268 -643 2273 -659 c 0,70,71
 2284 -716 2284 -716 2233 -718 c 0,72,73
 2165 -725 2165 -725 2138 -670 c 0,74,75
 2123 -637 2123 -637 2112 -601 c 0,76,77
 2110 -597 2110 -597 2108 -590 c 0,78,79
 2020 -337 2020 -337 2000 -89 c 0,80,81
 1984 76 1984 76 1969 243 c 0,82,83
 1960 325 1960 325 1951 406 c 1,84,85
 1927 386 1927 386 1917 361 c 128,-1,86
 1907 336 1907 336 1905 309 c 0,87,88
 1903 296 1903 296 1899 283 c 0,89,90
 1718 -278 1718 -278 1492.5 -678.5 c 128,-1,91
 1267 -1079 1267 -1079 1013 -1206.5 c 128,-1,92
 759 -1334 759 -1334 573 -1235 c 128,-1,93
 387 -1136 387 -1136 254 -873 c 128,-1,94
 121 -610 121 -610 50.5 -241.5 c 128,-1,95
 -20 127 -20 127 -21 548 c 128,-1,96
 -22 969 -22 969 56 1386 c 128,-1,97
 134 1803 134 1803 300 2161.5 c 128,-1,98
 466 2520 466 2520 728 2764.5 c 128,-1,99
 990 3009 990 3009 1355 3084 c 0,100,101
 1525 3117 1525 3117 1714 3070 c 1,0,-1
EndSplineSet
Substitution2: "'salt' Stylistic Alternatives in Latin lookup 0 subtable" G.salt
EndChar

StartChar: H
Encoding: 72 72 43
Width: 3936
GlyphClass: 2
Flags: W
LayerCount: 2
Fore
SplineSet
4030 644 m 1,0,-1
 4030 644 l 1,1,2
 4055 642 4055 642 4069 627.5 c 128,-1,3
 4083 613 4083 613 4081 598 c 0,4,5
 4074 578 4074 578 4060 572.5 c 128,-1,6
 4046 567 4046 567 4030 567 c 0,7,8
 3863 573 3863 573 3696 556 c 0,9,10
 3584 547 3584 547 3469 543 c 0,11,12
 3355 540 3355 540 3243 529 c 0,13,14
 3216 527 3216 527 3190 525 c 0,15,16
 3135 525 3135 525 3137 468 c 0,17,18
 3135 424 3135 424 3135 378 c 0,19,20
 3135 364 3135 364 3135 353 c 0,21,22
 3135 140 3135 140 3135 -73 c 0,23,24
 3135 -645 3135 -645 3135 -1217 c 0,25,26
 3135 -1319 3135 -1319 3124 -1420 c 0,27,28
 3120 -1473 3120 -1473 3062 -1473 c 0,29,30
 2994 -1475 2994 -1475 2983 -1424 c 1,31,32
 2972 -1341 2972 -1341 2972 -1259 c 0,33,34
 2972 -692 2972 -692 2972 -124 c 0,35,36
 2972 56 2972 56 2972 235 c 0,37,38
 2972 261 2972 261 2972 285 c 0,39,40
 2972 369 2972 369 2970 452 c 0,41,42
 2972 521 2972 521 2908 512 c 0,43,44
 2858 507 2858 507 2807 503 c 0,45,46
 2592 485 2592 485 2374 461 c 0,47,48
 2180 439 2180 439 1989 411 c 0,49,50
 1916 400 1916 400 1844 391 c 0,51,52
 1819 386 1819 386 1797 382 c 256,53,54
 1775 378 1775 378 1756 375 c 0,55,56
 1703 367 1703 367 1705 314 c 0,57,58
 1703 232 1703 232 1703 151 c 0,59,60
 1701 28 1701 28 1701 -93 c 0,61,62
 1701 -278 1701 -278 1701 -463 c 0,63,64
 1701 -661 1701 -661 1698 -861 c 0,65,66
 1701 -925 1701 -925 1692 -986 c 0,67,68
 1683 -1044 1683 -1044 1619 -1041 c 1,69,70
 1553 -1044 1553 -1044 1547 -986 c 0,71,72
 1538 -909 1538 -909 1538 -832 c 0,73,74
 1538 -456 1538 -456 1536 -80 c 0,75,76
 1536 41 1536 41 1536 162 c 0,77,78
 1533 175 1533 175 1536 191 c 0,79,80
 1536 215 1536 215 1533 239 c 0,81,82
 1536 314 1536 314 1520.5 327 c 128,-1,83
 1505 340 1505 340 1434 325 c 1,84,85
 942 250 942 250 458 140 c 0,86,87
 370 118 370 118 285 91.5 c 128,-1,88
 200 65 200 65 119 23 c 0,89,90
 75 -3 75 -3 22 -1 c 0,91,92
 7 1 7 1 -7.5 8 c 128,-1,93
 -22 15 -22 15 -31 30 c 0,94,95
 -37 48 -37 48 -28.5 61 c 128,-1,96
 -20 74 -20 74 -7 83 c 0,97,98
 57 133 57 133 132 158 c 0,99,100
 136 158 136 158 139 160 c 0,101,102
 319 228 319 228 506 263 c 1,103,104
 937 358 937 358 1373 424 c 0,105,106
 1434 435 1434 435 1498 446 c 0,107,108
 1527 452 1527 452 1529 481 c 0,109,110
 1533 538 1533 538 1533 595 c 0,111,112
 1536 910 1536 910 1536 1227 c 0,113,114
 1536 1658 1536 1658 1536 2089 c 0,115,116
 1536 2281 1536 2281 1540 2472 c 0,117,118
 1544 2569 1544 2569 1641 2553 c 0,119,120
 1692 2547 1692 2547 1698 2496 c 0,121,122
 1701 2452 1701 2452 1701 2408 c 0,123,124
 1701 2402 1701 2402 1701 2395 c 0,125,126
 1701 1713 1701 1713 1703 1033 c 0,127,128
 1703 833 1703 833 1703 633 c 0,129,130
 1703 622 1703 622 1703 611 c 0,131,132
 1703 589 1703 589 1703 569 c 0,133,134
 1703 507 1703 507 1717 494 c 128,-1,135
 1731 481 1731 481 1791 492 c 0,136,137
 1879 503 1879 503 1965 514 c 0,138,139
 2092 532 2092 532 2222 547 c 0,140,141
 2457 573 2457 573 2695 595 c 0,142,143
 2787 604 2787 604 2882 615 c 0,144,145
 2891 615 2891 615 2902 615 c 0,146,147
 2917 615 2917 615 2933 620 c 0,148,149
 2968 626 2968 626 2970 664 c 0,150,151
 2972 714 2972 714 2972 765 c 0,152,153
 2972 1150 2972 1150 2972 1533 c 0,154,155
 2972 1660 2972 1660 2972 1786 c 1,156,157
 2972 1786 2972 1786 2974 1786 c 1,158,159
 2974 1882 2974 1882 2974 1979 c 0,160,161
 2974 2393 2974 2393 2974 2809 c 0,162,163
 2974 2826 2974 2826 2974 2846 c 0,164,165
 2977 2872 2977 2872 2977 2897 c 0,166,167
 2979 2949 2979 2949 3020.5 2963.5 c 128,-1,168
 3062 2978 3062 2978 3098 2960 c 0,169,170
 3122 2947 3122 2947 3126 2921 c 0,171,172
 3131 2870 3131 2870 3131 2820 c 0,173,174
 3133 1955 3133 1955 3135 1090 c 0,175,176
 3135 945 3135 945 3135 802 c 0,177,178
 3135 796 3135 796 3135 789 c 0,179,180
 3135 769 3135 769 3135 752 c 0,181,182
 3135 690 3135 690 3139.5 663.5 c 128,-1,183
 3144 637 3144 637 3165 632.5 c 128,-1,184
 3186 628 3186 628 3230 631 c 0,185,186
 3245 631 3245 631 3265 631 c 0,187,188
 3474 635 3474 635 3681 639 c 0,189,190
 3804 644 3804 644 3929 646 c 0,191,192
 3980 648 3980 648 4030 644 c 1,0,-1
EndSplineSet
Substitution2: "'salt' Stylistic Alternatives in Latin lookup 0 subtable" H.salt
EndChar

StartChar: I
Encoding: 73 73 44
Width: 1500
GlyphClass: 2
Flags: W
LayerCount: 2
Fore
SplineSet
1360 620 m 1,0,-1
 1360 620 l 1,1,2
 1393 637 1393 637 1427 645 c 128,-1,3
 1461 653 1461 653 1480.5 649.5 c 128,-1,4
 1500 646 1500 646 1492.5 633 c 128,-1,5
 1485 620 1485 620 1434 595 c 0,6,7
 1349 558 1349 558 1253 487.5 c 128,-1,8
 1157 417 1157 417 1082.5 329 c 128,-1,9
 1008 241 1008 241 988 142 c 0,10,11
 911 -285 911 -285 763 -694 c 0,12,13
 697 -887 697 -887 596 -1066 c 0,14,15
 552 -1145 552 -1145 491 -1209 c 0,16,17
 455 -1248 455 -1248 403 -1257 c 0,18,19
 317 -1268 317 -1268 273 -1241.5 c 128,-1,20
 229 -1215 229 -1215 209 -1125 c 1,21,22
 191 -1017 191 -1017 213 -909 c 0,23,24
 257 -670 257 -670 367 -452 c 0,25,26
 453 -276 453 -276 557.5 -113 c 128,-1,27
 662 50 662 50 794 195 c 0,28,29
 827 232 827 232 840.5 273 c 128,-1,30
 854 314 854 314 858 358 c 0,31,32
 862 413 862 413 869 468 c 0,33,34
 898 697 898 697 911 930 c 0,35,36
 939 1420 939 1420 891 1911 c 0,37,38
 865 2171 865 2171 785 2421 c 0,39,40
 750 2538 750 2538 678 2637 c 0,41,42
 658 2663 658 2663 636 2685 c 0,43,44
 579 2745 579 2745 527 2750.5 c 128,-1,45
 475 2756 475 2756 411 2707 c 0,46,47
 196 2549 196 2549 150 2285 c 0,48,49
 134 2188 134 2188 46 2217 c 0,50,51
 4 2232 4 2232 2 2274 c 0,52,53
 0 2311 0 2311 9 2349 c 0,54,55
 70 2578 70 2578 244 2736 c 0,56,57
 321 2809 321 2809 414.5 2831 c 128,-1,58
 508 2853 508 2853 612 2835 c 0,59,60
 671 2824 671 2824 717 2792 c 128,-1,61
 763 2760 763 2760 803 2716 c 0,62,63
 900 2602 900 2602 946 2461 c 1,64,65
 997 2318 997 2318 1024.5 2171.5 c 128,-1,66
 1052 2025 1052 2025 1065 1876 c 0,67,68
 1080 1662 1080 1662 1089 1473 c 0,69,70
 1091 1401 1091 1401 1096 1335 c 1,71,72
 1089 921 1089 921 1049 576 c 0,73,74
 1045 532 1045 532 1043 488 c 0,75,76
 1043 479 1043 479 1045 470 c 128,-1,77
 1047 461 1047 461 1058 459 c 0,78,79
 1065 457 1065 457 1071.5 459 c 128,-1,80
 1078 461 1078 461 1082 463 c 0,81,82
 1175 527 1175 527 1258 567 c 0,83,84
 1305 589 1305 589 1360 620 c 1,0,-1
761 -153 m 1,85,-1
 761 -153 l 1,86,87
 766 -133 766 -133 768 -111 c 0,88,89
 768 -102 768 -102 770 -91 c 1,90,91
 642 -252 642 -252 547.5 -426.5 c 128,-1,92
 453 -601 453 -601 396 -797 c 0,93,94
 376 -868 376 -868 364 -939.5 c 128,-1,95
 352 -1011 352 -1011 359 -1083 c 0,96,97
 359 -1094 359 -1094 363 -1103 c 128,-1,98
 367 -1112 367 -1112 378 -1114 c 0,99,100
 398 -1118 398 -1118 409 -1101 c 0,101,102
 482 -997 482 -997 530 -879 c 0,103,104
 607 -703 607 -703 662 -521.5 c 128,-1,105
 717 -340 717 -340 761 -153 c 1,85,-1
EndSplineSet
Substitution2: "'salt' Stylistic Alternatives in Latin lookup 0 subtable" I.salt
EndChar

StartChar: J
Encoding: 74 74 45
Width: 3704
GlyphClass: 2
Flags: W
LayerCount: 2
Fore
SplineSet
3764 606 m 1,0,-1
 3764 606 l 1,1,2
 3795 600 3795 600 3799 573 c 0,3,4
 3799 560 3799 560 3791.5 550 c 128,-1,5
 3784 540 3784 540 3769 538 c 0,6,7
 3736 529 3736 529 3703 525 c 0,8,9
 3648 514 3648 514 3595 501 c 0,10,11
 3540 490 3540 490 3509 483 c 0,12,13
 3476 479 3476 479 3458.5 472.5 c 128,-1,14
 3441 466 3441 466 3430 448 c 128,-1,15
 3419 430 3419 430 3401 391 c 0,16,17
 3390 367 3390 367 3373 331 c 0,18,19
 3062 -302 3062 -302 2517 -751 c 0,20,21
 2281 -945 2281 -945 2024 -1103 c 128,-1,22
 1767 -1261 1767 -1261 1483 -1374 c 0,23,24
 1263 -1459 1263 -1459 1036.5 -1504.5 c 128,-1,25
 810 -1550 810 -1550 572 -1536 c 0,26,27
 411 -1528 411 -1528 266 -1459 c 0,28,29
 200 -1429 200 -1429 150 -1380 c 0,30,31
 0 -1228 0 -1228 75 -1028 c 0,32,33
 112 -934 112 -934 176 -852 c 0,34,35
 312 -681 312 -681 484 -549 c 0,36,37
 829 -282 829 -282 1230 -109 c 1,38,39
 1709 103 1709 103 2213 246 c 0,40,41
 2295 270 2295 270 2376 292 c 0,42,43
 2576 353 2576 353 2778.5 409.5 c 128,-1,44
 2981 466 2981 466 3186 512 c 0,45,46
 3280 529 3280 529 3309 622 c 1,47,48
 3403 879 3403 879 3454 1144 c 128,-1,49
 3505 1409 3505 1409 3502 1682 c 0,50,51
 3502 2188 3502 2188 3278 2644 c 0,52,53
 3203 2793 3203 2793 3102 2923 c 0,54,55
 2966 3101 2966 3101 2788.5 3213.5 c 128,-1,56
 2611 3326 2611 3326 2398 3381 c 0,57,58
 1646 3581 1646 3581 944 3238 c 0,59,60
 642 3088 642 3088 438 2820 c 0,61,62
 266 2597 266 2597 222 2320 c 0,63,64
 183 2080 183 2080 293 1860 c 1,65,66
 392 1673 392 1673 548 1528 c 0,67,68
 898 1203 898 1203 1366 1106 c 1,69,70
 1536 1066 1536 1066 1707 1099 c 1,71,72
 1817 1115 1817 1115 1813 1066 c 1,73,74
 1806 1038 1806 1038 1785 1028 c 128,-1,75
 1764 1018 1764 1018 1740 1013 c 0,76,77
 1731 1013 1731 1013 1723 1011 c 0,78,79
 1584 980 1584 980 1443 1000 c 0,80,81
 843 1073 843 1073 398 1489 c 0,82,83
 277 1603 277 1603 187 1742 c 0,84,85
 79 1904 79 1904 54 2078 c 128,-1,86
 29 2252 29 2252 75 2437 c 0,87,88
 117 2597 117 2597 196 2732.5 c 128,-1,89
 275 2868 275 2868 387 2985 c 0,90,91
 550 3152 550 3152 743.5 3265 c 128,-1,92
 937 3378 937 3378 1157 3444 c 0,93,94
 1399 3519 1399 3519 1645.5 3538 c 128,-1,95
 1892 3557 1892 3557 2143 3530 c 0,96,97
 2429 3502 2429 3502 2697 3394 c 0,98,99
 3098 3227 3098 3227 3335 2864 c 0,100,101
 3476 2652 3476 2652 3555 2419 c 128,-1,102
 3634 2186 3634 2186 3663 1933 c 0,103,104
 3698 1621 3698 1621 3662 1316 c 128,-1,105
 3626 1011 3626 1011 3529 714 c 0,106,107
 3513 664 3513 664 3500 615 c 0,108,109
 3498 609 3498 609 3496 604 c 0,110,111
 3496 600 3496 600 3498 595 c 0,112,113
 3498 593 3498 593 3500 593 c 0,114,115
 3522 584 3522 584 3544 586.5 c 128,-1,116
 3566 589 3566 589 3588 593 c 0,117,118
 3606 598 3606 598 3623 600 c 0,119,120
 3637 602 3637 602 3648 602 c 0,121,122
 3705 613 3705 613 3764 606 c 1,0,-1
3197 375 m 1,123,-1
 3197 375 l 1,124,125
 3201 386 3201 386 3195.5 394 c 128,-1,126
 3190 402 3190 402 3181 402 c 0,127,128
 3148 400 3148 400 3117 391 c 0,129,130
 2772 303 2772 303 2430 203 c 128,-1,131
 2088 103 2088 103 1751 -18 c 0,132,133
 1509 -104 1509 -104 1278 -211 c 128,-1,134
 1047 -318 1047 -318 834 -456 c 0,135,136
 704 -540 704 -540 585 -636.5 c 128,-1,137
 466 -733 466 -733 367 -850 c 0,138,139
 286 -942 286 -942 238 -1055 c 0,140,141
 207 -1132 207 -1132 223.5 -1199 c 128,-1,142
 240 -1266 240 -1266 295 -1323 c 0,143,144
 348 -1380 348 -1380 422 -1404 c 0,145,146
 568 -1455 568 -1455 722 -1448 c 0,147,148
 922 -1435 922 -1435 1112 -1382.5 c 128,-1,149
 1302 -1330 1302 -1330 1483 -1248 c 0,150,151
 1674 -1165 1674 -1165 1850 -1057 c 128,-1,152
 2026 -949 2026 -949 2193 -824 c 0,153,154
 2484 -612 2484 -612 2718 -350.5 c 128,-1,155
 2952 -89 2952 -89 3126 226 c 0,156,157
 3164 298 3164 298 3197 371 c 0,158,159
 3197 373 3197 373 3197 375 c 1,123,-1
EndSplineSet
Substitution2: "'salt' Stylistic Alternatives in Latin lookup 0 subtable" J.salt
EndChar

StartChar: K
Encoding: 75 75 46
Width: 1910
GlyphClass: 2
Flags: W
LayerCount: 2
Fore
SplineSet
2440 2934 m 1,0,-1
 2440 2934 l 1,1,2
 2466 2930 2466 2930 2479 2905 c 0,3,4
 2486 2892 2486 2892 2480.5 2882 c 128,-1,5
 2475 2872 2475 2872 2466 2861 c 0,6,7
 2385 2787 2385 2787 2301 2710 c 0,8,9
 2220 2633 2220 2633 2138 2558 c 0,10,11
 1927 2360 1927 2360 1716 2162 c 0,12,13
 1302 1777 1302 1777 889 1390 c 0,14,15
 678 1196 678 1196 491 976 c 0,16,17
 425 899 425 899 367 813 c 0,18,19
 328 756 328 756 304 690 c 0,20,21
 262 580 262 580 356 507 c 0,22,23
 418 463 418 463 486 430 c 0,24,25
 587 380 587 380 693 344.5 c 128,-1,26
 799 309 799 309 906 279 c 0,27,28
 1267 173 1267 173 1628 70 c 0,29,30
 1659 61 1659 61 1690 52 c 0,31,32
 1696 50 1696 50 1705 48 c 0,33,34
 1729 41 1729 41 1751 31 c 128,-1,35
 1773 21 1773 21 1791 1 c 0,36,37
 1802 -12 1802 -12 1797.5 -28.5 c 128,-1,38
 1793 -45 1793 -45 1780 -51 c 0,39,40
 1734 -69 1734 -69 1692 -49 c 0,41,42
 1635 -21 1635 -21 1573 -5.5 c 128,-1,43
 1511 10 1511 10 1448 23 c 0,44,45
 1393 34 1393 34 1338 50 c 0,46,47
 1252 72 1252 72 1166 92 c 0,48,49
 935 149 935 149 708 219 c 0,50,51
 519 276 519 276 339 358 c 0,52,53
 288 382 288 382 275 372 c 128,-1,54
 262 362 262 362 262 305 c 0,55,56
 260 272 260 272 260 241 c 0,57,58
 262 228 262 228 262 215 c 0,59,60
 262 41 262 41 262 -133 c 0,61,62
 262 -586 262 -586 260 -1037 c 0,63,64
 260 -1145 260 -1145 251 -1253 c 0,65,66
 249 -1303 249 -1303 246 -1356 c 0,67,68
 246 -1376 246 -1376 239.5 -1392.5 c 128,-1,69
 233 -1409 233 -1409 213 -1418 c 0,70,71
 174 -1435 174 -1435 145.5 -1419.5 c 128,-1,72
 117 -1404 117 -1404 112 -1365 c 0,73,74
 110 -1330 110 -1330 108 -1297 c 0,75,76
 97 -1134 97 -1134 95 -969 c 0,77,78
 95 -366 95 -366 95 237 c 0,79,80
 95 459 95 459 95 679 c 1,81,82
 95 679 95 679 97 679 c 1,83,84
 97 901 97 901 97 1123 c 0,85,86
 95 1781 95 1781 97 2441 c 0,87,88
 97 2589 97 2589 106 2734 c 0,89,90
 108 2795 108 2795 169 2800 c 0,91,92
 240 2809 240 2809 249 2740 c 0,93,94
 260 2652 260 2652 260 2562 c 0,95,96
 260 2142 260 2142 260 1722 c 0,97,98
 262 1414 262 1414 262 1108 c 0,99,100
 262 1051 262 1051 268 994 c 0,101,102
 268 991 268 991 272.5 989 c 128,-1,103
 277 987 277 987 281.5 985 c 128,-1,104
 286 983 286 983 288 985 c 0,105,106
 295 985 295 985 299.5 989.5 c 128,-1,107
 304 994 304 994 308 998 c 0,108,109
 455 1172 455 1172 617 1329 c 128,-1,110
 779 1486 779 1486 944 1640 c 0,111,112
 955 1649 955 1649 966 1660 c 0,113,114
 1459 2120 1459 2120 1956 2575 c 0,115,116
 2066 2677 2066 2677 2174 2778 c 0,117,118
 2246 2842 2246 2842 2319 2903 c 0,119,120
 2372 2945 2372 2945 2440 2934 c 1,0,-1
EndSplineSet
Substitution2: "'salt' Stylistic Alternatives in Latin lookup 0 subtable" K.salt
EndChar

StartChar: L
Encoding: 76 76 47
Width: 1619
GlyphClass: 2
Flags: W
LayerCount: 2
Fore
SplineSet
1672 591 m 1,0,-1
 1672 591 l 1,1,2
 1696 595 1696 595 1721.5 594 c 128,-1,3
 1747 593 1747 593 1771 580 c 0,4,5
 1775 576 1775 576 1778.5 566 c 128,-1,6
 1782 556 1782 556 1784 547 c 0,7,8
 1784 543 1784 543 1779.5 537.5 c 128,-1,9
 1775 532 1775 532 1771 527 c 0,10,11
 1760 521 1760 521 1749 518 c 0,12,13
 1606 490 1606 490 1484 423 c 128,-1,14
 1362 356 1362 356 1252 268 c 0,15,16
 1102 151 1102 151 975.5 11.5 c 128,-1,17
 849 -128 849 -128 737 -280 c 0,18,19
 524 -566 524 -566 341 -874 c 0,20,21
 299 -945 299 -945 255 -1013 c 0,22,23
 249 -1026 249 -1026 240 -1037 c 1,24,25
 240 -1037 240 -1037 240 -1037 c 1,26,27
 220 -1070 220 -1070 196 -1099 c 0,28,29
 132 -1167 132 -1167 46 -1132 c 0,30,31
 11 -1114 11 -1114 5.5 -1084.5 c 128,-1,32
 0 -1055 0 -1055 7 -1022 c 0,33,34
 55 -588 55 -588 64 -155 c 0,35,36
 81 426 81 426 86.5 1007 c 128,-1,37
 92 1588 92 1588 68 2168 c 0,38,39
 53 2516 53 2516 29 2866 c 0,40,41
 18 3026 18 3026 7 3187 c 0,42,43
 7 3200 7 3200 4 3211 c 0,44,45
 2 3244 2 3244 2 3277 c 0,46,47
 7 3328 7 3328 59 3334 c 0,48,49
 90 3339 90 3339 114.5 3328 c 128,-1,50
 139 3317 139 3317 143 3295 c 0,51,52
 163 3213 163 3213 172 3130 c 0,53,54
 172 3106 172 3106 174 3081 c 0,55,56
 207 2628 207 2628 231 2175 c 0,57,58
 255 1726 255 1726 254 1276 c 128,-1,59
 253 826 253 826 242 375 c 0,60,61
 235 6 235 6 222 -364 c 0,62,63
 220 -450 220 -450 213 -535 c 0,64,65
 209 -584 209 -584 207 -632 c 0,66,67
 205 -674 205 -674 202 -718 c 0,68,69
 202 -738 202 -738 200 -758 c 1,70,71
 207 -760 207 -760 211 -762 c 0,72,73
 218 -762 218 -762 224 -764 c 1,74,75
 235 -747 235 -747 246 -731 c 0,76,77
 275 -685 275 -685 306 -639 c 0,78,79
 510 -313 510 -313 757 -21 c 0,80,81
 882 127 882 127 1024 253.5 c 128,-1,82
 1166 380 1166 380 1335 477 c 0,83,84
 1415 521 1415 521 1497.5 551.5 c 128,-1,85
 1580 582 1580 582 1672 591 c 1,0,-1
EndSplineSet
Substitution2: "'salt' Stylistic Alternatives in Latin lookup 0 subtable" L.salt
EndChar

StartChar: M
Encoding: 77 77 48
Width: 3263
GlyphClass: 2
Flags: W
LayerCount: 2
Fore
SplineSet
3342 527 m 1,0,-1
 3342 527 l 1,1,2
 3364 516 3364 516 3357.5 492 c 128,-1,3
 3351 468 3351 468 3333 441.5 c 128,-1,4
 3315 415 3315 415 3300 397 c 0,5,6
 3293 389 3293 389 3291 384 c 0,7,8
 3161 204 3161 204 3065.5 6 c 128,-1,9
 2970 -192 2970 -192 2886 -397 c 0,10,11
 2851 -476 2851 -476 2818 -555 c 0,12,13
 2741 -729 2741 -729 2669 -905 c 0,14,15
 2545 -1206 2545 -1206 2407 -1503 c 0,16,17
 2358 -1607 2358 -1607 2297 -1706 c 0,18,19
 2248 -1787 2248 -1787 2147 -1785 c 0,20,21
 2064 -1787 2064 -1787 2046 -1708 c 0,22,23
 2028 -1640 2028 -1640 2026 -1569 c 0,24,25
 2015 -1301 2015 -1301 2039 -1035 c 0,26,27
 2055 -850 2055 -850 2068 -667 c 0,28,29
 2081 -469 2081 -469 2099 -271 c 0,30,31
 2138 180 2138 180 2185 631 c 0,32,33
 2240 1148 2240 1148 2299 1662 c 0,34,35
 2402 2534 2402 2534 2482 3411 c 0,36,37
 2486 3466 2486 3466 2484 3501.5 c 128,-1,38
 2482 3537 2482 3537 2468.5 3528 c 128,-1,39
 2455 3519 2455 3519 2427 3444 c 0,40,41
 2167 2696 2167 2696 1947 1937 c 0,42,43
 1938 1909 1938 1909 1932 1882 c 0,44,45
 1800 1431 1800 1431 1665 983 c 0,46,47
 1615 809 1615 809 1549 630.5 c 128,-1,48
 1483 452 1483 452 1397 294 c 0,49,50
 1371 248 1371 248 1329 231.5 c 128,-1,51
 1287 215 1287 215 1234 221 c 0,52,53
 1179 226 1179 226 1153 274 c 0,54,55
 1131 320 1131 320 1126 373 c 0,56,57
 1120 435 1120 435 1113 499 c 0,58,59
 1096 639 1096 639 1085 778 c 0,60,61
 1054 1167 1054 1167 1003.5 1559 c 128,-1,62
 953 1951 953 1951 873 2333 c 0,63,64
 851 2430 851 2430 808.5 2328 c 128,-1,65
 766 2226 766 2226 712 1986 c 128,-1,66
 658 1746 658 1746 597.5 1433.5 c 128,-1,67
 537 1121 537 1121 481 797.5 c 128,-1,68
 425 474 425 474 378 206 c 0,69,70
 308 -210 308 -210 284 -324 c 0,71,72
 264 -406 264 -406 229 -480 c 0,73,74
 213 -513 213 -513 184.5 -524 c 128,-1,75
 156 -535 156 -535 121 -531 c 0,76,77
 51 -522 51 -522 35 -450 c 0,78,79
 29 -412 29 -412 29 -373 c 0,80,81
 26 -342 26 -342 26 -311 c 0,82,83
 20 -190 20 -190 18 -67 c 0,84,85
 0 877 0 877 29 1823 c 0,86,87
 48 2421 48 2421 64 3022 c 0,88,89
 64 3086 64 3086 64 3152 c 0,90,91
 62 3213 62 3213 64 3277 c 0,92,93
 66 3326 66 3326 100 3344.5 c 128,-1,94
 134 3363 134 3363 180 3343 c 0,95,96
 198 3337 198 3337 204.5 3323.5 c 128,-1,97
 211 3310 211 3310 213 3293 c 0,98,99
 233 3128 233 3128 227 2963 c 0,100,101
 224 2864 224 2864 220 2765 c 0,102,103
 213 2494 213 2494 202 2223 c 0,104,105
 189 1874 189 1874 185 1526 c 0,106,107
 180 1269 180 1269 174 1011 c 0,108,109
 167 738 167 738 169 466 c 0,110,111
 169 279 169 279 167 87 c 0,112,113
 167 76 167 76 169.5 53 c 128,-1,114
 172 30 172 30 177.5 4.5 c 128,-1,115
 183 -21 183 -21 188.5 -36 c 128,-1,116
 194 -51 194 -51 201.5 -43.5 c 128,-1,117
 209 -36 209 -36 216 6 c 0,118,119
 235 127 235 127 260 279 c 0,120,121
 315 637 315 637 390.5 1068.5 c 128,-1,122
 466 1500 466 1500 561 1883.5 c 128,-1,123
 656 2267 656 2267 766 2479 c 1,124,125
 812 2556 812 2556 880 2553.5 c 128,-1,126
 948 2551 948 2551 990 2470 c 1,127,128
 1045 2340 1045 2340 1082.5 2152 c 128,-1,129
 1120 1964 1120 1964 1145 1760.5 c 128,-1,130
 1170 1557 1170 1557 1188 1379 c 0,131,132
 1197 1282 1197 1282 1206 1203 c 0,133,134
 1219 1077 1219 1077 1230 972 c 0,135,136
 1256 723 1256 723 1278 584.5 c 128,-1,137
 1300 446 1300 446 1337.5 446 c 128,-1,138
 1375 446 1375 446 1440 618.5 c 128,-1,139
 1505 791 1505 791 1617 1167 c 0,140,141
 1718 1515 1718 1515 1808 1838 c 0,142,143
 1927 2265 1927 2265 2054.5 2686.5 c 128,-1,144
 2182 3108 2182 3108 2354 3565 c 0,145,146
 2405 3697 2405 3697 2460 3783 c 128,-1,147
 2515 3869 2515 3869 2567 3873 c 0,148,149
 2587 3876 2587 3876 2607 3868 c 128,-1,150
 2627 3860 2627 3860 2642.5 3822.5 c 128,-1,151
 2658 3785 2658 3785 2660 3697 c 0,152,153
 2664 3550 2664 3550 2654 3402.5 c 128,-1,154
 2644 3255 2644 3255 2631 3108 c 0,155,156
 2629 3090 2629 3090 2629 3075 c 0,157,158
 2556 2320 2556 2320 2466 1568 c 0,159,160
 2409 1077 2409 1077 2356 587 c 0,161,162
 2356 576 2356 576 2354 562 c 0,163,164
 2306 105 2306 105 2264 -353 c 0,165,166
 2229 -755 2229 -755 2200 -1158 c 0,167,168
 2198 -1193 2198 -1193 2196 -1231 c 0,169,170
 2189 -1334 2189 -1334 2187 -1437 c 0,171,172
 2187 -1475 2187 -1475 2187 -1510 c 0,173,174
 2185 -1521 2185 -1521 2189 -1528.5 c 128,-1,175
 2193 -1536 2193 -1536 2207 -1536 c 0,176,177
 2211 -1536 2211 -1536 2216.5 -1533 c 128,-1,178
 2222 -1530 2222 -1530 2224 -1523 c 0,179,180
 2356 -1250 2356 -1250 2482 -978 c 0,181,182
 2600 -716 2600 -716 2724.5 -455 c 128,-1,183
 2849 -194 2849 -194 2988 63 c 0,184,185
 3102 279 3102 279 3199 408.5 c 128,-1,186
 3296 538 3296 538 3342 527 c 1,0,-1
EndSplineSet
Substitution2: "'salt' Stylistic Alternatives in Latin lookup 0 subtable" M.salt
EndChar

StartChar: N
Encoding: 78 78 49
Width: 2131
GlyphClass: 2
Flags: W
LayerCount: 2
Fore
SplineSet
2037 3156 m 1,0,-1
 2037 3156 l 1,1,2
 2064 3026 2064 3026 2066 2890 c 0,3,4
 2072 2648 2072 2648 2061 2406 c 128,-1,5
 2050 2164 2050 2164 2028 1922 c 0,6,7
 2011 1713 2011 1713 1995 1504 c 0,8,9
 1982 1332 1982 1332 1969 1159 c 0,10,11
 1954 963 1954 963 1936 765 c 0,12,13
 1918 569 1918 569 1901 371 c 0,14,15
 1883 142 1883 142 1868 -87 c 0,16,17
 1861 -241 1861 -241 1852 -392 c 0,18,19
 1844 -564 1844 -564 1835 -738 c 0,20,21
 1808 -1165 1808 -1165 1815 -1591 c 0,22,23
 1815 -1618 1815 -1618 1811 -1642 c 0,24,25
 1804 -1668 1804 -1668 1775 -1673 c 0,26,27
 1687 -1690 1687 -1690 1676 -1607 c 0,28,29
 1670 -1543 1670 -1543 1670 -1479 c 0,30,31
 1670 -1358 1670 -1358 1670 -1237 c 0,32,33
 1665 -912 1665 -912 1668 -584 c 0,34,35
 1674 -278 1674 -278 1698 28 c 0,36,37
 1725 400 1725 400 1756 771 c 0,38,39
 1775 998 1775 998 1793 1222 c 0,40,41
 1837 1783 1837 1783 1879 2342 c 0,42,43
 1901 2655 1901 2655 1888 2969 c 0,44,45
 1881 3156 1881 3156 1826 3162.5 c 128,-1,46
 1771 3169 1771 3169 1682 3039.5 c 128,-1,47
 1593 2910 1593 2910 1483 2684.5 c 128,-1,48
 1373 2459 1373 2459 1255 2180.5 c 128,-1,49
 1137 1902 1137 1902 1024 1616 c 128,-1,50
 911 1330 911 1330 815 1076 c 128,-1,51
 719 822 719 822 655.5 645 c 128,-1,52
 592 468 592 468 570 408 c 0,53,54
 563 391 563 391 563 389 c 0,55,56
 449 85 449 85 328 -216 c 0,57,58
 293 -298 293 -298 249 -377 c 0,59,60
 240 -392 240 -392 229 -410 c 0,61,62
 209 -454 209 -454 165 -469 c 0,63,64
 101 -487 101 -487 54 -468.5 c 128,-1,65
 7 -450 7 -450 4 -370 c 0,66,67
 0 -197 0 -197 7 -25 c 0,68,69
 11 63 11 63 13 153 c 0,70,71
 31 631 31 631 53 1110 c 0,72,73
 70 1431 70 1431 90 1750 c 0,74,75
 106 1997 106 1997 121 2243 c 0,76,77
 125 2342 125 2342 134 2439 c 0,78,79
 152 2646 152 2646 152 2855 c 0,80,81
 152 2881 152 2881 154 2908 c 0,82,83
 161 2976 161 2976 229 2976 c 256,84,85
 297 2976 297 2976 304 2905 c 0,86,87
 312 2809 312 2809 309 2710 c 128,-1,88
 306 2611 306 2611 299 2512 c 0,89,90
 299 2505 299 2505 299 2498 c 0,91,92
 290 2380 290 2380 282 2259 c 0,93,94
 271 2131 271 2131 262 2001 c 0,95,96
 229 1396 229 1396 198 791 c 0,97,98
 176 384 176 384 158 -23 c 0,99,100
 154 -150 154 -150 182.5 -147 c 128,-1,101
 211 -144 211 -144 257.5 -57 c 128,-1,102
 304 30 304 30 355.5 155.5 c 128,-1,103
 407 281 407 281 451 395.5 c 128,-1,104
 495 510 495 510 515 567 c 0,105,106
 521 584 521 584 524 591 c 0,107,108
 594 782 594 782 686 1057 c 0,109,110
 781 1337 781 1337 894.5 1652.5 c 128,-1,111
 1008 1968 1008 1968 1135.5 2274 c 128,-1,112
 1263 2580 1263 2580 1398 2825 c 128,-1,113
 1533 3070 1533 3070 1674 3209 c 0,114,115
 1716 3251 1716 3251 1764 3279 c 0,116,117
 1859 3330 1859 3330 1937 3296 c 128,-1,118
 2015 3262 2015 3262 2037 3156 c 1,0,-1
EndSplineSet
Substitution2: "'salt' Stylistic Alternatives in Latin lookup 0 subtable" N.salt
EndChar

StartChar: O
Encoding: 79 79 50
Width: 2525
GlyphClass: 2
Flags: W
LayerCount: 2
Fore
SplineSet
2317 2168 m 1,0,-1
 2317 2168 l 1,1,2
 2372 1891 2372 1891 2387 1504 c 1,3,4
 2391 1214 2391 1214 2341.5 892.5 c 128,-1,5
 2292 571 2292 571 2163 250 c 1,6,7
 2081 61 2081 61 1972 -110.5 c 128,-1,8
 1863 -282 1863 -282 1714 -425 c 0,9,10
 1599 -538 1599 -538 1459 -612 c 0,11,12
 1305 -694 1305 -694 1126.5 -709.5 c 128,-1,13
 948 -725 948 -725 774.5 -660 c 128,-1,14
 601 -595 601 -595 458 -436 c 1,15,16
 328 -285 328 -285 244 -104 c 0,17,18
 55 314 55 314 22 769 c 0,19,20
 0 1042 0 1042 34 1309.5 c 128,-1,21
 68 1577 68 1577 167 1836 c 0,22,23
 207 1944 207 1944 260 2045 c 0,24,25
 293 2105 293 2105 266 2166 c 0,26,27
 174 2386 174 2386 156 2624 c 0,28,29
 141 2855 141 2855 225.5 3058.5 c 128,-1,30
 310 3262 310 3262 462 3405 c 128,-1,31
 614 3548 614 3548 803 3598 c 0,32,33
 1263 3717 1263 3717 1650 3438 c 0,34,35
 1890 3262 1890 3262 2031 2998 c 0,36,37
 2136 2802 2136 2802 2204.5 2594 c 128,-1,38
 2273 2386 2273 2386 2317 2168 c 1,0,-1
2037 389 m 1,39,-1
 2037 389 l 1,40,41
 2127 642 2127 642 2167 901.5 c 128,-1,42
 2207 1161 2207 1161 2211 1420 c 1,43,44
 2211 1959 2211 1959 2064 2463 c 0,45,46
 2017 2619 2017 2619 1954.5 2769 c 128,-1,47
 1892 2919 1892 2919 1802 3057 c 0,48,49
 1720 3185 1720 3185 1612.5 3287 c 128,-1,50
 1505 3389 1505 3389 1366 3458 c 0,51,52
 1203 3539 1203 3539 1040.5 3538 c 128,-1,53
 878 3537 878 3537 724 3431 c 0,54,55
 528 3297 528 3297 429 3108 c 128,-1,56
 330 2919 330 2919 339 2681 c 0,57,58
 361 2076 361 2076 818 1673 c 0,59,60
 964 1544 964 1544 1129 1449 c 128,-1,61
 1294 1354 1294 1354 1481 1302 c 0,62,63
 1489 1299 1489 1299 1498 1297 c 0,64,65
 1516 1295 1516 1295 1532.5 1288.5 c 128,-1,66
 1549 1282 1549 1282 1562 1269 c 0,67,68
 1569 1262 1569 1262 1572 1252 c 128,-1,69
 1575 1242 1575 1242 1575 1233 c 0,70,71
 1573 1227 1573 1227 1567.5 1218 c 128,-1,72
 1562 1209 1562 1209 1555 1205 c 0,73,74
 1518 1185 1518 1185 1481 1203 c 0,75,76
 1421 1231 1421 1231 1357 1247 c 0,77,78
 1346 1249 1346 1249 1338 1251 c 0,79,80
 772 1403 772 1403 427 1871 c 0,81,82
 422 1878 422 1878 418 1885 c 0,83,84
 411 1900 411 1900 400 1910 c 128,-1,85
 389 1920 389 1920 372 1915 c 0,86,87
 359 1913 359 1913 353.5 1903 c 128,-1,88
 348 1893 348 1893 345 1880 c 0,89,90
 343 1871 343 1871 339 1865 c 0,91,92
 332 1849 332 1849 328 1832 c 0,93,94
 326 1825 326 1825 321 1816 c 0,95,96
 183 1420 183 1420 178.5 1023 c 128,-1,97
 174 626 174 626 293 226 c 0,98,99
 334 83 334 83 394.5 -50 c 128,-1,100
 455 -183 455 -183 541 -304 c 0,101,102
 642 -447 642 -447 792 -538 c 0,103,104
 1008 -670 1008 -670 1245 -582 c 0,105,106
 1382 -527 1382 -527 1496 -434 c 0,107,108
 1606 -344 1606 -344 1694 -234 c 0,109,110
 1806 -93 1806 -93 1891 64 c 128,-1,111
 1976 221 1976 221 2037 389 c 1,39,-1
EndSplineSet
Substitution2: "'salt' Stylistic Alternatives in Latin lookup 0 subtable" O.salt
EndChar

StartChar: P
Encoding: 80 80 51
Width: 3718
GlyphClass: 2
Flags: W
LayerCount: 2
Fore
SplineSet
3887 2839 m 1,0,-1
 3887 2839 l 1,1,2
 4033 2721 4033 2721 4125 2569 c 128,-1,3
 4217 2417 4217 2417 4248 2228 c 0,4,5
 4264 2131 4264 2131 4255 2036.5 c 128,-1,6
 4246 1942 4246 1942 4222 1849 c 0,7,8
 4184 1695 4184 1695 4112.5 1556.5 c 128,-1,9
 4041 1418 4041 1418 3945 1293 c 0,10,11
 3817 1130 3817 1130 3659.5 1002.5 c 128,-1,12
 3502 875 3502 875 3324 771 c 0,13,14
 2948 551 2948 551 2534 413 c 0,15,16
 2506 402 2506 402 2475 391 c 0,17,18
 2433 378 2433 378 2415.5 368 c 128,-1,19
 2398 358 2398 358 2393.5 338 c 128,-1,20
 2389 318 2389 318 2389 276 c 0,21,22
 2389 -245 2389 -245 2387 -764 c 0,23,24
 2387 -832 2387 -832 2387 -898 c 0,25,26
 2387 -903 2387 -903 2387 -905 c 0,27,28
 2387 -942 2387 -942 2386 -978.5 c 128,-1,29
 2385 -1015 2385 -1015 2374 -1050 c 0,30,31
 2358 -1110 2358 -1110 2301 -1107 c 0,32,33
 2251 -1105 2251 -1105 2235 -1057 c 0,34,35
 2215 -978 2215 -978 2218 -894 c 0,36,37
 2218 -815 2218 -815 2218 -736 c 0,38,39
 2218 -291 2218 -291 2218 153 c 0,40,41
 2218 169 2218 169 2218 186 c 0,42,43
 2224 239 2224 239 2207 301 c 1,44,45
 2176 298 2176 298 2152 290 c 0,46,47
 2112 279 2112 279 2075 285 c 0,48,49
 2061 287 2061 287 2050 292.5 c 128,-1,50
 2039 298 2039 298 2037 314 c 0,51,52
 2037 345 2037 345 2064 353 c 0,53,54
 2116 375 2116 375 2171 391 c 0,55,56
 2220 408 2220 408 2218 459 c 0,57,58
 2218 490 2218 490 2218 523 c 0,59,60
 2218 540 2218 540 2218 560 c 0,61,62
 2218 826 2218 826 2218 1090 c 0,63,64
 2220 1680 2220 1680 2220 2272 c 0,65,66
 2220 2278 2220 2278 2220 2287 c 0,67,68
 2220 2331 2220 2331 2222 2373 c 0,69,70
 2229 2450 2229 2450 2306 2450 c 0,71,72
 2380 2448 2380 2448 2387 2371 c 0,73,74
 2389 2333 2389 2333 2387 2296 c 0,75,76
 2387 2283 2387 2283 2387 2270 c 0,77,78
 2387 2085 2387 2085 2387 1902 c 0,79,80
 2389 1262 2389 1262 2389 622 c 0,81,82
 2389 606 2389 606 2389 589 c 0,83,84
 2385 536 2385 536 2398 485 c 1,85,86
 2411 474 2411 474 2423 476.5 c 128,-1,87
 2435 479 2435 479 2446 483 c 0,88,89
 2754 598 2754 598 3037 756 c 128,-1,90
 3320 914 3320 914 3566 1130 c 0,91,92
 3885 1409 3885 1409 4017 1816 c 1,93,94
 4085 2041 4085 2041 4055.5 2233.5 c 128,-1,95
 4026 2426 4026 2426 3919.5 2579 c 128,-1,96
 3813 2732 3813 2732 3650 2839 c 0,97,98
 3368 3024 3368 3024 2980 3068 c 128,-1,99
 2592 3112 2592 3112 2166 3039.5 c 128,-1,100
 1740 2967 1740 2967 1344 2804 c 128,-1,101
 948 2641 948 2641 650 2412.5 c 128,-1,102
 352 2184 352 2184 218 1918 c 0,103,104
 187 1865 187 1865 174 1807.5 c 128,-1,105
 161 1750 161 1750 176 1687 c 0,106,107
 185 1651 185 1651 166 1633.5 c 128,-1,108
 147 1616 147 1616 112 1621 c 0,109,110
 42 1632 42 1632 15 1695 c 0,111,112
 -7 1750 -7 1750 7 1808 c 0,113,114
 31 1922 31 1922 97 2017 c 0,115,116
 310 2327 310 2327 689.5 2568 c 128,-1,117
 1069 2809 1069 2809 1531 2963 c 128,-1,118
 1993 3117 1993 3117 2455 3162 c 128,-1,119
 2917 3207 2917 3207 3293 3123 c 0,120,121
 3458 3086 3458 3086 3606.5 3016.5 c 128,-1,122
 3755 2947 3755 2947 3887 2839 c 1,0,-1
EndSplineSet
Substitution2: "'salt' Stylistic Alternatives in Latin lookup 0 subtable" P.salt
EndChar

StartChar: Q
Encoding: 81 81 52
Width: 2673
GlyphClass: 2
Flags: W
LayerCount: 2
Fore
SplineSet
2981 -661 m 1,0,-1
 2981 -661 l 1,1,2
 3021 -652 3021 -652 3051 -681 c 0,3,4
 3058 -689 3058 -689 3058 -698 c 128,-1,5
 3058 -707 3058 -707 3051 -714 c 0,6,7
 3043 -725 3043 -725 3032 -731 c 0,8,9
 2851 -821 2851 -821 2673 -831 c 128,-1,10
 2495 -841 2495 -841 2317 -760 c 0,11,12
 2097 -659 2097 -659 1947 -472 c 0,13,14
 1883 -390 1883 -390 1824 -304 c 0,15,16
 1793 -263 1793 -263 1762 -221 c 0,17,18
 1745 -194 1745 -194 1730.5 -192 c 128,-1,19
 1716 -190 1716 -190 1690 -208 c 0,20,21
 1551 -304 1551 -304 1397 -379 c 0,22,23
 1184 -483 1184 -483 953 -513 c 0,24,25
 746 -538 746 -538 552 -474 c 0,26,27
 392 -421 392 -421 293 -289 c 0,28,29
 123 -62 123 -62 257 202 c 1,30,31
 361 395 361 395 546 518 c 0,32,33
 561 529 561 529 579 538 c 0,34,35
 596 547 596 547 612 558 c 0,36,37
 645 580 645 580 623 613 c 0,38,39
 607 631 607 631 594 650 c 0,40,41
 585 661 585 661 579 672 c 0,42,43
 244 1134 244 1134 122 1555.5 c 128,-1,44
 0 1977 0 1977 44 2334.5 c 128,-1,45
 88 2692 88 2692 254 2965 c 128,-1,46
 420 3238 420 3238 662 3401.5 c 128,-1,47
 904 3565 904 3565 1179 3600.5 c 128,-1,48
 1454 3636 1454 3636 1713.5 3519.5 c 128,-1,49
 1973 3403 1973 3403 2176 3112 c 1,50,51
 2429 2734 2429 2734 2515 2283 c 1,52,53
 2585 1953 2585 1953 2561 1502 c 0,54,55
 2543 1156 2543 1156 2413.5 804 c 128,-1,56
 2284 452 2284 452 2035 127 c 0,57,58
 1993 74 1993 74 1949 28 c 0,59,60
 1927 1 1927 1 1905 -23 c 0,61,62
 1879 -54 1879 -54 1875.5 -69 c 128,-1,63
 1872 -84 1872 -84 1892 -111 c 0,64,65
 1954 -205 1954 -205 2018.5 -296.5 c 128,-1,66
 2083 -388 2083 -388 2158 -472 c 0,67,68
 2275 -595 2275 -595 2427 -672 c 0,69,70
 2644 -784 2644 -784 2882 -694 c 0,71,72
 2889 -692 2889 -692 2893 -689 c 0,73,74
 2937 -674 2937 -674 2981 -661 c 1,0,-1
1613 -82 m 1,75,-1
 1613 -82 l 1,76,77
 1648 -51 1648 -51 1624 -14 c 0,78,79
 1606 10 1606 10 1588 34 c 0,80,81
 1531 118 1531 118 1474 199 c 0,82,83
 1366 347 1366 347 1214 448 c 0,84,85
 1104 521 1104 521 970 538 c 0,86,87
 953 540 953 540 934 536 c 128,-1,88
 915 532 915 532 900 512 c 1,89,90
 922 479 922 479 950.5 454.5 c 128,-1,91
 979 430 979 430 1012 408 c 0,92,93
 1030 395 1030 395 1045 382 c 0,94,95
 1058 371 1058 371 1053.5 353.5 c 128,-1,96
 1049 336 1049 336 1034 329 c 0,97,98
 961 301 961 301 900 340 c 1,99,100
 845 380 845 380 792 424 c 0,101,102
 783 430 783 430 772 439 c 0,103,104
 750 457 750 457 738 463.5 c 128,-1,105
 726 470 726 470 713 463.5 c 128,-1,106
 700 457 700 457 673 441 c 0,107,108
 515 329 515 329 429 158 c 0,109,110
 330 -40 330 -40 447 -216 c 0,111,112
 524 -335 524 -335 638 -382.5 c 128,-1,113
 752 -430 752 -430 891 -414 c 0,114,115
 1096 -390 1096 -390 1274 -301 c 128,-1,116
 1452 -212 1452 -212 1613 -82 c 1,75,-1
1778 87 m 1,117,-1
 1778 87 l 1,118,119
 1830 120 1830 120 1863 173 c 0,120,121
 1868 182 1868 182 1874 191 c 0,122,123
 2112 499 2112 499 2237 864 c 0,124,125
 2409 1365 2409 1365 2376 1887 c 0,126,127
 2363 2113 2363 2113 2315.5 2330 c 128,-1,128
 2268 2547 2268 2547 2180 2754 c 0,129,130
 2123 2888 2123 2888 2048 3009 c 128,-1,131
 1973 3130 1973 3130 1868 3229 c 1,132,133
 1588 3471 1588 3471 1313 3504 c 128,-1,134
 1038 3537 1038 3537 805 3399.5 c 128,-1,135
 572 3262 572 3262 417 2994.5 c 128,-1,136
 262 2727 262 2727 220 2368.5 c 128,-1,137
 178 2010 178 2010 286 1601 c 128,-1,138
 394 1192 394 1192 691 769 c 0,139,140
 704 752 704 752 715 734 c 0,141,142
 739 701 739 701 763 668 c 0,143,144
 792 622 792 622 849 631 c 0,145,146
 865 633 865 633 880 633 c 0,147,148
 889 633 889 633 900 633 c 0,149,150
 1065 646 1065 646 1205.5 594.5 c 128,-1,151
 1346 543 1346 543 1465 439 c 0,152,153
 1536 380 1536 380 1593 310.5 c 128,-1,154
 1650 241 1650 241 1703 169 c 0,155,156
 1712 158 1712 158 1720 144 c 0,157,158
 1729 127 1729 127 1742.5 111.5 c 128,-1,159
 1756 96 1756 96 1778 87 c 1,117,-1
EndSplineSet
Substitution2: "'salt' Stylistic Alternatives in Latin lookup 0 subtable" Q.salt
EndChar

StartChar: R
Encoding: 82 82 53
Width: 3111
GlyphClass: 2
Flags: W
LayerCount: 2
Fore
SplineSet
3491 2947 m 1,0,-1
 3491 2947 l 1,1,2
 3703 2809 3703 2809 3799.5 2602 c 128,-1,3
 3896 2395 3896 2395 3861 2164 c 0,4,5
 3815 1882 3815 1882 3656 1660 c 0,6,7
 3498 1440 3498 1440 3293 1266 c 0,8,9
 3124 1121 3124 1121 2941.5 995.5 c 128,-1,10
 2759 870 2759 870 2567 758 c 0,11,12
 2317 611 2317 611 2059 470 c 0,13,14
 1947 408 1947 408 1835 347 c 0,15,16
 1830 342 1830 342 1824 338 c 0,17,18
 1808 329 1808 329 1793 325 c 0,19,20
 1729 303 1729 303 1705 262 c 128,-1,21
 1681 221 1681 221 1680 167.5 c 128,-1,22
 1679 114 1679 114 1685 56 c 0,23,24
 1687 28 1687 28 1716 17 c 0,25,26
 1747 6 1747 6 1780 -1 c 0,27,28
 1925 -32 1925 -32 2070 -60 c 0,29,30
 2312 -111 2312 -111 2556 -161 c 0,31,32
 2825 -216 2825 -216 3093 -274 c 0,33,34
 3256 -309 3256 -309 3421 -344 c 0,35,36
 3467 -355 3467 -355 3511 -362 c 0,37,38
 3562 -373 3562 -373 3612 -384 c 0,39,40
 3650 -390 3650 -390 3687 -406 c 0,41,42
 3698 -412 3698 -412 3706 -422 c 128,-1,43
 3714 -432 3714 -432 3711 -447 c 0,44,45
 3709 -461 3709 -461 3701.5 -464 c 128,-1,46
 3694 -467 3694 -467 3685 -467 c 0,47,48
 3654 -469 3654 -469 3621 -463 c 0,49,50
 3483 -439 3483 -439 3344 -417 c 0,51,52
 3113 -381 3113 -381 2882 -333 c 0,53,54
 2510 -254 2510 -254 2138 -177 c 0,55,56
 2059 -161 2059 -161 1978 -144 c 0,57,58
 1859 -117 1859 -117 1736 -98 c 0,59,60
 1683 -87 1683 -87 1683 -144 c 0,61,62
 1681 -183 1681 -183 1681 -221 c 0,63,64
 1681 -241 1681 -241 1681 -260 c 0,65,66
 1674 -903 1674 -903 1668 -1547 c 0,67,68
 1668 -1554 1668 -1554 1668 -1563 c 0,69,70
 1668 -1587 1668 -1587 1665 -1611 c 0,71,72
 1661 -1671 1661 -1671 1599 -1662 c 0,73,74
 1536 -1653 1536 -1653 1529 -1596 c 0,75,76
 1525 -1567 1525 -1567 1527 -1539 c 0,77,78
 1527 -1534 1527 -1534 1527 -1532 c 0,79,80
 1525 -1193 1525 -1193 1520 -865 c 0,81,82
 1516 -533 1516 -533 1516 -190 c 0,83,84
 1516 -175 1516 -175 1516 -157 c 0,85,86
 1514 -128 1514 -128 1516 -100 c 0,87,88
 1518 -49 1518 -49 1470 -27 c 0,89,90
 1465 -25 1465 -25 1459 -23 c 0,91,92
 1421 -7 1421 -7 1386 15 c 0,93,94
 1283 83 1283 83 1338 180 c 0,95,96
 1379 248 1379 248 1448 287 c 0,97,98
 1489 309 1489 309 1503.5 344.5 c 128,-1,99
 1518 380 1518 380 1518 430 c 0,100,101
 1516 989 1516 989 1518 1548 c 0,102,103
 1518 1684 1518 1684 1518 1821 c 0,104,105
 1518 1827 1518 1827 1518 1836 c 0,106,107
 1518 1887 1518 1887 1520 1935 c 0,108,109
 1527 1997 1527 1997 1602 1986 c 0,110,111
 1674 1977 1674 1977 1676 1911 c 0,112,113
 1676 1871 1676 1871 1676 1834 c 0,114,115
 1676 1821 1676 1821 1676 1808 c 0,116,117
 1679 1502 1679 1502 1679 1198 c 0,118,119
 1679 897 1679 897 1681 595 c 0,120,121
 1681 593 1681 593 1681 591 c 0,122,123
 1681 540 1681 540 1683 492 c 0,124,125
 1687 444 1687 444 1734 461 c 0,126,127
 1749 468 1749 468 1764 477 c 0,128,129
 1767 477 1767 477 1767 477 c 1,130,131
 2039 622 2039 622 2306.5 778 c 128,-1,132
 2574 934 2574 934 2827 1112 c 0,133,134
 3001 1233 3001 1233 3159.5 1373 c 128,-1,135
 3318 1513 3318 1513 3447 1684 c 0,136,137
 3588 1867 3588 1867 3652 2094 c 0,138,139
 3694 2243 3694 2243 3674 2408 c 0,140,141
 3639 2659 3639 2659 3439 2833 c 0,142,143
 3344 2914 3344 2914 3234 2963 c 0,144,145
 2831 3152 2831 3152 2427.5 3156.5 c 128,-1,146
 2024 3161 2024 3161 1651 3025.5 c 128,-1,147
 1278 2890 1278 2890 968 2657 c 128,-1,148
 658 2424 658 2424 438 2135 c 1,149,150
 352 2036 352 2036 288 1920 c 0,151,152
 244 1847 244 1847 210 1770 c 128,-1,153
 176 1693 176 1693 165 1603 c 0,154,155
 163 1581 163 1581 148.5 1572 c 128,-1,156
 134 1563 134 1563 114 1566 c 0,157,158
 88 1566 88 1566 64 1574 c 0,159,160
 13 1592 13 1592 11 1645 c 0,161,162
 9 1715 9 1715 35 1779 c 0,163,164
 121 2017 121 2017 284 2204 c 0,165,166
 535 2498 535 2498 876 2734.5 c 128,-1,167
 1217 2971 1217 2971 1616 3108.5 c 128,-1,168
 2015 3246 2015 3246 2442 3243 c 128,-1,169
 2869 3240 2869 3240 3291 3057 c 0,170,171
 3395 3011 3395 3011 3491 2947 c 1,0,-1
EndSplineSet
Substitution2: "'salt' Stylistic Alternatives in Latin lookup 0 subtable" R.salt
EndChar

StartChar: S
Encoding: 83 83 54
Width: 3216
GlyphClass: 2
Flags: W
LayerCount: 2
Fore
SplineSet
4327 3757 m 1,0,-1
 4327 3757 l 1,1,2
 4620 3488 4620 3488 4501 3108 c 0,3,4
 4479 3042 4479 3042 4446 2980 c 0,5,6
 4385 2870 4385 2870 4306.5 2773.5 c 128,-1,7
 4228 2677 4228 2677 4140 2589 c 0,8,9
 4081 2527 4081 2527 4002 2547 c 0,10,11
 3980 2549 3980 2549 3973 2569 c 0,12,13
 3969 2589 3969 2589 3984 2602 c 0,14,15
 4127 2740 4127 2740 4235 2908 c 1,16,17
 4312 3020 4312 3020 4347 3150 c 0,18,19
 4433 3502 4433 3502 4154 3730 c 0,20,21
 4022 3834 4022 3834 3859 3876 c 0,22,23
 3705 3917 3705 3917 3550 3929.5 c 128,-1,24
 3395 3942 3395 3942 3238 3931 c 0,25,26
 2999 3917 2999 3917 2763.5 3875.5 c 128,-1,27
 2528 3834 2528 3834 2295 3777 c 0,28,29
 1991 3702 1991 3702 1698.5 3593 c 128,-1,30
 1406 3484 1406 3484 1131 3334 c 0,31,32
 865 3191 865 3191 638 2991 c 0,33,34
 436 2813 436 2813 306 2575 c 0,35,36
 139 2259 139 2259 334 1959 c 1,37,38
 458 1779 458 1779 629 1640 c 0,39,40
 895 1420 895 1420 1190 1244 c 0,41,42
 1439 1095 1439 1095 1687 950 c 0,43,44
 1852 855 1852 855 2015 758 c 0,45,46
 2132 690 2132 690 2244 617.5 c 128,-1,47
 2356 545 2356 545 2462 461 c 0,48,49
 2526 408 2526 408 2603 435 c 1,50,51
 2867 512 2867 512 3139 545 c 0,52,53
 3148 545 3148 545 3157 547 c 0,54,55
 3219 558 3219 558 3278 547 c 0,56,57
 3293 543 3293 543 3304 533 c 128,-1,58
 3315 523 3315 523 3315 503 c 256,59,60
 3315 483 3315 483 3303 473 c 128,-1,61
 3291 463 3291 463 3276 463 c 0,62,63
 3181 461 3181 461 3091 443.5 c 128,-1,64
 3001 426 3001 426 2913 404 c 0,65,66
 2842 386 2842 386 2774 373 c 0,67,68
 2765 371 2765 371 2757 369 c 0,69,70
 2724 364 2724 364 2692 353 c 128,-1,71
 2660 342 2660 342 2636 320 c 1,72,73
 2653 276 2653 276 2684 248 c 0,74,75
 2697 232 2697 232 2710 215 c 0,76,77
 2765 142 2765 142 2806 64 c 128,-1,78
 2847 -14 2847 -14 2867 -102 c 0,79,80
 2915 -329 2915 -329 2719 -452 c 0,81,82
 2653 -491 2653 -491 2581 -518 c 0,83,84
 2325 -610 2325 -610 2055 -595 c 0,85,86
 1949 -588 1949 -588 1857 -542 c 0,87,88
 1731 -476 1731 -476 1691.5 -357 c 128,-1,89
 1652 -238 1652 -238 1714 -111 c 0,90,91
 1756 -29 1756 -29 1824 30 c 0,92,93
 1910 107 1910 107 2007.5 167.5 c 128,-1,94
 2105 228 2105 228 2209 279 c 0,95,96
 2253 301 2253 301 2295 323 c 0,97,98
 2317 334 2317 334 2339 345 c 1,99,100
 2341 369 2341 369 2331 382 c 128,-1,101
 2321 395 2321 395 2308 404 c 0,102,103
 2303 406 2303 406 2299 411 c 0,104,105
 2121 547 2121 547 1927 659 c 0,106,107
 1692 798 1692 798 1454 934 c 0,108,109
 1355 991 1355 991 1256 1051 c 0,110,111
 913 1249 913 1249 596 1486 c 0,112,113
 400 1632 400 1632 242 1816 c 0,114,115
 165 1911 165 1911 112 2021 c 0,116,117
 0 2256 0 2256 90 2505 c 0,118,119
 136 2633 136 2633 213 2741.5 c 128,-1,120
 290 2850 290 2850 383 2947 c 0,121,122
 590 3161 590 3161 840 3312 c 0,123,124
 1256 3568 1256 3568 1718 3722 c 0,125,126
 2295 3915 2295 3915 2897 3997 c 0,127,128
 3106 4025 3106 4025 3316.5 4030.5 c 128,-1,129
 3527 4036 3527 4036 3736 4003 c 0,130,131
 3861 3986 3861 3986 3978.5 3950.5 c 128,-1,132
 4096 3915 4096 3915 4204 3849 c 0,133,134
 4270 3807 4270 3807 4327 3757 c 1,0,-1
2490 232 m 1,135,-1
 2490 232 l 1,136,137
 2455 268 2455 268 2409 243 c 1,138,139
 2292 191 2292 191 2183.5 126 c 128,-1,140
 2075 61 2075 61 1976 -21 c 0,141,142
 1923 -67 1923 -67 1888 -128 c 0,143,144
 1822 -254 1822 -254 1873.5 -361.5 c 128,-1,145
 1925 -469 1925 -469 2064 -494 c 0,146,147
 2097 -498 2097 -498 2123 -500 c 0,148,149
 2132 -500 2132 -500 2138 -500 c 0,150,151
 2350 -494 2350 -494 2523 -414 c 1,152,153
 2739 -322 2739 -322 2680 -95 c 0,154,155
 2655 -1 2655 -1 2605.5 79.5 c 128,-1,156
 2556 160 2556 160 2490 232 c 1,135,-1
EndSplineSet
Substitution2: "'salt' Stylistic Alternatives in Latin lookup 0 subtable" S.salt
EndChar

StartChar: T
Encoding: 84 84 55
Width: 2440
GlyphClass: 2
Flags: W
LayerCount: 2
Fore
SplineSet
4514 3299 m 1,0,-1
 4514 3299 l 1,1,2
 4600 3244 4600 3244 4572 3145 c 1,3,4
 4554 3097 4554 3097 4525 3055 c 0,5,6
 4477 2987 4477 2987 4411 2934 c 0,7,8
 4103 2672 4103 2672 3703 2611 c 0,9,10
 3615 2597 3615 2597 3527 2580 c 0,11,12
 3487 2571 3487 2571 3452 2584 c 0,13,14
 3430 2593 3430 2593 3430 2613 c 0,15,16
 3432 2622 3432 2622 3436.5 2630.5 c 128,-1,17
 3441 2639 3441 2639 3447 2641 c 0,18,19
 3476 2657 3476 2657 3507 2663 c 0,20,21
 3546 2670 3546 2670 3586 2677 c 0,22,23
 3615 2679 3615 2679 3645 2685 c 0,24,25
 3843 2721 3843 2721 4008 2817.5 c 128,-1,26
 4173 2914 4173 2914 4314 3057 c 0,27,28
 4356 3097 4356 3097 4378 3152 c 0,29,30
 4402 3218 4402 3218 4341 3246 c 1,31,32
 4261 3275 4261 3275 4178 3277 c 0,33,34
 4074 3277 4074 3277 3973 3277 c 0,35,36
 3929 3277 3929 3277 3885 3277 c 0,37,38
 3623 3277 3623 3277 3363.5 3249.5 c 128,-1,39
 3104 3222 3104 3222 2845 3185 c 0,40,41
 2433 3132 2433 3132 2024 3057 c 1,42,43
 2026 3002 2026 3002 2026 2947 c 0,44,45
 2026 2250 2026 2250 2026 1555 c 0,46,47
 2026 1326 2026 1326 2026 1097 c 1,48,49
 2026 1097 2026 1097 2026 1097 c 1,50,51
 2026 873 2026 873 2026 650 c 0,52,53
 2026 6 2026 6 2026 -639 c 0,54,55
 2026 -810 2026 -810 2020 -982 c 0,56,57
 2020 -1074 2020 -1074 1932 -1059 c 0,58,59
 1888 -1052 1888 -1052 1881 -1011 c 0,60,61
 1881 -993 1881 -993 1879 -975 c 0,62,63
 1872 -892 1872 -892 1872 -806 c 0,64,65
 1870 -252 1870 -252 1870 305 c 0,66,67
 1870 1667 1870 1667 1870 3029 c 1,68,69
 1866 3026 1866 3026 1861 3026 c 0,70,71
 1848 3024 1848 3024 1837 3022 c 0,72,73
 1511 2958 1511 2958 1192 2870 c 128,-1,74
 873 2782 873 2782 563 2663 c 0,75,76
 453 2622 453 2622 345 2571 c 0,77,78
 312 2556 312 2556 282 2542 c 0,79,80
 222 2520 222 2520 187 2463 c 0,81,82
 163 2428 163 2428 114.5 2427 c 128,-1,83
 66 2426 66 2426 29 2454 c 1,84,85
 0 2481 0 2481 22 2512 c 0,86,87
 46 2545 46 2545 80 2568 c 128,-1,88
 114 2591 114 2591 152 2611 c 0,89,90
 341 2707 341 2707 537 2778 c 0,91,92
 1036 2960 1036 2960 1553 3073 c 0,93,94
 1712 3106 1712 3106 1870 3136 c 1,95,96
 1872 3169 1872 3169 1874 3200 c 0,97,98
 1881 3242 1881 3242 1915 3258.5 c 128,-1,99
 1949 3275 1949 3275 1991 3255 c 0,100,101
 2022 3238 2022 3238 2020 3202 c 0,102,103
 2020 3183 2020 3183 2022 3163 c 1,104,105
 2402 3229 2402 3229 2785 3282 c 0,106,107
 3183 3339 3183 3339 3584 3370 c 0,108,109
 3896 3392 3896 3392 4209 3376 c 0,110,111
 4310 3370 4310 3370 4409 3345 c 0,112,113
 4466 3332 4466 3332 4514 3299 c 1,0,-1
EndSplineSet
Substitution2: "'salt' Stylistic Alternatives in Latin lookup 0 subtable" T.salt
EndChar

StartChar: U
Encoding: 85 85 56
Width: 3115
GlyphClass: 2
Flags: W
LayerCount: 2
Fore
SplineSet
3067 3238 m 1,0,-1
 3067 3238 l 1,1,2
 3111 3227 3111 3227 3113 3183 c 0,3,4
 3115 3143 3115 3143 3113 3106 c 0,5,6
 3102 2936 3102 2936 3091 2767 c 0,7,8
 3073 2512 3073 2512 3056 2256 c 0,9,10
 3036 1931 3036 1931 3018 1607 c 0,11,12
 2996 1200 2996 1200 2979 793 c 0,13,14
 2970 578 2970 578 2968 362 c 0,15,16
 2963 140 2963 140 2957 -80 c 0,17,18
 2944 -432 2944 -432 2948 -786 c 0,19,20
 2952 -881 2952 -881 2871 -870 c 0,21,22
 2818 -863 2818 -863 2809 -813 c 0,23,24
 2805 -788 2805 -788 2805 -762 c 0,25,26
 2803 -601 2803 -601 2801 -441 c 0,27,28
 2790 -58 2790 -58 2790 323 c 1,29,30
 2794 635 2794 635 2809 947 c 0,31,32
 2814 1068 2814 1068 2820 1189 c 0,33,34
 2825 1321 2825 1321 2831 1453 c 0,35,36
 2836 1537 2836 1537 2838 1621 c 0,37,38
 2838 1623 2838 1623 2838 1625 c 0,39,40
 2847 1691 2847 1691 2827 1755 c 1,41,42
 2809 1695 2809 1695 2794 1638 c 0,43,44
 2699 1299 2699 1299 2583 967 c 0,45,46
 2477 672 2477 672 2350.5 388.5 c 128,-1,47
 2224 105 2224 105 2066 -164 c 0,48,49
 1958 -346 1958 -346 1831.5 -512 c 128,-1,50
 1705 -678 1705 -678 1553 -826 c 0,51,52
 1415 -964 1415 -964 1250 -1066 c 0,53,54
 1085 -1167 1085 -1167 891 -1176 c 0,55,56
 708 -1184 708 -1184 566.5 -1108.5 c 128,-1,57
 425 -1033 425 -1033 319 -883 c 0,58,59
 194 -700 194 -700 130 -487 c 0,60,61
 59 -265 59 -265 30.5 -37 c 128,-1,62
 2 191 2 191 2 422 c 0,63,64
 0 1044 0 1044 158 1640 c 0,65,66
 200 1792 200 1792 253 1940.5 c 128,-1,67
 306 2089 306 2089 378 2230 c 0,68,69
 427 2325 427 2325 497 2406 c 0,70,71
 570 2487 570 2487 680 2468 c 0,72,73
 689 2465 689 2465 697.5 2461 c 128,-1,74
 706 2457 706 2457 708 2446 c 0,75,76
 711 2435 711 2435 709.5 2426 c 128,-1,77
 708 2417 708 2417 702 2413 c 0,78,79
 623 2353 623 2353 574.5 2273 c 128,-1,80
 526 2193 526 2193 491 2107 c 0,81,82
 392 1882 392 1882 328 1648 c 128,-1,83
 264 1414 264 1414 224 1174 c 0,84,85
 132 613 132 613 187 43 c 1,86,87
 213 -278 213 -278 332 -579 c 1,88,89
 398 -758 398 -758 519 -903 c 0,90,91
 579 -975 579 -975 656 -1024 c 0,92,93
 807 -1116 807 -1116 975 -1066 c 1,94,95
 1096 -1024 1096 -1024 1197 -949 c 0,96,97
 1338 -848 1338 -848 1457.5 -723.5 c 128,-1,98
 1577 -599 1577 -599 1681 -461 c 0,99,100
 1837 -252 1837 -252 1963.5 -25 c 128,-1,101
 2090 202 2090 202 2198 441 c 0,102,103
 2409 921 2409 921 2557.5 1422.5 c 128,-1,104
 2706 1924 2706 1924 2805 2441 c 0,105,106
 2849 2670 2849 2670 2889 2897 c 0,107,108
 2906 3000 2906 3000 2924 3103 c 0,109,110
 2926 3114 2926 3114 2928 3125 c 0,111,112
 2930 3139 2930 3139 2933 3152 c 0,113,114
 2952 3271 2952 3271 3067 3238 c 1,0,-1
2825 2069 m 1,115,-1
 2825 2069 l 1,116,117
 2823 2069 2823 2069 2823 2069 c 129,-1,118
 2823 2069 2823 2069 2823 2068 c 128,-1,119
 2823 2067 2823 2067 2824 2066 c 128,-1,120
 2825 2065 2825 2065 2827 2065 c 1,121,122
 2825 2067 2825 2067 2825 2067 c 257,123,124
 2825 2067 2825 2067 2825 2069 c 1,115,-1
2829 2069 m 1,125,-1
 2829 2069 l 1,126,127
 2829 2072 2829 2072 2829 2074 c 1,128,129
 2829 2072 2829 2072 2829 2072 c 2,130,131
 2829 2069 2829 2069 2829 2069 c 257,132,133
 2829 2069 2829 2069 2829 2069 c 257,134,135
 2829 2069 2829 2069 2829 2069 c 1,125,-1
EndSplineSet
Substitution2: "'salt' Stylistic Alternatives in Latin lookup 0 subtable" U.salt
EndChar

StartChar: V
Encoding: 86 86 57
Width: 1725
GlyphClass: 2
Flags: W
LayerCount: 2
Fore
SplineSet
2449 3108 m 1,0,-1
 2449 3108 l 1,1,2
 2506 3092 2506 3092 2482 3042 c 1,3,4
 2103 2408 2103 2408 1814 1729.5 c 128,-1,5
 1525 1051 1525 1051 1285 349 c 0,6,7
 1129 -111 1129 -111 994 -577 c 0,8,9
 961 -689 961 -689 928 -804 c 0,10,11
 906 -874 906 -874 882 -942 c 0,12,13
 876 -967 876 -967 867 -991 c 0,14,15
 836 -1079 836 -1079 741 -1068 c 0,16,17
 667 -1063 667 -1063 640 -997 c 0,18,19
 612 -923 612 -923 598 -848 c 0,20,21
 546 -575 546 -575 502 -300 c 0,22,23
 392 400 392 400 286 1099 c 0,24,25
 253 1326 253 1326 222 1550 c 0,26,27
 187 1790 187 1790 152 2030 c 0,28,29
 121 2221 121 2221 88 2410 c 0,30,31
 73 2501 73 2501 57 2589 c 0,32,33
 53 2606 53 2606 51 2624 c 0,34,35
 51 2630 51 2630 48 2639 c 1,36,37
 48 2639 48 2639 46 2639 c 0,38,39
 44 2655 44 2655 44 2670 c 0,40,41
 40 2705 40 2705 37 2740 c 1,42,43
 40 2784 40 2784 84 2789 c 0,44,45
 178 2802 178 2802 198 2707 c 0,46,47
 198 2705 198 2705 198 2703 c 0,48,49
 242 2516 242 2516 275 2329 c 0,50,51
 332 1966 332 1966 387 1605 c 0,52,53
 389 1592 389 1592 392 1579 c 0,54,55
 444 1227 444 1227 497 877 c 0,56,57
 521 705 521 705 548 534 c 0,58,59
 557 472 557 472 565 411 c 0,60,61
 594 230 594 230 620 50 c 0,62,63
 664 -225 664 -225 708 -502 c 0,64,65
 722 -588 722 -588 735 -674 c 0,66,67
 737 -681 737 -681 739 -687 c 0,68,69
 739 -694 739 -694 741 -700 c 0,70,71
 744 -718 744 -718 759 -716 c 0,72,73
 766 -714 766 -714 771.5 -711.5 c 128,-1,74
 777 -709 777 -709 779 -705 c 0,75,76
 799 -645 799 -645 816 -586 c 0,77,78
 1135 534 1135 534 1582 1603 c 0,79,80
 1736 1970 1736 1970 1918.5 2322 c 128,-1,81
 2101 2674 2101 2674 2308 3015 c 0,82,83
 2325 3046 2325 3046 2347 3075 c 0,84,85
 2387 3121 2387 3121 2449 3108 c 1,0,-1
EndSplineSet
Substitution2: "'salt' Stylistic Alternatives in Latin lookup 0 subtable" V.salt
EndChar

StartChar: W
Encoding: 87 87 58
Width: 2851
GlyphClass: 2
Flags: W
LayerCount: 2
Fore
SplineSet
3698 3829 m 0,1,2
 3104 2919 3104 2919 2794 1869 c 0,3,4
 2662 1431 2662 1431 2557.5 988 c 128,-1,5
 2453 545 2453 545 2365 98 c 0,6,7
 2266 -392 2266 -392 2165 -883 c 0,8,9
 2123 -1081 2123 -1081 2055 -1272 c 0,10,11
 2035 -1325 2035 -1325 2009 -1374 c 0,12,13
 2004 -1387 2004 -1387 1998 -1398 c 0,14,15
 1976 -1442 1976 -1442 1934 -1464 c 128,-1,16
 1892 -1486 1892 -1486 1844 -1486 c 2,17,-1
 1839 -1486 l 2,18,19
 1742 -1484 1742 -1484 1683 -1411 c 0,20,21
 1617 -1323 1617 -1323 1575 -1222 c 0,22,23
 1494 -1011 1494 -1011 1452 -788 c 0,24,25
 1377 -423 1377 -423 1344 -54 c 0,26,27
 1287 518 1287 518 1258 1095 c 0,28,29
 1258 1108 1258 1108 1254 1126 c 0,30,31
 1252 1137 1252 1137 1250 1150 c 1,32,33
 1230 1123 1230 1123 1222 1099 c 128,-1,34
 1214 1075 1214 1075 1210 1051 c 0,35,36
 1208 1042 1208 1042 1206 1033 c 0,37,38
 1151 793 1151 793 1091.5 553.5 c 128,-1,39
 1032 314 1032 314 957 78 c 0,40,41
 902 -102 902 -102 818 -271 c 0,42,43
 774 -355 774 -355 715 -430 c 0,44,45
 667 -487 667 -487 592 -505.5 c 128,-1,46
 517 -524 517 -524 444.5 -492.5 c 128,-1,47
 372 -461 372 -461 330 -368 c 1,48,49
 282 -247 282 -247 251 -122 c 0,50,51
 196 116 196 116 165 358 c 0,52,53
 86 914 86 914 57 1478 c 0,54,55
 40 1841 40 1841 73 2204 c 0,56,57
 77 2254 77 2254 90 2303 c 1,58,59
 110 2355 110 2355 169 2351 c 1,60,61
 233 2351 233 2351 233 2289 c 0,62,63
 231 2142 231 2142 222 1997 c 0,64,65
 211 1766 211 1766 220 1537 c 128,-1,66
 229 1308 229 1308 249 1077 c 0,67,68
 273 804 273 804 308 532 c 0,69,70
 328 353 328 353 356.5 176 c 128,-1,71
 385 -1 385 -1 431 -175 c 0,72,73
 455 -263 455 -263 493 -344 c 0,74,75
 515 -395 515 -395 536 -396 c 128,-1,76
 557 -397 557 -397 590 -351 c 0,77,78
 618 -311 618 -311 642 -267 c 0,79,80
 689 -186 689 -186 722 -101 c 128,-1,81
 755 -16 755 -16 783 72 c 0,82,83
 860 307 860 307 920.5 548 c 128,-1,84
 981 789 981 789 1036 1033 c 0,85,86
 1045 1073 1045 1073 1054 1110 c 0,87,88
 1096 1282 1096 1282 1144 1453 c 0,89,90
 1153 1491 1153 1491 1164 1526 c 0,91,92
 1179 1581 1179 1581 1203 1634 c 0,93,94
 1230 1687 1230 1687 1294 1689 c 0,95,96
 1346 1693 1346 1693 1373.5 1673.5 c 128,-1,97
 1401 1654 1401 1654 1408 1599 c 0,98,99
 1419 1511 1419 1511 1421 1420 c 0,100,101
 1430 967 1430 967 1465 514 c 0,102,103
 1470 470 1470 470 1472 426 c 0,104,105
 1489 197 1489 197 1511 -33 c 128,-1,106
 1533 -263 1533 -263 1569 -489 c 0,107,108
 1593 -652 1593 -652 1628 -811.5 c 128,-1,109
 1663 -971 1663 -971 1716 -1127 c 0,110,111
 1716 -1129 1716 -1129 1718 -1132 c 0,112,113
 1736 -1189 1736 -1189 1760 -1243 c 128,-1,114
 1784 -1297 1784 -1297 1824 -1343 c 1,115,116
 1846 -1338 1846 -1338 1854.5 -1325 c 128,-1,117
 1863 -1312 1863 -1312 1868 -1299 c 0,118,119
 1870 -1292 1870 -1292 1872 -1288 c 0,120,121
 1947 -1092 1947 -1092 1989 -887 c 0,122,123
 2055 -568 2055 -568 2119 -249 c 0,124,125
 2185 76 2185 76 2251 404 c 0,126,127
 2345 866 2345 866 2461.5 1322.5 c 128,-1,128
 2578 1779 2578 1779 2728 2226 c 0,129,130
 3058 3202 3058 3202 3648 4041 c 1,131,132
 3731 4135 3731 4135 3773 4071.5 c 128,-1,0
 3815 4008 3815 4008 3698 3829 c 0,1,2
EndSplineSet
Substitution2: "'salt' Stylistic Alternatives in Latin lookup 0 subtable" W.salt
EndChar

StartChar: X
Encoding: 88 88 59
Width: 1821
GlyphClass: 2
Flags: W
LayerCount: 2
Fore
SplineSet
3344 -1248 m 1,0,-1
 3344 -1248 l 1,1,2
 3353 -1253 3353 -1253 3361.5 -1259.5 c 128,-1,3
 3370 -1266 3370 -1266 3375 -1272 c 0,4,5
 3381 -1286 3381 -1286 3374.5 -1295.5 c 128,-1,6
 3368 -1305 3368 -1305 3357 -1310 c 0,7,8
 3203 -1387 3203 -1387 3036 -1408 c 128,-1,9
 2869 -1429 2869 -1429 2684 -1385 c 0,10,11
 2539 -1349 2539 -1349 2407 -1279 c 128,-1,12
 2275 -1209 2275 -1209 2154 -1116 c 0,13,14
 1907 -927 1907 -927 1710.5 -699.5 c 128,-1,15
 1514 -472 1514 -472 1357 -210 c 0,16,17
 1254 -40 1254 -40 1169.5 136 c 128,-1,18
 1085 312 1085 312 1010 492 c 0,19,20
 994 529 994 529 977 565 c 0,21,22
 972 571 972 571 964 578 c 0,23,24
 959 580 959 580 957 584 c 1,25,26
 920 556 920 556 904 514 c 0,27,28
 898 501 898 501 891 488 c 0,29,30
 792 309 792 309 693 131 c 0,31,32
 543 -137 543 -137 394 -403 c 0,33,34
 328 -522 328 -522 257 -637 c 0,35,36
 216 -703 216 -703 176 -771 c 0,37,38
 161 -799 161 -799 136.5 -818 c 128,-1,39
 112 -837 112 -837 73 -837 c 0,40,41
 35 -835 35 -835 17.5 -813 c 128,-1,42
 0 -791 0 -791 11 -758 c 0,43,44
 40 -692 40 -692 75 -630 c 0,45,46
 158 -478 158 -478 242 -326 c 0,47,48
 519 177 519 177 803 677 c 0,49,50
 847 749 847 749 853.5 824 c 128,-1,51
 860 899 860 899 825 991 c 0,52,53
 730 1238 730 1238 655.5 1487.5 c 128,-1,54
 581 1737 581 1737 517 1988 c 0,55,56
 409 2421 409 2421 343 2855 c 0,57,58
 343 2859 343 2859 341 2861 c 0,59,60
 341 2872 341 2872 339 2881 c 0,61,62
 328 2960 328 2960 387 2960 c 1,63,64
 469 2971 469 2971 491 2881 c 0,65,66
 526 2740 526 2740 554 2600 c 0,67,68
 565 2547 565 2547 574 2494 c 0,69,70
 618 2267 618 2267 675 2039 c 1,71,72
 803 1563 803 1563 961 1093 c 0,73,74
 966 1084 966 1084 971.5 1074 c 128,-1,75
 977 1064 977 1064 983 1062 c 0,76,77
 999 1055 999 1055 1006.5 1061.5 c 128,-1,78
 1014 1068 1014 1068 1019 1079 c 2,79,80
 1019 1079 1019 1079 1021 1082 c 0,81,82
 1041 1119 1041 1119 1060 1154 c 0,83,84
 1129 1273 1129 1273 1192 1394 c 0,85,86
 1386 1766 1386 1766 1582 2140 c 0,87,88
 1760 2483 1760 2483 1938 2826 c 0,89,90
 1993 2932 1993 2932 2050 3035 c 0,91,92
 2088 3103 2088 3103 2125 3172 c 0,93,94
 2138 3200 2138 3200 2160 3217.5 c 128,-1,95
 2182 3235 2182 3235 2220 3233 c 0,96,97
 2251 3229 2251 3229 2266 3209 c 128,-1,98
 2281 3189 2281 3189 2273 3163 c 0,99,100
 2262 3139 2262 3139 2251 3117 c 0,101,102
 2244 3101 2244 3101 2237 3088 c 0,103,104
 1982 2531 1982 2531 1701.5 1990 c 128,-1,105
 1421 1449 1421 1449 1129 917 c 0,106,107
 1124 908 1124 908 1120 901 c 0,108,109
 1111 881 1111 881 1098 864 c 0,110,111
 1076 833 1076 833 1077 798 c 128,-1,112
 1078 763 1078 763 1093 723 c 0,113,114
 1186 485 1186 485 1292.5 253 c 128,-1,115
 1399 21 1399 21 1533 -201 c 0,116,117
 1804 -652 1804 -652 2209 -995 c 0,118,119
 2400 -1158 2400 -1158 2629 -1257 c 0,120,121
 2776 -1319 2776 -1319 2916 -1325.5 c 128,-1,122
 3056 -1332 3056 -1332 3188 -1275 c 0,123,124
 3192 -1272 3192 -1272 3197 -1270 c 0,125,126
 3230 -1255 3230 -1255 3266 -1246 c 128,-1,127
 3302 -1237 3302 -1237 3344 -1248 c 1,0,-1
EndSplineSet
Substitution2: "'salt' Stylistic Alternatives in Latin lookup 0 subtable" X.salt
EndChar

StartChar: Y
Encoding: 89 89 60
Width: 2778
GlyphClass: 2
Flags: W
LayerCount: 2
Fore
SplineSet
2247.5 -79 m 128,-1,1
 2189 -223 2189 -223 2112 -357 c 0,2,3
 1866 -769 1866 -769 1616 -985.5 c 128,-1,4
 1366 -1202 1366 -1202 1144 -1260.5 c 128,-1,5
 922 -1319 922 -1319 756 -1256 c 128,-1,6
 590 -1193 590 -1193 508.5 -1047 c 128,-1,7
 427 -901 427 -901 462 -709.5 c 128,-1,8
 497 -518 497 -518 675.5 -319 c 128,-1,9
 854 -120 854 -120 1204.5 49.5 c 128,-1,10
 1555 219 1555 219 2110 320 c 1,11,12
 2163 336 2163 336 2188 370 c 128,-1,13
 2213 404 2213 404 2226 455 c 0,14,15
 2345 919 2345 919 2413 1401 c 1,16,17
 2464 1792 2464 1792 2486 2193 c 0,18,19
 2488 2230 2488 2230 2483.5 2236.5 c 128,-1,20
 2479 2243 2479 2243 2471.5 2230 c 128,-1,21
 2464 2217 2464 2217 2456.5 2195 c 128,-1,22
 2449 2173 2449 2173 2442 2153 c 0,23,24
 2389 1975 2389 1975 2293.5 1760.5 c 128,-1,25
 2198 1546 2198 1546 2072.5 1334.5 c 128,-1,26
 1947 1123 1947 1123 1797.5 954 c 128,-1,27
 1648 785 1648 785 1487 694 c 1,28,29
 1267 578 1267 578 1061.5 586.5 c 128,-1,30
 856 595 856 595 679 705 c 128,-1,31
 502 815 502 815 370 1000 c 128,-1,32
 238 1185 238 1185 167 1420 c 0,33,34
 42 1838 42 1838 15 2261 c 0,35,36
 0 2448 0 2448 2 2632.5 c 128,-1,37
 4 2817 4 2817 29 2998 c 0,38,39
 51 3172 51 3172 108 3330 c 0,40,41
 119 3363 119 3363 142 3383 c 128,-1,42
 165 3403 165 3403 207 3403 c 0,43,44
 244 3400 244 3400 263 3380.5 c 128,-1,45
 282 3361 282 3361 273 3328 c 0,46,47
 211 3117 211 3117 189 2894 c 0,48,49
 147 2454 147 2454 218 1999 c 0,50,51
 238 1860 238 1860 265.5 1719.5 c 128,-1,52
 293 1579 293 1579 337 1440 c 0,53,54
 387 1282 387 1282 472 1131 c 128,-1,55
 557 980 557 980 674.5 867 c 128,-1,56
 792 754 792 754 939.5 712 c 128,-1,57
 1087 670 1087 670 1265 732 c 1,58,59
 1437 800 1437 800 1588.5 956 c 128,-1,60
 1740 1112 1740 1112 1867.5 1324.5 c 128,-1,61
 1995 1537 1995 1537 2094 1770 c 128,-1,62
 2193 2003 2193 2003 2261.5 2221 c 128,-1,63
 2330 2439 2330 2439 2365 2606 c 0,64,65
 2398 2767 2398 2767 2431 2925 c 0,66,67
 2457 3040 2457 3040 2482 3156 c 0,68,69
 2488 3191 2488 3191 2508 3213 c 128,-1,70
 2528 3235 2528 3235 2567 3238 c 0,71,72
 2636 3240 2636 3240 2662 3212.5 c 128,-1,73
 2688 3185 2688 3185 2691 3134 c 0,74,75
 2708 2936 2708 2936 2702 2743 c 0,76,77
 2688 2362 2688 2362 2660.5 1983.5 c 128,-1,78
 2633 1605 2633 1605 2578 1233 c 0,79,80
 2523 888 2523 888 2444 549 c 0,81,82
 2402 375 2402 375 2354 220 c 128,-1,0
 2306 65 2306 65 2247.5 -79 c 128,-1,1
2125 131 m 1,83,-1
 2125 131 l 1,84,85
 2132 149 2132 149 2132 166 c 0,86,87
 2132 180 2132 180 2124 185.5 c 128,-1,88
 2116 191 2116 191 2105 188 c 0,89,90
 2083 188 2083 188 2046 180.5 c 128,-1,91
 2009 173 2009 173 1973 166 c 0,92,93
 1949 162 1949 162 1932 158 c 0,94,95
 1639 98 1639 98 1366 -39.5 c 128,-1,96
 1093 -177 1093 -177 894 -355 c 128,-1,97
 695 -533 695 -533 627 -711 c 1,98,99
 570 -876 570 -876 626 -965.5 c 128,-1,100
 682 -1055 682 -1055 817.5 -1068 c 128,-1,101
 953 -1081 953 -1081 1132 -1015 c 128,-1,102
 1311 -949 1311 -949 1500.5 -800.5 c 128,-1,103
 1690 -652 1690 -652 1855 -420 c 128,-1,104
 2020 -188 2020 -188 2125 131 c 1,83,-1
EndSplineSet
Substitution2: "'salt' Stylistic Alternatives in Latin lookup 0 subtable" Y.salt
EndChar

StartChar: Z
Encoding: 90 90 61
Width: 2340
GlyphClass: 2
Flags: W
LayerCount: 2
Fore
SplineSet
3610 -406 m 1,0,-1
 3610 -406 l 1,1,2
 3617 -412 3617 -412 3619 -421 c 128,-1,3
 3621 -430 3621 -430 3623 -439 c 0,4,5
 3623 -443 3623 -443 3617.5 -448.5 c 128,-1,6
 3612 -454 3612 -454 3608 -458 c 0,7,8
 3590 -467 3590 -467 3573 -469 c 0,9,10
 3395 -463 3395 -463 3216 -456 c 0,11,12
 3069 -450 3069 -450 2926 -424.5 c 128,-1,13
 2783 -399 2783 -399 2640 -368 c 0,14,15
 2614 -362 2614 -362 2587 -357 c 0,16,17
 2394 -313 2394 -313 2198 -285 c 0,18,19
 1712 -219 1712 -219 1258 -406 c 0,20,21
 821 -584 821 -584 418 -832 c 0,22,23
 341 -881 341 -881 264 -929 c 0,24,25
 238 -945 238 -945 211 -960 c 0,26,27
 130 -1006 130 -1006 40 -982 c 0,28,29
 15 -975 15 -975 4 -954.5 c 128,-1,30
 -7 -934 -7 -934 4 -912 c 0,31,32
 44 -839 44 -839 90 -771 c 0,33,34
 227 -579 227 -579 363 -388 c 0,35,36
 506 -190 506 -190 647 8 c 0,37,38
 836 276 836 276 1025 545 c 0,39,40
 1390 1066 1390 1066 1762 1581 c 0,41,42
 2000 1909 2000 1909 2248 2230 c 0,43,44
 2374 2395 2374 2395 2499 2560 c 0,45,46
 2572 2659 2572 2659 2638 2760 c 0,47,48
 2680 2817 2680 2817 2697 2886 c 0,49,50
 2717 2963 2717 2963 2644 2987 c 0,51,52
 2596 3000 2596 3000 2545 3004 c 0,53,54
 2462 3013 2462 3013 2377 3008.5 c 128,-1,55
 2292 3004 2292 3004 2209 2998 c 0,56,57
 2198 2996 2198 2996 2189 2996 c 0,58,59
 2037 2982 2037 2982 1885 2969 c 0,60,61
 1674 2952 1674 2952 1463 2936 c 1,62,63
 1379 2923 1379 2923 1298 2941 c 0,64,65
 1287 2945 1287 2945 1277 2952.5 c 128,-1,66
 1267 2960 1267 2960 1267 2976 c 0,67,68
 1269 2991 1269 2991 1278 3000 c 128,-1,69
 1287 3009 1287 3009 1300 3011 c 0,70,71
 1329 3020 1329 3020 1362 3022 c 0,72,73
 1815 3053 1815 3053 2264 3101 c 0,74,75
 2431 3117 2431 3117 2596 3106 c 0,76,77
 2706 3101 2706 3101 2805 3055 c 0,78,79
 2917 2998 2917 2998 2889 2875 c 0,80,81
 2867 2780 2867 2780 2809 2703 c 1,82,83
 2682 2518 2682 2518 2545 2340 c 0,84,85
 1877 1469 1877 1469 1252 567 c 0,86,87
 986 186 986 186 715 -192 c 0,88,89
 585 -377 585 -377 455 -560 c 0,90,91
 431 -593 431 -593 409 -630 c 0,92,93
 396 -645 396 -645 385 -663 c 1,94,95
 409 -672 409 -672 425.5 -665.5 c 128,-1,96
 442 -659 442 -659 455 -648 c 0,97,98
 464 -641 464 -641 471 -637 c 0,99,100
 796 -458 796 -458 1140 -318 c 0,101,102
 1399 -212 1399 -212 1668.5 -180 c 128,-1,103
 1938 -148 1938 -148 2215 -177 c 0,104,105
 2345 -192 2345 -192 2472.5 -216.5 c 128,-1,106
 2600 -241 2600 -241 2728 -269 c 0,107,108
 2798 -282 2798 -282 2869 -298 c 0,109,110
 3194 -370 3194 -370 3524 -388 c 0,111,112
 3533 -388 3533 -388 3540 -388 c 0,113,114
 3560 -388 3560 -388 3577.5 -391.5 c 128,-1,115
 3595 -395 3595 -395 3610 -406 c 1,0,-1
EndSplineSet
Substitution2: "'salt' Stylistic Alternatives in Latin lookup 0 subtable" Z.salt
EndChar

StartChar: bracketleft
Encoding: 91 91 62
Width: 592
GlyphClass: 2
Flags: W
LayerCount: 2
Fore
SplineSet
348 2762 m 1,0,-1
 348 2762 l 1,1,2
 317 2762 317 2762 315 2725 c 0,3,4
 233 1409 233 1409 266 92 c 0,5,6
 268 50 268 50 271.5 30 c 128,-1,7
 275 10 275 10 291.5 0 c 128,-1,8
 308 -10 308 -10 343 -21 c 0,9,10
 345 -21 345 -21 345 -21 c 1,11,12
 400 -40 400 -40 453 -62 c 0,13,14
 460 -65 460 -65 464.5 -74.5 c 128,-1,15
 469 -84 469 -84 469 -93 c 0,16,17
 469 -100 469 -100 463.5 -107.5 c 128,-1,18
 458 -115 458 -115 451 -120 c 0,19,20
 431 -131 431 -131 409 -128 c 0,21,22
 306 -106 306 -106 200 -82 c 0,23,24
 134 -69 134 -69 130 15 c 0,25,26
 128 32 128 32 128 52 c 0,27,28
 123 89 123 89 123 129 c 0,29,30
 110 763 110 763 125.5 1391 c 128,-1,31
 141 2019 141 2019 167 2648 c 0,32,33
 167 2659 167 2659 167 2670 c 0,34,35
 167 2685 167 2685 169 2701 c 0,36,37
 174 2780 174 2780 204.5 2816.5 c 128,-1,38
 235 2853 235 2853 301 2855 c 0,39,40
 339 2857 339 2857 375 2856 c 128,-1,41
 411 2855 411 2855 449 2842 c 0,42,43
 462 2837 462 2837 472 2827 c 128,-1,44
 482 2817 482 2817 480 2798 c 0,45,46
 480 2780 480 2780 469 2771 c 128,-1,47
 458 2762 458 2762 442 2762 c 0,48,49
 416 2760 416 2760 389 2762 c 0,50,51
 370 2762 370 2762 348 2762 c 1,0,-1
EndSplineSet
EndChar

StartChar: backslash
Encoding: 92 92 63
Width: 1234
GlyphClass: 2
Flags: W
LayerCount: 2
Fore
SplineSet
1225 -128 m 1,0,1
 1206 -161 1206 -161 1168 -155 c 0,2,3
 1137 -150 1137 -150 1126 -109 c 0,4,5
 1096 8 1096 8 1052 116 c 0,6,7
 1045 127 1045 127 1041 140 c 0,8,9
 871 582 871 582 693 1017.5 c 128,-1,10
 515 1453 515 1453 334 1887 c 0,11,12
 330 1898 330 1898 326 1911 c 0,13,14
 220 2166 220 2166 117 2428 c 0,15,16
 106 2457 106 2457 95 2485 c 0,17,18
 75 2538 75 2538 87 2566.5 c 128,-1,19
 99 2595 99 2595 139 2591 c 1,20,21
 167 2584 167 2584 180 2545 c 0,22,23
 205 2483 205 2483 231 2419 c 0,24,25
 326 2182 326 2182 427 1951 c 0,26,27
 728 1262 728 1262 1005 556 c 0,28,29
 1025 503 1025 503 1045 450 c 0,30,31
 1131 243 1131 243 1201 30 c 0,32,33
 1212 -7 1212 -7 1223 -45 c 0,34,35
 1228 -58 1228 -58 1232 -71 c 1,36,-1
 1232 -84 l 2,37,38
 1232 -91 1232 -91 1232 -95 c 0,39,40
 1232 -115 1232 -115 1225 -128 c 1,41,-1
 1225 -128 l 1,0,1
EndSplineSet
EndChar

StartChar: bracketright
Encoding: 93 93 64
Width: 592
GlyphClass: 2
Flags: W
LayerCount: 2
Fore
SplineSet
249 -36 m 1,0,-1
 249 -36 l 1,1,2
 279 -34 279 -34 284 1 c 0,3,4
 365 1317 365 1317 330 2637 c 0,5,6
 330 2679 330 2679 325.5 2698.5 c 128,-1,7
 321 2718 321 2718 305.5 2727 c 128,-1,8
 290 2736 290 2736 255 2747 c 0,9,10
 253 2749 253 2749 251 2749 c 0,11,12
 196 2767 196 2767 143 2791 c 0,13,14
 136 2793 136 2793 132 2803 c 128,-1,15
 128 2813 128 2813 128 2820 c 0,16,17
 130 2828 130 2828 135.5 2836 c 128,-1,18
 141 2844 141 2844 147 2848 c 0,19,20
 167 2857 167 2857 187 2855 c 0,21,22
 293 2835 293 2835 396 2811 c 0,23,24
 462 2795 462 2795 469 2714 c 0,25,26
 469 2694 469 2694 471 2677 c 0,27,28
 473 2637 473 2637 473 2600 c 0,29,30
 486 1966 486 1966 472 1338 c 128,-1,31
 458 710 458 710 429 78 c 0,32,33
 429 70 429 70 429 59 c 0,34,35
 429 43 429 43 429 28 c 0,36,37
 422 -54 422 -54 391.5 -90 c 128,-1,38
 361 -126 361 -126 295 -128 c 0,39,40
 260 -131 260 -131 222.5 -128.5 c 128,-1,41
 185 -126 185 -126 150 -115 c 0,42,43
 134 -111 134 -111 124 -100 c 128,-1,44
 114 -89 114 -89 117 -71 c 0,45,46
 119 -54 119 -54 130 -45 c 128,-1,47
 141 -36 141 -36 154 -34 c 0,48,49
 180 -34 180 -34 209 -34 c 0,50,51
 229 -36 229 -36 249 -36 c 1,0,-1
EndSplineSet
EndChar

StartChar: asciicircum
Encoding: 94 94 65
Width: 745
GlyphClass: 2
Flags: W
LayerCount: 2
Fore
SplineSet
445 1496 m 1,0,-1
 445 1496 l 1,1,2
 489 1411 489 1411 526 1325 c 0,3,4
 539 1298 539 1298 550 1272 c 0,5,6
 555 1261 555 1261 557 1252 c 0,7,8
 557 1248 557 1248 557 1246 c 0,9,10
 557 1208 557 1208 526 1204 c 0,11,12
 475 1191 475 1191 440 1230 c 0,13,14
 425 1248 425 1248 416 1272 c 128,-1,15
 407 1296 407 1296 403 1323 c 0,16,17
 394 1360 394 1360 381 1389 c 0,18,19
 370 1411 370 1411 350 1416.5 c 128,-1,20
 330 1422 330 1422 317 1404 c 0,21,22
 306 1389 306 1389 288.5 1363.5 c 128,-1,23
 271 1338 271 1338 255 1316 c 0,24,25
 242 1296 242 1296 233 1283 c 0,26,27
 192 1224 192 1224 163 1222.5 c 128,-1,28
 134 1221 134 1221 126.5 1252 c 128,-1,29
 119 1283 119 1283 143 1320 c 0,30,31
 159 1345 159 1345 176 1371 c 0,32,33
 220 1439 220 1439 269 1507 c 0,34,35
 308 1556 308 1556 361 1552.5 c 128,-1,36
 414 1549 414 1549 445 1496 c 1,0,-1
EndSplineSet
EndChar

StartChar: underscore
Encoding: 95 95 66
Width: 1250
GlyphClass: 2
Flags: W
LayerCount: 2
Fore
SplineSet
647 -142 m 1,0,-1
 506 -139 l 2,1,2
 288 -137 288 -137 29 -124 c 0,3,4
 24 -124 24 -124 20 -122 c 0,5,6
 11 -122 11 -122 5.5 -118.5 c 128,-1,7
 0 -115 0 -115 -2 -106 c 0,8,9
 -4 -71 -4 -71 33 -69 c 0,10,11
 227 -58 227 -58 425 -56 c 2,12,-1
 506 -54 l 1,13,-1
 649 -54 l 1,14,-1
 1038 -54 l 2,15,16
 1082 -54 1082 -54 1126 -58 c 0,17,18
 1162 -60 1162 -60 1162 -98 c 0,19,20
 1162 -133 1162 -133 1126 -137 c 0,21,22
 1113 -139 1113 -139 1098 -139 c 2,23,-1
 1016 -139 l 2,24,25
 840 -142 840 -142 647 -142 c 1,0,-1
EndSplineSet
EndChar

StartChar: grave
Encoding: 96 96 67
Width: 495
GlyphClass: 2
Flags: W
LayerCount: 2
Fore
SplineSet
260 2809 m 1,0,-1
 260 2809 l 1,1,2
 268 2795 268 2795 277 2780 c 0,3,4
 310 2732 310 2732 337.5 2682.5 c 128,-1,5
 365 2633 365 2633 381 2575 c 0,6,7
 385 2556 385 2556 384 2538 c 128,-1,8
 383 2520 383 2520 365 2507 c 1,9,10
 350 2483 350 2483 320 2515 c 128,-1,11
 290 2547 290 2547 253 2602 c 0,12,13
 207 2668 207 2668 161 2718 c 0,14,15
 141 2736 141 2736 125.5 2758 c 128,-1,16
 110 2780 110 2780 114.5 2800 c 128,-1,17
 119 2820 119 2820 165 2831 c 0,18,19
 174 2831 174 2831 183 2833 c 0,20,21
 187 2833 187 2833 191 2833 c 0,22,23
 211 2835 211 2835 230 2830.5 c 128,-1,24
 249 2826 249 2826 260 2809 c 1,0,-1
EndSplineSet
EndChar

StartChar: a
Encoding: 97 97 68
Width: 1060
GlyphClass: 2
Flags: W
LayerCount: 2
Fore
SplineSet
1022.5 321.5 m 128,-1,1
 941 213 941 213 819 182 c 128,-1,2
 697 151 697 151 608 190.5 c 128,-1,3
 519 230 519 230 510 402 c 1,4,5
 409 206 409 206 317.5 151 c 128,-1,6
 226 96 226 96 127 109 c 0,7,8
 15 127 15 127 -24.5 196 c 128,-1,9
 -64 265 -64 265 -51 355.5 c 128,-1,10
 -38 446 -38 446 4 529 c 0,11,12
 37 591 37 591 95.5 644 c 128,-1,13
 154 697 154 697 218 727 c 0,14,15
 297 767 297 767 377 765 c 128,-1,16
 457 763 457 763 548 712 c 0,17,18
 550 710 550 710 550 716 c 0,19,20
 550 725 550 725 554.5 738.5 c 128,-1,21
 559 752 559 752 570 760 c 0,22,23
 600 782 600 782 641 782 c 128,-1,24
 682 782 682 782 704 741 c 1,25,26
 708 688 708 688 693 606 c 0,27,28
 660 426 660 426 693 347 c 128,-1,29
 726 268 726 268 809.5 273.5 c 128,-1,30
 893 279 893 279 1026 438.5 c 128,-1,31
 1159 598 1159 598 1131.5 514 c 128,-1,0
 1104 430 1104 430 1022.5 321.5 c 128,-1,1
147 232 m 1,32,-1
 147 232 l 1,33,34
 193 199 193 199 252.5 241 c 128,-1,35
 312 283 312 283 367 360 c 128,-1,36
 422 437 422 437 459.5 514 c 128,-1,37
 497 591 497 591 501 628 c 1,38,39
 389 688 389 688 309 648.5 c 128,-1,40
 229 609 229 609 181.5 519.5 c 128,-1,41
 134 430 134 430 125 345.5 c 128,-1,42
 116 261 116 261 147 232 c 1,32,-1
EndSplineSet
Substitution2: "'swsh' Swash in Latin lookup 4 subtable" a.swsh
Substitution2: "'titl' Titling in Latin lookup 3 subtable" a.titl
Substitution2: "'salt' Stylistic Alternatives in Latin lookup 0 subtable" a.salt
EndChar

StartChar: b
Encoding: 98 98 69
Width: 971
GlyphClass: 2
Flags: W
LayerCount: 2
Fore
SplineSet
680 369 m 1,1,2
 647 305 647 305 614 259 c 1,3,4
 530 160 530 160 420 137 c 128,-1,5
 310 114 310 114 222 149 c 0,6,7
 220 151 220 151 218 151 c 0,8,9
 196 162 196 162 174 166.5 c 128,-1,10
 152 171 152 171 128 158 c 0,11,12
 115 151 115 151 97 153 c 0,13,14
 93 153 93 153 90 153 c 0,15,16
 11 153 11 153 9 232 c 0,17,18
 7 312 7 312 7 389 c 0,19,20
 5 483 5 483 0 576 c 0,21,22
 -13 934 -13 934 -6.5 1295 c 128,-1,23
 0 1656 0 1656 13 2017 c 0,24,25
 16 2052 16 2052 16 2087 c 0,26,27
 18 2168 18 2168 34.5 2289 c 128,-1,28
 51 2410 51 2410 81.5 2521.5 c 128,-1,29
 112 2633 112 2633 156 2685 c 1,30,31
 196 2743 196 2743 256.5 2758 c 128,-1,32
 317 2773 317 2773 374 2753.5 c 128,-1,33
 431 2734 431 2734 462 2690 c 0,34,35
 528 2586 528 2586 532.5 2396 c 128,-1,36
 537 2206 537 2206 499.5 1972.5 c 128,-1,37
 462 1739 462 1739 402.5 1505 c 128,-1,38
 343 1271 343 1271 279.5 1079.5 c 128,-1,39
 216 888 216 888 165 782 c 1,40,41
 253 833 253 833 307 846 c 128,-1,42
 361 859 361 859 431 848 c 0,43,44
 671 818 671 818 711 580 c 0,45,46
 711 569 711 569 711 560 c 0,47,48
 713 551 713 551 713 543 c 0,49,50
 717 510 717 510 722.5 490 c 128,-1,51
 728 470 728 470 835 502 c 128,-1,52
 942 534 942 534 991.5 577 c 128,-1,53
 1041 620 1041 620 1054 613 c 1,54,55
 1105 558 1105 558 973 470 c 1,56,0
 845 393 845 393 680 369 c 1,1,2
148 978 m 1,57,-1
 148 978 l 1,58,59
 156 985 156 985 200 1152 c 128,-1,60
 244 1319 244 1319 293.5 1565.5 c 128,-1,61
 343 1812 343 1812 373 2059.5 c 128,-1,62
 403 2307 403 2307 383 2476 c 0,63,64
 374 2567 374 2567 354.5 2623 c 128,-1,65
 335 2679 335 2679 308.5 2661.5 c 128,-1,66
 282 2644 282 2644 253 2518 c 0,67,68
 209 2331 209 2331 190.5 2009 c 128,-1,69
 172 1687 172 1687 163 1374 c 0,70,71
 156 1134 156 1134 148 978 c 1,57,-1
321 261 m 1,72,-1
 321 261 l 1,73,74
 313 232 313 232 336 231 c 128,-1,75
 359 230 359 230 395 246.5 c 128,-1,76
 431 263 431 263 458.5 289.5 c 128,-1,77
 486 316 486 316 484 345 c 0,78,79
 484 347 484 347 481 349 c 128,-1,80
 478 351 478 351 475 351 c 0,81,82
 436 353 436 353 403 335.5 c 128,-1,83
 370 318 370 318 341 292 c 0,84,85
 328 279 328 279 321 261 c 1,72,-1
544 512 m 1,86,-1
 544 512 l 1,87,88
 548 589 548 589 506 659.5 c 128,-1,89
 464 730 464 730 400.5 752 c 128,-1,90
 337 774 337 774 277 708 c 1,91,92
 233 650 233 650 219 554.5 c 128,-1,93
 205 459 205 459 207 362 c 1,94,95
 280 402 280 402 353.5 429.5 c 128,-1,96
 427 457 427 457 506 466 c 0,97,98
 524 468 524 468 534 481 c 128,-1,99
 544 494 544 494 544 512 c 1,86,-1
EndSplineSet
Substitution2: "'swsh' Swash in Latin lookup 4 subtable" b.swsh
Substitution2: "'titl' Titling in Latin lookup 3 subtable" b.titl
Substitution2: "'salt' Stylistic Alternatives in Latin lookup 0 subtable" b.salt
EndChar

StartChar: c
Encoding: 99 99 70
Width: 920
GlyphClass: 2
Flags: W
LayerCount: 2
Fore
SplineSet
928 488 m 1,0,-1
 928 488 l 1,1,2
 970 514 970 514 983.5 503 c 128,-1,3
 997 492 997 492 966 450 c 0,4,5
 876 342 876 342 742.5 248.5 c 128,-1,6
 609 155 609 155 477 114 c 1,7,8
 392 83 392 83 295 83 c 0,9,10
 227 81 227 81 158 103 c 0,11,12
 9 151 9 151 -11 307 c 0,13,14
 -22 393 -22 393 0 479 c 0,15,16
 26 567 26 567 84.5 633 c 128,-1,17
 143 699 143 699 229 734 c 0,18,19
 310 765 310 765 397 758.5 c 128,-1,20
 484 752 484 752 539 703 c 0,21,22
 548 694 548 694 548 681 c 128,-1,23
 548 668 548 668 543 655 c 0,24,25
 530 615 530 615 506 617.5 c 128,-1,26
 482 620 482 620 449 637 c 0,27,28
 425 650 425 650 396 661 c 128,-1,29
 367 672 367 672 337 666 c 0,30,31
 251 653 251 653 194 573 c 0,32,33
 147 507 147 507 130.5 426 c 128,-1,34
 114 345 114 345 143 281 c 1,35,36
 178 215 178 215 257.5 206 c 128,-1,37
 337 197 337 197 438 224.5 c 128,-1,38
 539 252 539 252 640 300.5 c 128,-1,39
 741 349 741 349 819.5 399.5 c 128,-1,40
 898 450 898 450 928 488 c 1,0,-1
EndSplineSet
Substitution2: "'swsh' Swash in Latin lookup 4 subtable" c.swsh
Substitution2: "'titl' Titling in Latin lookup 3 subtable" c.titl
Substitution2: "'salt' Stylistic Alternatives in Latin lookup 0 subtable" c.salt
EndChar

StartChar: d
Encoding: 100 100 71
Width: 1560
GlyphClass: 2
Flags: W
LayerCount: 2
Fore
SplineSet
1569 488 m 1,0,-1
 1569 488 l 1,1,2
 1578 505 1578 505 1596.5 506 c 128,-1,3
 1615 507 1615 507 1628 483 c 0,4,5
 1633 477 1633 477 1618.5 449.5 c 128,-1,6
 1604 422 1604 422 1580 387.5 c 128,-1,7
 1556 353 1556 353 1534 324.5 c 128,-1,8
 1512 296 1512 296 1503 287 c 0,9,10
 1404 177 1404 177 1304 125.5 c 128,-1,11
 1204 74 1204 74 1087 103.5 c 128,-1,12
 970 133 970 133 825 270 c 0,13,14
 803 294 803 294 781 318 c 0,15,16
 775 325 775 325 770 331 c 0,17,18
 746 358 746 358 717 338 c 0,19,20
 687 316 687 316 656 294 c 0,21,22
 629 274 629 274 601 257 c 0,23,24
 508 193 508 193 405 149 c 0,25,26
 295 100 295 100 174 111 c 0,27,28
 -15 133 -15 133 -22 320 c 0,29,30
 -24 452 -24 452 34.5 556.5 c 128,-1,31
 93 661 93 661 197.5 710.5 c 128,-1,32
 302 760 302 760 438 730 c 0,33,34
 453 727 453 727 478 721 c 0,35,36
 493 716 493 716 515 712 c 1,37,38
 502 743 502 743 491 767 c 0,39,40
 471 807 471 807 456 840 c 0,41,42
 365 1027 365 1027 308 1267.5 c 128,-1,43
 251 1508 251 1508 252 1761 c 128,-1,44
 253 2014 253 2014 336.5 2232 c 128,-1,45
 420 2450 420 2450 614 2591 c 1,46,47
 737 2674 737 2674 868 2681 c 128,-1,48
 999 2688 999 2688 1115.5 2624 c 128,-1,49
 1232 2560 1232 2560 1305 2432 c 1,50,51
 1399 2256 1399 2256 1421 2061 c 0,52,53
 1461 1746 1461 1746 1408 1473 c 128,-1,54
 1355 1200 1355 1200 1221 957 c 128,-1,55
 1087 714 1087 714 880 485 c 0,56,57
 860 463 860 463 859 450 c 128,-1,58
 858 437 858 437 878 413 c 0,59,60
 920 358 920 358 969.5 306 c 128,-1,61
 1019 254 1019 254 1080 219 c 1,62,63
 1166 182 1166 182 1264 218 c 128,-1,64
 1362 254 1362 254 1445.5 330 c 128,-1,65
 1529 406 1529 406 1569 488 c 1,0,-1
588 400 m 1,66,-1
 588 400 l 1,67,68
 614 422 614 422 592 450 c 0,69,70
 579 466 579 466 566 483 c 0,71,72
 530 527 530 527 484 573.5 c 128,-1,73
 438 620 438 620 388.5 644 c 128,-1,74
 339 668 339 668 288 648 c 0,75,76
 218 615 218 615 173 531.5 c 128,-1,77
 128 448 128 448 120 360 c 128,-1,78
 112 272 112 272 154 226 c 128,-1,79
 196 180 196 180 297 217 c 1,80,81
 456 287 456 287 588 400 c 1,66,-1
810 617 m 1,82,-1
 810 617 l 1,83,84
 1021 866 1021 866 1125.5 1107 c 128,-1,85
 1230 1348 1230 1348 1267 1671 c 0,86,87
 1278 1750 1278 1750 1277 1878 c 128,-1,88
 1276 2006 1276 2006 1254 2145.5 c 128,-1,89
 1232 2285 1232 2285 1175 2399.5 c 128,-1,90
 1118 2514 1118 2514 1015.5 2564.5 c 128,-1,91
 913 2615 913 2615 753 2564 c 1,92,93
 577 2461 577 2461 492 2290.5 c 128,-1,94
 407 2120 407 2120 395 1911 c 128,-1,95
 383 1702 383 1702 422.5 1484 c 128,-1,96
 462 1266 462 1266 532.5 1070.5 c 128,-1,97
 603 875 603 875 684 730 c 0,98,99
 693 712 693 712 702 694 c 0,100,101
 726 635 726 635 772 587 c 1,102,103
 779 593 779 593 786 598 c 0,104,105
 799 606 799 606 810 617 c 1,82,-1
EndSplineSet
Substitution2: "'swsh' Swash in Latin lookup 4 subtable" d.swsh
Substitution2: "'titl' Titling in Latin lookup 3 subtable" d.titl
Substitution2: "'salt' Stylistic Alternatives in Latin lookup 0 subtable" d.salt
EndChar

StartChar: e
Encoding: 101 101 72
Width: 968
GlyphClass: 2
Flags: W
LayerCount: 2
Fore
SplineSet
964 483 m 5,0,-1
 964 483 l 5,1,2
 986 496 986 496 1007 503 c 132,-1,3
 1028 510 1028 510 1034.5 502 c 132,-1,4
 1041 494 1041 494 1017 466 c 4,5,6
 942 380 942 380 837.5 308.5 c 132,-1,7
 733 237 733 237 623 188 c 4,8,9
 537 149 537 149 441.5 126 c 132,-1,10
 346 103 346 103 252.5 116 c 132,-1,11
 159 129 159 129 82 199 c 4,12,13
 -35 307 -35 307 -15 463 c 4,14,15
 2 587 2 587 81.5 673.5 c 132,-1,16
 161 760 161 760 282 791 c 4,17,18
 383 813 383 813 484 796 c 4,19,20
 530 789 530 789 568 765 c 5,21,22
 603 738 603 738 606.5 702 c 132,-1,23
 610 666 610 666 579 633 c 5,24,25
 515 576 515 576 431 565 c 4,26,27
 337 549 337 549 242 545 c 4,28,29
 196 545 196 545 177.5 526 c 132,-1,30
 159 507 159 507 156 461 c 4,31,32
 141 336 141 336 236 257 c 4,33,34
 295 210 295 210 379.5 217 c 132,-1,35
 464 224 464 224 559 262.5 c 132,-1,36
 654 301 654 301 745 352.5 c 132,-1,37
 836 404 836 404 909 450 c 4,38,39
 940 470 940 470 964 483 c 5,0,-1
269 661 m 5,40,-1
 269 661 l 5,41,42
 269 659 269 659 266 659 c 4,43,44
 262 655 262 655 255.5 649.5 c 132,-1,45
 249 644 249 644 243.5 638.5 c 132,-1,46
 238 633 238 633 238 631 c 4,47,48
 240 624 240 624 274 627.5 c 132,-1,49
 308 631 308 631 349 639.5 c 132,-1,50
 390 648 390 648 417.5 662.5 c 132,-1,51
 445 677 445 677 434 697 c 4,52,53
 429 703 429 703 421.5 707.5 c 132,-1,54
 414 712 414 712 405 714 c 4,55,56
 365 714 365 714 332 698.5 c 132,-1,57
 299 683 299 683 269 661 c 5,40,-1
EndSplineSet
Substitution2: "'swsh' Swash in Latin lookup 4 subtable" e.swsh
Substitution2: "'titl' Titling in Latin lookup 3 subtable" e.titl
Substitution2: "'salt' Stylistic Alternatives in Latin lookup 0 subtable" e.salt
EndChar

StartChar: f
Encoding: 102 102 73
Width: 1047
GlyphClass: 2
Flags: W
LayerCount: 2
Fore
SplineSet
1047 384 m 1,0,-1
 1047 384 l 1,1,2
 930 235 930 235 829 192 c 128,-1,3
 728 149 728 149 646.5 171 c 128,-1,4
 565 193 565 193 505.5 242.5 c 128,-1,5
 446 292 446 292 418 327 c 0,6,7
 407 338 407 338 402 342 c 1,8,9
 477 226 477 226 507 39 c 128,-1,10
 537 -148 537 -148 506 -289 c 1,11,12
 477 -395 477 -395 393.5 -421 c 128,-1,13
 310 -447 310 -447 220 -379 c 1,14,15
 167 -333 167 -333 136 -269 c 0,16,17
 83 -166 83 -166 57 -54 c 0,18,19
 15 107 15 107 3 272 c 128,-1,20
 -9 437 -9 437 -5 604 c 0,21,22
 4 844 4 844 43.5 1079.5 c 128,-1,23
 83 1315 83 1315 147 1548 c 0,24,25
 185 1698 185 1698 253 1897 c 128,-1,26
 321 2096 321 2096 421 2276.5 c 128,-1,27
 521 2457 521 2457 655 2553 c 0,28,29
 713 2595 713 2595 783 2608 c 0,30,31
 963 2637 963 2637 1038 2565.5 c 128,-1,32
 1113 2494 1113 2494 1105.5 2351 c 128,-1,33
 1098 2208 1098 2208 1034 2022 c 128,-1,34
 970 1836 970 1836 872 1638 c 128,-1,35
 774 1440 774 1440 669.5 1257.5 c 128,-1,36
 565 1075 565 1075 476 937.5 c 128,-1,37
 387 800 387 800 339 736 c 0,38,39
 325 716 325 716 308 694 c 0,40,41
 301 683 301 683 290 670 c 1,42,43
 446 444 446 444 566 360 c 128,-1,44
 686 276 686 276 775 286 c 128,-1,45
 864 296 864 296 927 351 c 128,-1,46
 990 406 990 406 1029 461 c 0,47,48
 1071 516 1071 516 1091 516 c 1,49,50
 1122 507 1122 507 1103 468.5 c 128,-1,51
 1084 430 1084 430 1047 384 c 1,0,-1
191 844 m 1,52,-1
 191 844 l 1,53,54
 182 780 182 780 194.5 762.5 c 128,-1,55
 207 745 207 745 251 807 c 0,56,57
 319 901 319 901 420 1061.5 c 128,-1,58
 521 1222 521 1222 631 1417 c 128,-1,59
 741 1612 741 1612 829 1812 c 128,-1,60
 917 2012 917 2012 956.5 2186 c 128,-1,61
 996 2360 996 2360 961 2476 c 0,62,63
 944 2525 944 2525 900 2536 c 128,-1,64
 856 2547 856 2547 805 2520 c 0,65,66
 697 2459 697 2459 607 2302.5 c 128,-1,67
 517 2146 517 2146 445.5 1940.5 c 128,-1,68
 374 1735 374 1735 321 1520.5 c 128,-1,69
 268 1306 268 1306 235 1126.5 c 128,-1,70
 202 947 202 947 191 844 c 1,52,-1
242 -58 m 1,71,-1
 242 -58 l 1,72,73
 281 -210 281 -210 311 -275 c 128,-1,74
 341 -340 341 -340 351 -287 c 128,-1,75
 361 -234 361 -234 345 -34 c 0,76,77
 332 120 332 120 294.5 291.5 c 128,-1,78
 257 463 257 463 193 567 c 1,79,80
 169 463 169 463 184.5 279.5 c 128,-1,81
 200 96 200 96 242 -58 c 1,71,-1
EndSplineSet
Substitution2: "'swsh' Swash in Latin lookup 4 subtable" f.swsh
Substitution2: "'titl' Titling in Latin lookup 3 subtable" f.titl
Substitution2: "'salt' Stylistic Alternatives in Latin lookup 0 subtable" f.salt
EndChar

StartChar: g
Encoding: 103 103 74
Width: 1059
GlyphClass: 2
Flags: W
LayerCount: 2
Fore
SplineSet
1087 505 m 1,0,-1
 1087 505 l 1,1,2
 1107 510 1107 510 1121 508.5 c 128,-1,3
 1135 507 1135 507 1136.5 498.5 c 128,-1,4
 1138 490 1138 490 1111 472 c 0,5,6
 1100 466 1100 466 1085 455 c 0,7,8
 1032 417 1032 417 962 371 c 0,9,10
 887 320 887 320 825.5 277.5 c 128,-1,11
 764 235 764 235 744 213 c 0,12,13
 722 182 722 182 716.5 145.5 c 128,-1,14
 711 109 711 109 709 67 c 0,15,16
 706 34 706 34 702 1 c 0,17,18
 645 -353 645 -353 509.5 -603.5 c 128,-1,19
 374 -854 374 -854 204.5 -1002.5 c 128,-1,20
 35 -1151 35 -1151 -126.5 -1196.5 c 128,-1,21
 -288 -1242 -288 -1242 -399 -1184.5 c 128,-1,22
 -510 -1127 -510 -1127 -530 -967 c 1,23,24
 -541 -837 -541 -837 -477 -701.5 c 128,-1,25
 -413 -566 -413 -566 -306.5 -442 c 128,-1,26
 -200 -318 -200 -318 -81 -214.5 c 128,-1,27
 38 -111 38 -111 139 -43 c 0,28,29
 167 -23 167 -23 198 -3 c 0,30,31
 341 96 341 96 489 188 c 1,32,33
 583 241 583 241 577 342 c 0,34,35
 577 353 577 353 577 373 c 0,36,37
 574 402 574 402 574 435 c 1,38,39
 517 345 517 345 413.5 272 c 128,-1,40
 310 199 310 199 201.5 167.5 c 128,-1,41
 93 136 93 136 16 171 c 128,-1,42
 -61 206 -61 206 -64 334 c 1,43,44
 -61 400 -61 400 -26 455 c 0,45,46
 57 602 57 602 205 686 c 0,47,48
 260 716 260 716 338 729.5 c 128,-1,49
 416 743 416 743 488.5 727.5 c 128,-1,50
 561 712 561 712 605 657 c 1,51,52
 616 675 616 675 637 680.5 c 128,-1,53
 658 686 658 686 676 686 c 0,54,55
 680 686 680 686 682 686 c 0,56,57
 764 694 764 694 759 611 c 0,58,59
 757 551 757 551 755 492 c 0,60,61
 753 448 753 448 750 406 c 1,62,63
 753 356 753 356 805.5 373.5 c 128,-1,64
 858 391 858 391 933 433 c 0,65,66
 1019 483 1019 483 1087 505 c 1,0,-1
445 450 m 1,67,-1
 445 450 l 1,68,69
 537 543 537 543 546 593 c 1,70,71
 524 633 524 633 477.5 641.5 c 128,-1,72
 431 650 431 650 383 640.5 c 128,-1,73
 335 631 335 631 302 611 c 0,74,75
 211 554 211 554 168.5 472.5 c 128,-1,76
 126 391 126 391 137 333.5 c 128,-1,77
 148 276 148 276 222.5 294 c 128,-1,78
 297 312 297 312 445 450 c 1,67,-1
528 12 m 1,79,-1
 528 12 l 1,80,81
 528 15 528 15 530 17 c 0,82,83
 533 30 533 30 535 50 c 128,-1,84
 537 70 537 70 533.5 83 c 128,-1,85
 530 96 530 96 517 87 c 0,86,87
 425 23 425 23 324 -54 c 0,88,89
 264 -98 264 -98 211 -135 c 0,90,91
 137 -190 137 -190 38 -278 c 128,-1,92
 -61 -366 -61 -366 -156 -475 c 128,-1,93
 -251 -584 -251 -584 -312.5 -698.5 c 128,-1,94
 -374 -813 -374 -813 -374 -918 c 1,95,96
 -367 -1068 -367 -1068 -290 -1098.5 c 128,-1,97
 -213 -1129 -213 -1129 -96.5 -1061 c 128,-1,98
 20 -993 20 -993 145.5 -841 c 128,-1,99
 271 -689 271 -689 374.5 -471.5 c 128,-1,100
 478 -254 478 -254 528 12 c 1,79,-1
EndSplineSet
Substitution2: "'swsh' Swash in Latin lookup 4 subtable" g.swsh
Substitution2: "'titl' Titling in Latin lookup 3 subtable" g.titl
Substitution2: "'salt' Stylistic Alternatives in Latin lookup 0 subtable" g.salt
EndChar

StartChar: h
Encoding: 104 104 75
Width: 1015
GlyphClass: 2
Flags: W
LayerCount: 2
Fore
SplineSet
1069.5 558 m 128,-1,1
 1074 536 1074 536 1033 455.5 c 128,-1,2
 992 375 992 375 906 318 c 0,3,4
 843 279 843 279 797.5 265.5 c 128,-1,5
 752 252 752 252 715 250 c 0,6,7
 642 246 642 246 603.5 292 c 128,-1,8
 565 338 565 338 550 410.5 c 128,-1,9
 535 483 535 483 528 560 c 0,10,11
 521 609 521 609 515 648 c 0,12,13
 506 710 506 710 479.5 716.5 c 128,-1,14
 453 723 453 723 398 637 c 0,15,16
 341 545 341 545 298 434 c 128,-1,17
 255 323 255 323 222 217 c 0,18,19
 220 213 220 213 218 206 c 0,20,21
 211 191 211 191 207 175 c 0,22,23
 194 131 194 131 176 89 c 0,24,25
 161 54 161 54 124.5 43 c 128,-1,26
 88 32 88 32 48 48 c 0,27,28
 22 59 22 59 13 85 c 0,29,30
 0 125 0 125 4 166 c 0,31,32
 4 171 4 171 4 173 c 0,33,34
 13 347 13 347 7 752 c 0,35,36
 2 1075 2 1075 2 1447 c 128,-1,37
 2 1819 2 1819 21 2149 c 128,-1,38
 40 2479 40 2479 86 2677 c 0,39,40
 106 2749 106 2749 152 2806.5 c 128,-1,41
 198 2864 198 2864 254 2869.5 c 128,-1,42
 310 2875 310 2875 359 2793 c 1,43,44
 392 2723 392 2723 400 2644 c 0,45,46
 422 2410 422 2410 360.5 1925 c 128,-1,47
 299 1440 299 1440 232 1076 c 128,-1,48
 165 712 165 712 165 468 c 1,49,50
 187 505 187 505 209 547 c 0,51,52
 240 609 240 609 278.5 670.5 c 128,-1,53
 317 732 317 732 369.5 775 c 128,-1,54
 422 818 422 818 497 829 c 0,55,56
 548 837 548 837 600.5 822 c 128,-1,57
 653 807 653 807 671 749 c 1,58,59
 693 648 693 648 686 534 c 1,60,61
 686 413 686 413 728 381 c 128,-1,62
 770 349 770 349 832.5 370 c 128,-1,63
 895 391 895 391 980 485.5 c 128,-1,0
 1065 580 1065 580 1069.5 558 c 128,-1,1
233 2553 m 1,64,-1
 233 2553 l 1,65,66
 222 2428 222 2428 208 2135.5 c 128,-1,67
 194 1843 194 1843 184 1549 c 128,-1,68
 174 1255 174 1255 174 1060 c 1,69,70
 198 1236 198 1236 232 1518.5 c 128,-1,71
 266 1801 266 1801 292.5 2100 c 128,-1,72
 319 2399 319 2399 319 2549 c 0,73,74
 317 2628 317 2628 308 2666.5 c 128,-1,75
 299 2705 299 2705 278 2694 c 128,-1,76
 257 2683 257 2683 246 2638 c 128,-1,77
 235 2593 235 2593 233 2553 c 1,64,-1
EndSplineSet
Substitution2: "'swsh' Swash in Latin lookup 4 subtable" h.swsh
Substitution2: "'titl' Titling in Latin lookup 3 subtable" h.titl
Substitution2: "'salt' Stylistic Alternatives in Latin lookup 0 subtable" h.salt
EndChar

StartChar: i
Encoding: 105 105 76
Width: 491
GlyphClass: 2
Flags: W
LayerCount: 2
Fore
SplineSet
413.5 264 m 128,-1,1
 339 186 339 186 244.5 165 c 128,-1,2
 150 144 150 144 64 230 c 0,3,4
 31 268 31 268 15.5 317.5 c 128,-1,5
 0 367 0 367 4 415 c 0,6,7
 4 428 4 428 4 448 c 0,8,9
 4 499 4 499 8.5 566 c 128,-1,10
 13 633 13 633 28.5 687 c 128,-1,11
 44 741 44 741 77 752 c 0,12,13
 172 776 172 776 180 686 c 0,14,15
 180 657 180 657 178 628 c 0,16,17
 176 613 176 613 176 600 c 0,18,19
 174 558 174 558 172 516 c 0,20,21
 172 483 172 483 169 450 c 0,22,23
 167 305 167 305 234 277.5 c 128,-1,24
 301 250 301 250 387 336 c 128,-1,25
 473 422 473 422 499.5 479 c 128,-1,26
 526 536 526 536 538 503 c 128,-1,27
 550 470 550 470 519 406 c 128,-1,0
 488 342 488 342 413.5 264 c 128,-1,1
167 958 m 1,28,-1
 167 958 l 1,29,30
 154 947 154 947 135.5 944 c 128,-1,31
 117 941 117 941 103 947 c 0,32,33
 92 956 92 956 89 970.5 c 128,-1,34
 86 985 86 985 86 1005 c 0,35,36
 86 1009 86 1009 88 1013 c 0,37,38
 90 1031 90 1031 97 1049 c 0,39,40
 117 1097 117 1097 180 1093 c 0,41,42
 202 1090 202 1090 214.5 1075 c 128,-1,43
 227 1060 227 1060 220 1040 c 0,44,45
 205 991 205 991 167 958 c 1,28,-1
EndSplineSet
Substitution2: "'swsh' Swash in Latin lookup 4 subtable" i.swsh
Substitution2: "'titl' Titling in Latin lookup 3 subtable" i.titl
Substitution2: "'salt' Stylistic Alternatives in Latin lookup 0 subtable" i.salt
EndChar

StartChar: j
Encoding: 106 106 77
Width: 682
GlyphClass: 2
Flags: W
LayerCount: 2
Fore
SplineSet
112 991 m 1,0,-1
 112 991 l 1,1,2
 75 987 75 987 59 1016 c 0,3,4
 44 1046 44 1046 68 1068 c 0,5,6
 95 1090 95 1090 131 1092.5 c 128,-1,7
 167 1095 167 1095 196 1075 c 0,8,9
 202 1071 202 1071 205 1064 c 0,10,11
 205 1060 205 1060 207 1055 c 0,12,13
 205 1053 205 1053 205 1049 c 0,14,15
 202 1042 202 1042 198 1035 c 0,16,17
 163 998 163 998 112 991 c 1,0,-1
759 499 m 1,18,-1
 759 499 l 1,19,20
 774 492 774 492 770 479 c 128,-1,21
 766 466 766 466 755 457 c 0,22,23
 722 428 722 428 691 402 c 0,24,25
 581 309 581 309 476.5 217 c 128,-1,26
 372 125 372 125 264 15 c 0,27,28
 191 -56 191 -56 160.5 -96.5 c 128,-1,29
 130 -137 130 -137 122 -186.5 c 128,-1,30
 114 -236 114 -236 112 -335 c 0,31,32
 103 -744 103 -744 29 -1149 c 0,33,34
 4 -1286 4 -1286 -51 -1415 c 0,35,36
 -79 -1488 -79 -1488 -134 -1545 c 0,37,38
 -187 -1600 -187 -1600 -266 -1602 c 0,39,40
 -367 -1607 -367 -1607 -411 -1525 c 0,41,42
 -453 -1446 -453 -1446 -460 -1360 c 0,43,44
 -473 -1215 -473 -1215 -454.5 -1072 c 128,-1,45
 -436 -929 -436 -929 -396 -788 c 0,46,47
 -306 -472 -306 -472 -88 -210 c 0,48,49
 -20 -124 -20 -124 -22 -21 c 1,50,51
 -13 243 -13 243 -2 505 c 0,52,53
 2 589 2 589 4 672 c 0,54,55
 7 708 7 708 11 741 c 1,56,57
 22 785 22 785 77 782 c 0,58,59
 123 782 123 782 134 745 c 0,60,61
 147 686 147 686 148.5 625.5 c 128,-1,62
 150 565 150 565 145 503 c 0,63,64
 143 448 143 448 139 395 c 0,65,66
 130 261 130 261 130 100 c 0,67,68
 130 94 130 94 135.5 87.5 c 128,-1,69
 141 81 141 81 147.5 78.5 c 128,-1,70
 154 76 154 76 163 83 c 0,71,72
 178 96 178 96 194 109 c 0,73,74
 220 131 220 131 246 155 c 0,75,76
 290 195 290 195 398 278.5 c 128,-1,77
 506 362 506 362 612.5 431.5 c 128,-1,78
 719 501 719 501 759 499 c 1,18,-1
-134 -1226 m 1,79,-1
 -134 -1226 l 1,80,81
 -86 -1013 -86 -1013 -61.5 -757.5 c 128,-1,82
 -37 -502 -37 -502 -26 -280 c 1,83,84
 -101 -355 -101 -355 -158.5 -491.5 c 128,-1,85
 -216 -628 -216 -628 -253 -786.5 c 128,-1,86
 -290 -945 -290 -945 -308 -1083.5 c 128,-1,87
 -326 -1222 -326 -1222 -326 -1299 c 0,88,89
 -323 -1464 -323 -1464 -288 -1487 c 128,-1,90
 -253 -1510 -253 -1510 -209 -1434 c 128,-1,91
 -165 -1358 -165 -1358 -134 -1226 c 1,79,-1
EndSplineSet
Substitution2: "'swsh' Swash in Latin lookup 4 subtable" j.swsh
Substitution2: "'titl' Titling in Latin lookup 3 subtable" j.titl
Substitution2: "'salt' Stylistic Alternatives in Latin lookup 0 subtable" j.salt
EndChar

StartChar: k
Encoding: 107 107 78
Width: 970
GlyphClass: 2
Flags: W
LayerCount: 2
Fore
SplineSet
986 481 m 1,0,-1
 986 481 l 1,1,2
 1016 507 1016 507 1027 506 c 128,-1,3
 1038 505 1038 505 1035 489.5 c 128,-1,4
 1032 474 1032 474 1019 455 c 0,5,6
 986 406 986 406 935 354.5 c 128,-1,7
 884 303 884 303 862 283 c 0,8,9
 713 149 713 149 594 138 c 128,-1,10
 475 127 475 127 387 187.5 c 128,-1,11
 299 248 299 248 245 326 c 128,-1,12
 191 404 191 404 174 448 c 1,13,14
 167 435 167 435 165 391 c 128,-1,15
 163 347 163 347 163 287 c 0,16,17
 161 228 161 228 158.5 171 c 128,-1,18
 156 114 156 114 147 78 c 0,19,20
 134 8 134 8 62 17 c 0,21,22
 11 23 11 23 4 70 c 0,23,24
 0 100 0 100 0 131 c 0,25,26
 0 197 0 197 0 261 c 0,27,28
 2 525 2 525 7 787 c 0,29,30
 7 914 7 914 19 1189 c 128,-1,31
 31 1464 31 1464 58.5 1771 c 128,-1,32
 86 2078 86 2078 132 2300 c 0,33,34
 150 2388 150 2388 191.5 2466.5 c 128,-1,35
 233 2545 233 2545 321 2567 c 0,36,37
 359 2575 359 2575 395 2553 c 128,-1,38
 431 2531 431 2531 460 2465 c 0,39,40
 488 2395 488 2395 491 2320 c 0,41,42
 497 2153 497 2153 451 1898 c 128,-1,43
 405 1643 405 1643 336.5 1368 c 128,-1,44
 268 1093 268 1093 207 866 c 0,45,46
 172 738 172 738 147 646 c 1,47,48
 174 694 174 694 219 754.5 c 128,-1,49
 264 815 264 815 306 851 c 0,50,51
 405 930 405 930 532 906 c 0,52,53
 673 875 673 875 618 745 c 1,54,55
 559 631 559 631 472 570.5 c 128,-1,56
 385 510 385 510 304 477 c 1,57,58
 389 358 389 358 497 287 c 1,59,60
 574 243 574 243 666.5 273 c 128,-1,61
 759 303 759 303 845 365.5 c 128,-1,62
 931 428 931 428 986 481 c 1,0,-1
260 2234 m 1,63,-1
 260 2234 l 1,64,65
 222 1986 222 1986 192.5 1608.5 c 128,-1,66
 163 1231 163 1231 152 987 c 1,67,68
 189 1086 189 1086 237.5 1319 c 128,-1,69
 286 1552 286 1552 328 1802 c 128,-1,70
 370 2052 370 2052 387 2204 c 0,71,72
 405 2371 405 2371 382 2421.5 c 128,-1,73
 359 2472 359 2472 322.5 2422.5 c 128,-1,74
 286 2373 286 2373 260 2234 c 1,63,-1
189 554 m 1,75,-1
 189 554 l 1,76,77
 198 549 198 549 238.5 562.5 c 128,-1,78
 279 576 279 576 328.5 600 c 128,-1,79
 378 624 378 624 409 657 c 0,80,81
 484 741 484 741 476.5 771.5 c 128,-1,82
 469 802 469 802 422.5 793.5 c 128,-1,83
 376 785 376 785 332 747 c 0,84,85
 282 699 282 699 236.5 641.5 c 128,-1,86
 191 584 191 584 189 554 c 1,75,-1
EndSplineSet
Substitution2: "'swsh' Swash in Latin lookup 4 subtable" k.swsh
Substitution2: "'titl' Titling in Latin lookup 3 subtable" k.titl
Substitution2: "'salt' Stylistic Alternatives in Latin lookup 0 subtable" k.salt
EndChar

StartChar: l
Encoding: 108 108 79
Width: 711
GlyphClass: 2
Flags: W
LayerCount: 2
Fore
SplineSet
722 466 m 1,0,-1
 722 466 l 1,1,2
 739 507 739 507 759 507 c 128,-1,3
 779 507 779 507 772 466 c 1,4,5
 739 364 739 364 693 270.5 c 128,-1,6
 647 177 647 177 568 103 c 0,7,8
 508 43 508 43 425 26 c 1,9,10
 312 10 312 10 238.5 53 c 128,-1,11
 165 96 165 96 122 176.5 c 128,-1,12
 79 257 79 257 58 352.5 c 128,-1,13
 37 448 37 448 31 538 c 0,14,15
 15 708 15 708 7.5 985 c 128,-1,16
 0 1262 0 1262 13 1571 c 128,-1,17
 26 1880 26 1880 73.5 2144 c 128,-1,18
 121 2408 121 2408 213 2553 c 1,19,20
 266 2624 266 2624 336.5 2625 c 128,-1,21
 407 2626 407 2626 462 2560 c 1,22,23
 499 2509 499 2509 518 2452 c 128,-1,24
 537 2395 537 2395 543 2336 c 0,25,26
 563 2133 563 2133 538 1907.5 c 128,-1,27
 513 1682 513 1682 459 1426 c 128,-1,28
 405 1170 405 1170 330 975 c 128,-1,29
 255 780 255 780 205 666 c 1,30,31
 178 620 178 620 185 527 c 0,32,33
 194 426 194 426 223.5 316 c 128,-1,34
 253 206 253 206 306 142 c 1,35,36
 356 89 356 89 418 109 c 128,-1,37
 480 129 480 129 541.5 193 c 128,-1,38
 603 257 603 257 650 332.5 c 128,-1,39
 697 408 697 408 722 466 c 1,0,-1
189 1489 m 1,40,-1
 189 1489 l 1,41,42
 183 1423 183 1423 177.5 1289.5 c 128,-1,43
 172 1156 172 1156 167 1018 c 0,44,45
 163 864 163 864 158 778 c 1,46,47
 207 888 207 888 272 1098 c 128,-1,48
 337 1308 337 1308 390.5 1593 c 128,-1,49
 444 1878 444 1878 460 2210 c 1,50,51
 451 2404 451 2404 413.5 2473 c 128,-1,52
 376 2542 376 2542 332 2485 c 128,-1,53
 288 2428 288 2428 262 2245 c 0,54,55
 222 1942 222 1942 200 1638 c 0,56,57
 194 1563 194 1563 189 1489 c 1,40,-1
EndSplineSet
Substitution2: "'swsh' Swash in Latin lookup 4 subtable" l.swsh
Substitution2: "'titl' Titling in Latin lookup 3 subtable" l.titl
Substitution2: "'salt' Stylistic Alternatives in Latin lookup 0 subtable" l.salt
EndChar

StartChar: m
Encoding: 109 109 80
Width: 1311
GlyphClass: 2
Flags: W
LayerCount: 2
Fore
SplineSet
1225 369 m 1,0,-1
 1225 369 l 1,1,2
 1225 369 1225 369 1225 371 c 0,3,4
 1234 380 1234 380 1268 410.5 c 128,-1,5
 1302 441 1302 441 1339.5 468.5 c 128,-1,6
 1377 496 1377 496 1393.5 497.5 c 128,-1,7
 1410 499 1410 499 1386 448 c 0,8,9
 1382 441 1382 441 1374 431.5 c 128,-1,10
 1366 422 1366 422 1360 413 c 0,11,12
 1357 411 1357 411 1355 408 c 0,13,14
 1201 243 1201 243 1114 179.5 c 128,-1,15
 1027 116 1027 116 942 120 c 1,16,17
 854 129 854 129 823 188.5 c 128,-1,18
 792 248 792 248 793 333.5 c 128,-1,19
 794 419 794 419 807 507 c 0,20,21
 821 598 821 598 818.5 662.5 c 128,-1,22
 816 727 816 727 774 738 c 1,23,24
 735 741 735 741 694 673.5 c 128,-1,25
 653 606 653 606 616 517 c 128,-1,26
 579 428 579 428 554 360 c 0,27,28
 541 323 541 323 535 307 c 0,29,30
 517 272 517 272 484 261 c 128,-1,31
 451 250 451 250 414 265 c 1,32,33
 392 279 392 279 387 303 c 0,34,35
 381 356 381 356 383 413 c 0,36,37
 385 450 385 450 383 485 c 0,38,39
 383 494 383 494 383 507 c 0,40,41
 383 525 383 525 383 542.5 c 128,-1,42
 383 560 383 560 379.5 573.5 c 128,-1,43
 376 587 376 587 365 587 c 0,44,45
 348 589 348 589 323.5 546 c 128,-1,46
 299 503 299 503 274 443.5 c 128,-1,47
 249 384 249 384 229 336 c 0,48,49
 211 294 211 294 205 279 c 0,50,51
 202 272 202 272 198 265 c 0,52,53
 178 226 178 226 158 186 c 0,54,55
 141 153 141 153 101 147 c 0,56,57
 20 133 20 133 13 213 c 1,58,59
 7 417 7 417 2 622 c 0,60,61
 2 675 2 675 68 659.5 c 128,-1,62
 134 644 134 644 141 591 c 0,63,64
 147 505 147 505 160.5 504 c 128,-1,65
 174 503 174 503 216 580 c 0,66,67
 238 617 238 617 262 655 c 0,68,69
 290 705 290 705 339 743 c 1,70,71
 389 776 389 776 435.5 762.5 c 128,-1,72
 482 749 482 749 508 692 c 0,73,74
 519 668 519 668 530 666 c 128,-1,75
 541 664 541 664 552 676 c 128,-1,76
 563 688 563 688 574 705 c 0,77,78
 583 723 583 723 594 736 c 0,79,80
 656 804 656 804 741.5 830.5 c 128,-1,81
 827 857 827 857 896.5 828.5 c 128,-1,82
 966 800 966 800 977 703 c 1,83,84
 981 587 981 587 961 466 c 0,85,86
 953 408 953 408 948 356 c 0,87,88
 944 243 944 243 989 232 c 128,-1,89
 1034 221 1034 221 1099 267.5 c 128,-1,90
 1164 314 1164 314 1225 369 c 1,0,-1
EndSplineSet
Substitution2: "'swsh' Swash in Latin lookup 4 subtable" m.swsh
Substitution2: "'titl' Titling in Latin lookup 3 subtable" m.titl
Substitution2: "'salt' Stylistic Alternatives in Latin lookup 0 subtable" m.salt
EndChar

StartChar: n
Encoding: 110 110 81
Width: 880
GlyphClass: 2
Flags: W
LayerCount: 2
Fore
SplineSet
918.5 540 m 128,-1,1
 933 573 933 573 941.5 537 c 128,-1,2
 950 501 950 501 892 374.5 c 128,-1,3
 834 248 834 248 748 179.5 c 128,-1,4
 662 111 662 111 587.5 129 c 128,-1,5
 513 147 513 147 481 232.5 c 128,-1,6
 449 318 449 318 462 448 c 0,7,8
 462 450 462 450 464 459 c 0,9,10
 466 481 466 481 471.5 524 c 128,-1,11
 477 567 477 567 479.5 613 c 128,-1,12
 482 659 482 659 476.5 689 c 128,-1,13
 471 719 471 719 449 710 c 0,14,15
 396 681 396 681 345.5 596.5 c 128,-1,16
 295 512 295 512 254 419.5 c 128,-1,17
 213 327 213 327 196 270 c 0,18,19
 189 252 189 252 183 232 c 0,20,21
 174 206 174 206 163 180 c 0,22,23
 134 105 134 105 62 122 c 0,24,25
 22 131 22 131 15 171 c 0,26,27
 13 202 13 202 13 230 c 0,28,29
 13 248 13 248 11 263 c 0,30,31
 7 485 7 485 0 710 c 0,32,33
 2 736 2 736 23 746 c 128,-1,34
 44 756 44 756 73 756 c 0,35,36
 95 756 95 756 114.5 744 c 128,-1,37
 134 732 134 732 139 694 c 0,38,39
 141 681 141 681 141 668 c 0,40,41
 143 661 143 661 143 655 c 0,42,43
 147 624 147 624 147 602 c 0,44,45
 147 569 147 569 151.5 557 c 128,-1,46
 156 545 156 545 170.5 558 c 128,-1,47
 185 571 185 571 218 620 c 0,48,49
 275 708 275 708 359 769 c 0,50,51
 436 824 436 824 528 815 c 0,52,53
 607 807 607 807 634 732 c 0,54,55
 645 694 645 694 645 655.5 c 128,-1,56
 645 617 645 617 640 578 c 0,57,58
 638 538 638 538 634 496 c 0,59,60
 631 483 631 483 629 470 c 0,61,62
 616 327 616 327 638 278.5 c 128,-1,63
 660 230 660 230 705 246.5 c 128,-1,64
 750 263 750 263 827 385 c 128,-1,0
 904 507 904 507 918.5 540 c 128,-1,1
EndSplineSet
Substitution2: "'swsh' Swash in Latin lookup 4 subtable" n.swsh
Substitution2: "'titl' Titling in Latin lookup 3 subtable" n.titl
Substitution2: "'salt' Stylistic Alternatives in Latin lookup 0 subtable" n.salt
EndChar

StartChar: o
Encoding: 111 111 82
Width: 745
GlyphClass: 2
Flags: W
LayerCount: 2
Fore
SplineSet
768 547 m 5,0,1
 783 562 783 562 784 510.5 c 132,-1,2
 785 459 785 459 690.5 366.5 c 132,-1,3
 596 274 596 274 495 279 c 4,4,5
 473 281 473 281 457.5 275.5 c 132,-1,6
 442 270 442 270 431 250 c 4,7,8
 420 232 420 232 405 217 c 6,9,10
 405 217 405 217 403 215 c 4,11,12
 341 149 341 149 257.5 128 c 132,-1,13
 174 107 174 107 99 141 c 132,-1,14
 24 175 24 175 -9 270 c 5,15,16
 -33 356 -33 356 -13 441 c 4,17,18
 4 516 4 516 42 582 c 4,19,20
 88 670 88 670 161.5 706.5 c 132,-1,21
 235 743 235 743 328 747 c 4,22,23
 466 754 466 754 502 617 c 4,24,25
 524 538 524 538 513 457 c 4,26,27
 510 439 510 439 506 419 c 4,28,29
 502 406 502 406 499 393 c 4,30,31
 495 349 495 349 537 353 c 4,32,33
 653 373 653 373 768 547 c 5,0,1
224 206 m 5,34,-1
 224 206 l 5,35,36
 295 239 295 239 323 318 c 5,37,38
 205 393 205 393 165 534 c 5,39,40
 128 468 128 468 120 380 c 132,-1,41
 112 292 112 292 137.5 234.5 c 132,-1,42
 163 177 163 177 224 206 c 5,34,-1
359 422 m 5,43,-1
 359 422 l 5,44,45
 378 450 378 450 381.5 491 c 132,-1,46
 385 532 385 532 377.5 572.5 c 132,-1,47
 370 613 370 613 356.5 636 c 132,-1,48
 343 659 343 659 328 650 c 4,49,50
 301 626 301 626 298 581 c 132,-1,51
 295 536 295 536 311.5 491 c 132,-1,52
 328 446 328 446 359 422 c 5,43,-1
EndSplineSet
Substitution2: "'swsh' Swash in Latin lookup 4 subtable" o.swsh
Substitution2: "'titl' Titling in Latin lookup 3 subtable" o.titl
Substitution2: "'salt' Stylistic Alternatives in Latin lookup 0 subtable" o.salt
EndChar

StartChar: p
Encoding: 112 112 83
Width: 887
GlyphClass: 2
Flags: W
LayerCount: 2
Fore
SplineSet
880 556 m 128,-1,1
 953 609 953 609 946 558 c 128,-1,2
 939 507 939 507 866.5 473 c 128,-1,3
 794 439 794 439 733 424 c 0,4,5
 717 419 717 419 701.5 407 c 128,-1,6
 686 395 686 395 682 380 c 0,7,8
 671 316 671 316 638 261 c 0,9,10
 552 127 552 127 394 155 c 1,11,12
 332 171 332 171 314.5 216 c 128,-1,13
 297 261 297 261 332 316 c 1,14,15
 381 380 381 380 453 411 c 0,16,17
 480 424 480 424 502 430 c 0,18,19
 513 435 513 435 528 439 c 0,20,21
 557 455 557 455 559 500 c 128,-1,22
 561 545 561 545 538 590 c 128,-1,23
 515 635 515 635 474 651.5 c 128,-1,24
 433 668 433 668 376 622 c 1,25,26
 321 571 321 571 293 503 c 1,27,28
 227 367 227 367 202 217 c 0,29,30
 158 -47 158 -47 141 -311 c 0,31,32
 134 -434 134 -434 117 -555 c 0,33,34
 110 -606 110 -606 106 -659 c 0,35,36
 103 -676 103 -676 97 -694 c 0,37,38
 88 -727 88 -727 48 -722 c 0,39,40
 7 -720 7 -720 4 -685 c 0,41,42
 2 -648 2 -648 4 -610 c 0,43,44
 4 -601 4 -601 4 -595 c 0,45,46
 7 -549 7 -549 9 -502 c 0,47,48
 11 -419 11 -419 13 -337 c 0,49,50
 18 -3 18 -3 9 336 c 0,51,52
 7 463 7 463 4 587 c 0,53,54
 4 600 4 600 4 613 c 0,55,56
 0 657 0 657 9 699 c 128,-1,57
 18 741 18 741 64 747 c 0,58,59
 112 752 112 752 123 703 c 0,60,61
 123 699 123 699 123 694 c 0,62,63
 139 600 139 600 152 446 c 1,64,65
 187 549 187 549 240 612 c 128,-1,66
 293 675 293 675 365 705 c 0,67,68
 425 732 425 732 488.5 726.5 c 128,-1,69
 552 721 552 721 604 674.5 c 128,-1,70
 656 628 656 628 675 536 c 0,71,72
 684 496 684 496 699.5 488.5 c 128,-1,73
 715 481 715 481 761 492 c 128,-1,0
 807 503 807 503 880 556 c 128,-1,1
462 219 m 1,74,-1
 462 219 l 1,75,76
 502 241 502 241 524 277.5 c 128,-1,77
 546 314 546 314 547 341.5 c 128,-1,78
 548 369 548 369 524 362 c 0,79,80
 462 338 462 338 439 299.5 c 128,-1,81
 416 261 416 261 423.5 233.5 c 128,-1,82
 431 206 431 206 462 219 c 1,74,-1
EndSplineSet
Substitution2: "'swsh' Swash in Latin lookup 4 subtable" p.swsh
Substitution2: "'titl' Titling in Latin lookup 3 subtable" p.titl
Substitution2: "'salt' Stylistic Alternatives in Latin lookup 0 subtable" p.salt
EndChar

StartChar: q
Encoding: 113 113 84
Width: 834
GlyphClass: 2
Flags: W
LayerCount: 2
Fore
SplineSet
897 507 m 1,0,-1
 897 507 l 1,1,2
 913 503 913 503 908.5 481 c 128,-1,3
 904 459 904 459 893 432.5 c 128,-1,4
 882 406 882 406 873 391 c 0,5,6
 871 386 871 386 869 384 c 0,7,8
 728 92 728 92 640 -232.5 c 128,-1,9
 552 -557 552 -557 499 -876 c 0,10,11
 475 -1006 475 -1006 455 -1134 c 0,12,13
 440 -1222 440 -1222 424 -1310 c 0,14,15
 420 -1341 420 -1341 411 -1369 c 0,16,17
 398 -1415 398 -1415 345 -1411 c 256,18,19
 292 -1407 292 -1407 288 -1360 c 0,20,21
 284 -1325 284 -1325 288 -1288 c 0,22,23
 290 -1239 290 -1239 295 -1191 c 0,24,25
 317 -923 317 -923 341 -654 c 0,26,27
 363 -399 363 -399 387 -144 c 0,28,29
 402 26 402 26 420 195 c 0,30,31
 420 199 420 199 420 202 c 0,32,33
 422 213 422 213 420 221.5 c 128,-1,34
 418 230 418 230 409 239 c 1,35,36
 391 239 391 239 378 231.5 c 128,-1,37
 365 224 365 224 354 213 c 0,38,39
 345 204 345 204 336 197 c 0,40,41
 248 133 248 133 141 149 c 0,42,43
 17 164 17 164 -9 285 c 0,44,45
 -20 340 -20 340 -9 393 c 0,46,47
 26 549 26 549 149 648 c 0,48,49
 264 738 264 738 402 694 c 0,50,51
 422 688 422 688 440 681 c 0,52,53
 488 661 488 661 541 655 c 0,54,55
 565 653 565 653 577 635 c 128,-1,56
 589 617 589 617 589 593 c 0,57,58
 589 527 589 527 585 459 c 0,59,60
 574 301 574 301 556 63 c 0,61,62
 545 -106 545 -106 537 -221 c 1,63,64
 563 -150 563 -150 646.5 42.5 c 128,-1,65
 730 235 730 235 812 391 c 0,66,67
 823 413 823 413 834 433 c 0,68,69
 851 470 851 470 865.5 490 c 128,-1,70
 880 510 880 510 897 507 c 1,0,-1
398 516 m 1,71,-1
 398 516 l 1,72,73
 411 545 411 545 402.5 566 c 128,-1,74
 394 587 394 587 363 609 c 0,75,76
 319 644 319 644 273 609 c 1,77,78
 191 525 191 525 162.5 428 c 128,-1,79
 134 331 134 331 148.5 270.5 c 128,-1,80
 163 210 163 210 209 239 c 0,81,82
 233 257 233 257 257 276 c 0,83,84
 308 327 308 327 341 388.5 c 128,-1,85
 374 450 374 450 398 516 c 1,71,-1
EndSplineSet
Substitution2: "'swsh' Swash in Latin lookup 4 subtable" q.swsh
Substitution2: "'titl' Titling in Latin lookup 3 subtable" q.titl
Substitution2: "'salt' Stylistic Alternatives in Latin lookup 0 subtable" q.salt
EndChar

StartChar: r
Encoding: 114 114 85
Width: 612
GlyphClass: 2
Flags: W
LayerCount: 2
Fore
SplineSet
638 479 m 1,0,-1
 638 479 l 1,1,2
 657 518 657 518 664 515 c 128,-1,3
 671 512 671 512 667.5 483.5 c 128,-1,4
 664 455 664 455 655 419 c 0,5,6
 642 364 642 364 610 291.5 c 128,-1,7
 578 219 578 219 539 160 c 0,8,9
 481 78 481 78 395.5 36.5 c 128,-1,10
 310 -5 310 -5 240.5 16 c 128,-1,11
 171 37 171 37 160 147 c 1,12,13
 158 239 158 239 176 349 c 0,14,15
 182 395 182 395 189 439 c 0,16,17
 189 455 189 455 181 463.5 c 128,-1,18
 173 472 173 472 160 470 c 0,19,20
 151 470 151 470 140 470 c 0,21,22
 85 461 85 461 28 472 c 1,23,24
 -40 492 -40 492 -51 539.5 c 128,-1,25
 -62 587 -62 587 -49 664 c 0,26,27
 -42 719 -42 719 -8 746.5 c 128,-1,28
 26 774 26 774 72 769 c 0,29,30
 136 763 136 763 134 720 c 128,-1,31
 132 677 132 677 110 628 c 0,32,33
 90 587 90 587 89 559.5 c 128,-1,34
 88 532 88 532 136 540 c 0,35,36
 147 543 147 543 160 547 c 0,37,38
 178 554 178 554 201 559.5 c 128,-1,39
 224 565 224 565 261 562 c 0,40,41
 305 560 305 560 319.5 521.5 c 128,-1,42
 334 483 334 483 332 425 c 128,-1,43
 330 367 330 367 321 307 c 0,44,45
 310 232 310 232 310 178.5 c 128,-1,46
 310 125 310 125 341 116 c 0,47,48
 382 105 382 105 463.5 190.5 c 128,-1,49
 545 276 545 276 638 479 c 1,0,-1
EndSplineSet
Substitution2: "'swsh' Swash in Latin lookup 4 subtable" r.swsh
Substitution2: "'titl' Titling in Latin lookup 3 subtable" r.titl
Substitution2: "'salt' Stylistic Alternatives in Latin lookup 0 subtable" r.salt
EndChar

StartChar: s
Encoding: 115 115 86
Width: 539
GlyphClass: 2
Flags: W
LayerCount: 2
Fore
SplineSet
510 464.5 m 128,-1,1
 413 406 413 406 367 376.5 c 128,-1,2
 321 347 321 347 321 340 c 0,3,4
 330 320 330 320 340 273 c 128,-1,5
 350 226 350 226 347.5 171 c 128,-1,6
 345 116 345 116 312 73 c 128,-1,7
 279 30 279 30 202 21 c 0,8,9
 125 15 125 15 64.5 44.5 c 128,-1,10
 4 74 4 74 -11.5 130 c 128,-1,11
 -27 186 -27 186 26 261 c 1,12,13
 61 303 61 303 110 334 c 0,14,15
 127 345 127 345 145 358 c 1,16,17
 86 422 86 422 33 489 c 128,-1,18
 -20 556 -20 556 -35 609 c 0,19,20
 -51 670 -51 670 -14.5 724 c 128,-1,21
 22 778 22 778 112 787 c 0,22,23
 156 791 156 791 194.5 782.5 c 128,-1,24
 233 774 233 774 266 745 c 0,25,26
 273 738 273 738 276 729.5 c 128,-1,27
 279 721 279 721 273 708 c 0,28,29
 262 688 262 688 240 688 c 0,30,31
 224 688 224 688 209 692 c 0,32,33
 193 699 193 699 180 705 c 0,34,35
 171 710 171 710 163 714 c 0,36,37
 134 725 134 725 118.5 711 c 128,-1,38
 103 697 103 697 103 668 c 0,39,40
 105 617 105 617 145 559 c 128,-1,41
 185 501 185 501 224 452 c 0,42,43
 240 435 240 435 251 419 c 0,44,45
 262 408 262 408 309 422.5 c 128,-1,46
 356 437 356 437 481.5 503 c 128,-1,47
 607 569 607 569 607 546 c 128,-1,0
 607 523 607 523 510 464.5 c 128,-1,1
160 96 m 1,48,-1
 160 96 l 1,49,50
 189 98 189 98 198 128 c 128,-1,51
 207 158 207 158 204.5 194 c 128,-1,52
 202 230 202 230 200 248 c 0,53,54
 196 259 196 259 186 262 c 128,-1,55
 176 265 176 265 167 261 c 0,56,57
 134 235 134 235 118.5 195 c 128,-1,58
 103 155 103 155 121 125 c 0,59,60
 127 114 127 114 137 106 c 128,-1,61
 147 98 147 98 160 96 c 1,48,-1
EndSplineSet
Substitution2: "'swsh' Swash in Latin lookup 4 subtable" s.swsh
Substitution2: "'titl' Titling in Latin lookup 3 subtable" s.titl
Substitution2: "'salt' Stylistic Alternatives in Latin lookup 0 subtable" s.salt
EndChar

StartChar: t
Encoding: 116 116 87
Width: 721
GlyphClass: 2
Flags: W
LayerCount: 2
Fore
SplineSet
734 481 m 1,0,-1
 734 481 l 1,1,2
 789 534 789 534 781.5 507.5 c 128,-1,3
 774 481 774 481 721 411.5 c 128,-1,4
 668 342 668 342 589 261 c 128,-1,5
 510 180 510 180 422 120.5 c 128,-1,6
 334 61 334 61 255 56 c 1,7,8
 158 56 158 56 99.5 113.5 c 128,-1,9
 41 171 41 171 16 265.5 c 128,-1,10
 -9 360 -9 360 -5 470 c 0,11,12
 0 593 0 593 4 716 c 0,13,14
 6 778 6 778 8 837 c 0,15,16
 13 936 13 936 15 1035 c 0,17,18
 17 1066 17 1066 5 1087 c 128,-1,19
 -7 1108 -7 1108 -38 1110 c 0,20,21
 -73 1112 -73 1112 -126 1112 c 0,22,23
 -172 1112 -172 1112 -205 1112 c 0,24,25
 -251 1117 -251 1117 -266.5 1136.5 c 128,-1,26
 -282 1156 -282 1156 -242 1176 c 0,27,28
 -214 1187 -214 1187 -174.5 1188 c 128,-1,29
 -135 1189 -135 1189 -97 1187 c 0,30,31
 -73 1185 -73 1185 -55 1185 c 0,32,33
 4 1185 4 1185 17 1203.5 c 128,-1,34
 30 1222 30 1222 33 1277 c 0,35,36
 37 1335 37 1335 39 1394 c 0,37,38
 41 1425 41 1425 44 1456 c 0,39,40
 44 1502 44 1502 68 1539 c 0,41,42
 94 1574 94 1574 134 1566 c 0,43,44
 169 1557 169 1557 173 1522 c 0,45,46
 176 1464 176 1464 176 1405 c 0,47,48
 178 1372 178 1372 176 1339 c 0,49,50
 176 1304 176 1304 178 1266 c 0,51,52
 176 1214 176 1214 190 1200.5 c 128,-1,53
 204 1187 204 1187 259 1187 c 0,54,55
 349 1187 349 1187 437 1187 c 0,56,57
 477 1187 477 1187 675 1192.5 c 128,-1,58
 873 1198 873 1198 888.5 1160.5 c 128,-1,59
 904 1123 904 1123 638 1117 c 1,60,61
 477 1108 477 1108 389 1108 c 0,62,63
 330 1110 330 1110 283 1110 c 0,64,65
 204 1110 204 1110 185.5 1082.5 c 128,-1,66
 167 1055 167 1055 169 972 c 0,67,68
 167 901 167 901 162 800 c 0,69,70
 149 593 149 593 149 378 c 1,71,72
 154 230 154 230 202 186 c 128,-1,73
 250 142 250 142 327 169.5 c 128,-1,74
 404 197 404 197 493.5 267.5 c 128,-1,75
 583 338 583 338 671 419 c 1,76,77
 690 444 690 444 717 466 c 0,78,79
 726 474 726 474 734 481 c 1,0,-1
EndSplineSet
Substitution2: "'swsh' Swash in Latin lookup 4 subtable" t.swsh
Substitution2: "'titl' Titling in Latin lookup 3 subtable" t.titl
Substitution2: "'salt' Stylistic Alternatives in Latin lookup 0 subtable" t.salt
EndChar

StartChar: u
Encoding: 117 117 88
Width: 975
GlyphClass: 2
Flags: W
LayerCount: 2
Fore
SplineSet
1034 503 m 1,0,-1
 1034 503 l 1,1,2
 1056 501 1056 501 1026.5 442.5 c 128,-1,3
 997 384 997 384 929.5 308 c 128,-1,4
 862 232 862 232 778.5 177 c 128,-1,5
 695 122 695 122 612 127 c 0,6,7
 550 133 550 133 520.5 164 c 128,-1,8
 491 195 491 195 480 232.5 c 128,-1,9
 469 270 469 270 466 298 c 0,10,11
 464 318 464 318 461 328 c 128,-1,12
 458 338 458 338 449 329 c 1,13,14
 385 182 385 182 227 182 c 0,15,16
 139 182 139 182 84 260 c 128,-1,17
 29 338 29 338 14.5 455.5 c 128,-1,18
 0 573 0 573 37 694 c 0,19,20
 46 734 46 734 86 749 c 0,21,22
 114 760 114 760 144 747 c 128,-1,23
 174 734 174 734 176 708 c 0,24,25
 176 681 176 681 172 655 c 0,26,27
 167 635 167 635 165 617 c 0,28,29
 161 545 161 545 167.5 459 c 128,-1,30
 174 373 174 373 213 312 c 1,31,32
 251 263 251 263 297 299.5 c 128,-1,33
 343 336 343 336 378 413 c 0,34,35
 405 474 405 474 420.5 534.5 c 128,-1,36
 436 595 436 595 440 628 c 0,37,38
 444 642 444 642 444 646 c 0,39,40
 451 672 451 672 458 697 c 0,41,42
 469 734 469 734 480 769 c 0,43,44
 499 837 499 837 576 826 c 0,45,46
 623 822 623 822 627 780 c 0,47,48
 631 723 631 723 629 666 c 0,49,50
 627 606 627 606 623 549 c 0,51,52
 618 466 618 466 616 384 c 0,53,54
 614 265 614 265 663.5 245.5 c 128,-1,55
 713 226 713 226 784.5 271 c 128,-1,56
 856 316 856 316 922 393 c 0,57,58
 928 400 928 400 937 411 c 0,59,60
 950 428 950 428 969 449 c 128,-1,61
 988 470 988 470 1005.5 485.5 c 128,-1,62
 1023 501 1023 501 1034 503 c 1,0,-1
EndSplineSet
Substitution2: "'swsh' Swash in Latin lookup 4 subtable" u.swsh
Substitution2: "'titl' Titling in Latin lookup 3 subtable" u.titl
Substitution2: "'salt' Stylistic Alternatives in Latin lookup 0 subtable" u.salt
EndChar

StartChar: v
Encoding: 118 118 89
Width: 741
GlyphClass: 2
Flags: W
LayerCount: 2
Fore
SplineSet
739 523 m 1,0,-1
 739 523 l 1,1,2
 814 543 814 543 799.5 521 c 128,-1,3
 785 499 785 499 702 477 c 0,4,5
 640 461 640 461 595 461 c 128,-1,6
 550 461 550 461 513 490 c 1,7,8
 504 459 504 459 495 430 c 0,9,10
 477 371 477 371 460 318 c 0,11,12
 438 241 438 241 396 173 c 0,13,14
 361 116 361 116 303.5 96 c 128,-1,15
 246 76 246 76 191 97 c 128,-1,16
 136 118 136 118 101 182 c 0,17,18
 57 274 57 274 42 375 c 1,19,20
 9 525 9 525 2 679 c 0,21,22
 0 714 0 714 4 747 c 0,23,24
 11 791 11 791 59 791 c 0,25,26
 95 789 95 789 102.5 748.5 c 128,-1,27
 110 708 110 708 110 666 c 0,28,29
 110 650 110 650 112 639 c 1,30,31
 112 639 112 639 112 639 c 1,32,33
 112 624 112 624 122 539.5 c 128,-1,34
 132 455 132 455 152 359 c 128,-1,35
 172 263 172 263 200.5 212.5 c 128,-1,36
 229 162 229 162 268 215 c 0,37,38
 306 272 306 272 321 338 c 0,39,40
 359 470 359 470 392 602 c 0,41,42
 405 664 405 664 442 714 c 0,43,44
 482 763 482 763 546 738 c 0,45,46
 561 734 561 734 570 723 c 128,-1,47
 579 712 579 712 576 699 c 0,48,49
 574 683 574 683 570 666 c 0,50,51
 559 633 559 633 553.5 600 c 128,-1,52
 548 567 548 567 557 549 c 0,53,54
 572 527 572 527 629 518.5 c 128,-1,55
 686 510 686 510 739 523 c 1,0,-1
EndSplineSet
Substitution2: "'swsh' Swash in Latin lookup 4 subtable" v.swsh
Substitution2: "'titl' Titling in Latin lookup 3 subtable" v.titl
Substitution2: "'salt' Stylistic Alternatives in Latin lookup 0 subtable" v.salt
EndChar

StartChar: w
Encoding: 119 119 90
Width: 1219
GlyphClass: 2
Flags: W
LayerCount: 2
Fore
SplineSet
1305 547 m 1,0,-1
 1305 547 l 1,1,2
 1311 545 1311 545 1319 538.5 c 128,-1,3
 1327 532 1327 532 1329 523 c 128,-1,4
 1331 514 1331 514 1318 507 c 0,5,6
 1236 463 1236 463 1119.5 471 c 128,-1,7
 1003 479 1003 479 935 547 c 1,8,9
 931 512 931 512 924 479 c 0,10,11
 913 406 913 406 902 338 c 0,12,13
 887 261 887 261 849 191 c 0,14,15
 799 109 799 109 719.5 82.5 c 128,-1,16
 640 56 640 56 570 74 c 0,17,18
 495 89 495 89 449 147 c 0,19,20
 429 173 429 173 411 199 c 0,21,22
 403 210 403 210 396 221 c 1,23,24
 376 219 376 219 365 209 c 128,-1,25
 354 199 354 199 345 188 c 0,26,27
 337 177 337 177 326 171 c 0,28,29
 249 116 249 116 173 134.5 c 128,-1,30
 97 153 97 153 57 237 c 0,31,32
 40 276 40 276 31 318 c 0,33,34
 11 400 11 400 5.5 481 c 128,-1,35
 0 562 0 562 2 646 c 0,36,37
 7 697 7 697 41 712 c 128,-1,38
 75 727 75 727 109 708.5 c 128,-1,39
 143 690 143 690 147 637 c 0,40,41
 150 602 150 602 150 567 c 0,42,43
 147 439 147 439 178 316 c 0,44,45
 187 287 187 287 198 261 c 0,46,47
 205 248 205 248 217 247 c 128,-1,48
 229 246 229 246 238 259 c 0,49,50
 271 305 271 305 287.5 359 c 128,-1,51
 304 413 304 413 317 470 c 0,52,53
 317 477 317 477 319 483 c 0,54,55
 323 507 323 507 330 534 c 0,56,57
 334 567 334 567 343 600 c 0,58,59
 359 655 359 655 429 646 c 0,60,61
 488 642 488 642 491 587 c 0,62,63
 491 459 491 459 519 336 c 0,64,65
 528 292 528 292 544.5 250 c 128,-1,66
 561 208 561 208 594 173 c 0,67,68
 629 140 629 140 667 173 c 0,69,70
 722 226 722 226 739 296 c 1,71,72
 783 435 783 435 779 582 c 0,73,74
 779 593 779 593 779 604 c 0,75,76
 774 666 774 666 777 725 c 0,77,78
 779 809 779 809 867 789 c 0,79,80
 887 785 887 785 903.5 776 c 128,-1,81
 920 767 920 767 928 743 c 0,82,83
 997 593 997 593 1071.5 549 c 128,-1,84
 1146 505 1146 505 1207.5 516 c 128,-1,85
 1269 527 1269 527 1296 543 c 0,86,87
 1302 545 1302 545 1305 547 c 1,0,-1
EndSplineSet
Substitution2: "'swsh' Swash in Latin lookup 4 subtable" w.swsh
Substitution2: "'titl' Titling in Latin lookup 3 subtable" w.titl
Substitution2: "'salt' Stylistic Alternatives in Latin lookup 0 subtable" w.salt
EndChar

